solid OpenSCAD_Model
  facet normal 1 -0 4.73695e-015
    outer loop
      vertex 43 -5.5 1.5
      vertex 43 -20.5 1.5
      vertex 43 -20.5 5.26581e-015
    endloop
  endfacet
  facet normal 1 -0 4.73695e-015
    outer loop
      vertex 43 5.5 1.5
      vertex 43 -5.5 1.5
      vertex 43 20.5 5.26581e-015
    endloop
  endfacet
  facet normal 1 -0 4.73695e-015
    outer loop
      vertex 43 20.5 5.26581e-015
      vertex 43 -5.5 1.5
      vertex 43 -20.5 5.26581e-015
    endloop
  endfacet
  facet normal 1 -0 4.73695e-015
    outer loop
      vertex 43 20.5 1.5
      vertex 43 5.5 1.5
      vertex 43 20.5 5.26581e-015
    endloop
  endfacet
  facet normal 0 -1 0
    outer loop
      vertex 43 -20.5 5.26581e-015
      vertex 43 -20.5 1.5
      vertex 18 -20.5 1.5
    endloop
  endfacet
  facet normal -0 -1 0
    outer loop
      vertex -43 -20.5 1.5
      vertex 43 -20.5 5.26581e-015
      vertex -18 -20.5 1.5
    endloop
  endfacet
  facet normal -0 -1 0
    outer loop
      vertex -18 -20.5 1.5
      vertex 43 -20.5 5.26581e-015
      vertex 18 -20.5 1.5
    endloop
  endfacet
  facet normal 0 -1 -0
    outer loop
      vertex -43 -20.5 -5.26581e-015
      vertex 43 -20.5 5.26581e-015
      vertex -43 -20.5 1.5
    endloop
  endfacet
  facet normal -1.24345e-016 0 1
    outer loop
      vertex 18 -20.5 1.5
      vertex 43 -20.5 1.5
      vertex 43 -5.5 1.5
    endloop
  endfacet
  facet normal 0 -1.92439e-016 1
    outer loop
      vertex 40 -5.5 1.5
      vertex 18 -20.5 1.5
      vertex 41.5 -5.5 1.5
    endloop
  endfacet
  facet normal -1.4803e-016 3.94746e-017 1
    outer loop
      vertex 41.5 -5.5 1.5
      vertex 18 -20.5 1.5
      vertex 43 -5.5 1.5
    endloop
  endfacet
  facet normal -1.31208e-016 0 1
    outer loop
      vertex 40 5.5 1.5
      vertex 18 -20.5 1.5
      vertex 40 -5.5 1.5
    endloop
  endfacet
  facet normal -1.48911e-016 1.49792e-017 1
    outer loop
      vertex 43 20.5 1.5
      vertex 18 -20.5 1.5
      vertex 40 5.5 1.5
    endloop
  endfacet
  facet normal 0 -1.4803e-017 1
    outer loop
      vertex 43 20.5 1.5
      vertex 40 5.5 1.5
      vertex 41.5 5.5 1.5
    endloop
  endfacet
  facet normal -1.4803e-016 0 1
    outer loop
      vertex 43 20.5 1.5
      vertex 41.5 5.5 1.5
      vertex 43 5.5 1.5
    endloop
  endfacet
  facet normal -1.24345e-016 0 1
    outer loop
      vertex 18 17.5 1.5
      vertex 18 -17.5 1.5
      vertex 43 20.5 1.5
    endloop
  endfacet
  facet normal -1.24345e-016 0 1
    outer loop
      vertex 18 -17.5 1.5
      vertex 18 -19 1.5
      vertex 43 20.5 1.5
    endloop
  endfacet
  facet normal -1.24345e-016 0 1
    outer loop
      vertex 18 20.5 1.5
      vertex 18 19 1.5
      vertex 43 20.5 1.5
    endloop
  endfacet
  facet normal -1.24345e-016 0 1
    outer loop
      vertex 18 19 1.5
      vertex 18 17.5 1.5
      vertex 43 20.5 1.5
    endloop
  endfacet
  facet normal -1.24345e-016 0 1
    outer loop
      vertex -18 19 1.5
      vertex -43 20.5 1.5
      vertex -18 17.5 1.5
    endloop
  endfacet
  facet normal -1.24345e-016 0 1
    outer loop
      vertex -18 20.5 1.5
      vertex -43 20.5 1.5
      vertex -18 19 1.5
    endloop
  endfacet
  facet normal -1.4803e-016 -4.93432e-017 1
    outer loop
      vertex -18 -17.5 1.5
      vertex -41.5 -5.5 1.5
      vertex -43 -5.5 1.5
    endloop
  endfacet
  facet normal -1.4803e-016 0 1
    outer loop
      vertex -43 20.5 1.5
      vertex -43 5.5 1.5
      vertex -41.5 5.5 1.5
    endloop
  endfacet
  facet normal 0 1.4803e-017 1
    outer loop
      vertex -43 20.5 1.5
      vertex -41.5 5.5 1.5
      vertex -40 5.5 1.5
    endloop
  endfacet
  facet normal -1.24345e-016 0 1
    outer loop
      vertex -43 -5.5 1.5
      vertex -43 -20.5 1.5
      vertex -18 -20.5 1.5
    endloop
  endfacet
  facet normal -1.24345e-016 0 1
    outer loop
      vertex -43 -5.5 1.5
      vertex -18 -20.5 1.5
      vertex -18 -19 1.5
    endloop
  endfacet
  facet normal -1.24345e-016 0 1
    outer loop
      vertex -43 -5.5 1.5
      vertex -18 -19 1.5
      vertex -18 -17.5 1.5
    endloop
  endfacet
  facet normal -1.1719e-016 0 1
    outer loop
      vertex -18 17.5 1.5
      vertex 18 -17.5 1.5
      vertex 18 17.5 1.5
    endloop
  endfacet
  facet normal -1.24345e-016 0 1
    outer loop
      vertex 18 -19 1.5
      vertex 18 -20.5 1.5
      vertex 43 20.5 1.5
    endloop
  endfacet
  facet normal 0 2.40548e-016 1
    outer loop
      vertex -18 -17.5 1.5
      vertex -40 -5.5 1.5
      vertex -41.5 -5.5 1.5
    endloop
  endfacet
  facet normal -1.31208e-016 0 1
    outer loop
      vertex -18 -17.5 1.5
      vertex -40 5.5 1.5
      vertex -40 -5.5 1.5
    endloop
  endfacet
  facet normal -1.46328e-016 -1.44627e-017 1
    outer loop
      vertex -18 -17.5 1.5
      vertex -43 20.5 1.5
      vertex -40 5.5 1.5
    endloop
  endfacet
  facet normal -1.24345e-016 0 1
    outer loop
      vertex -18 -17.5 1.5
      vertex -18 17.5 1.5
      vertex -43 20.5 1.5
    endloop
  endfacet
  facet normal -1.1719e-016 0 1
    outer loop
      vertex -18 -17.5 1.5
      vertex 18 -17.5 1.5
      vertex -18 17.5 1.5
    endloop
  endfacet
  facet normal -1.4803e-016 0 1
    outer loop
      vertex 41.5 -5.5 1.5
      vertex 43 -5.5 1.5
      vertex 43 5.5 1.5
    endloop
  endfacet
  facet normal -1.4803e-016 0 1
    outer loop
      vertex 41.5 5.5 1.5
      vertex 41.5 -5.5 1.5
      vertex 43 5.5 1.5
    endloop
  endfacet
  facet normal 0 1 -0
    outer loop
      vertex 43 20.5 1.5
      vertex 43 20.5 5.26581e-015
      vertex 18 20.5 1.5
    endloop
  endfacet
  facet normal 0 1 -0
    outer loop
      vertex 18 20.5 1.5
      vertex 43 20.5 5.26581e-015
      vertex -43 20.5 -5.26581e-015
    endloop
  endfacet
  facet normal 0 1 0
    outer loop
      vertex -18 20.5 1.5
      vertex -43 20.5 -5.26581e-015
      vertex -43 20.5 1.5
    endloop
  endfacet
  facet normal 0 1 0
    outer loop
      vertex 18 20.5 1.5
      vertex -43 20.5 -5.26581e-015
      vertex -18 20.5 1.5
    endloop
  endfacet
  facet normal 1.22461e-016 0 -1
    outer loop
      vertex 43 -20.5 5.26581e-015
      vertex -43 -20.5 -5.26581e-015
      vertex 43 20.5 5.26581e-015
    endloop
  endfacet
  facet normal 1.22461e-016 0 -1
    outer loop
      vertex 43 20.5 5.26581e-015
      vertex -43 -20.5 -5.26581e-015
      vertex -43 20.5 -5.26581e-015
    endloop
  endfacet
  facet normal -1 0 0
    outer loop
      vertex -43 -20.5 1.5
      vertex -43 -5.5 1.5
      vertex -43 -20.5 -5.26581e-015
    endloop
  endfacet
  facet normal -1 0 0
    outer loop
      vertex -43 -20.5 -5.26581e-015
      vertex -43 -5.5 1.5
      vertex -43 5.5 1.5
    endloop
  endfacet
  facet normal -1 0 0
    outer loop
      vertex -43 -20.5 -5.26581e-015
      vertex -43 5.5 1.5
      vertex -43 20.5 1.5
    endloop
  endfacet
  facet normal -1 -0 0
    outer loop
      vertex -43 -20.5 -5.26581e-015
      vertex -43 20.5 1.5
      vertex -43 20.5 -5.26581e-015
    endloop
  endfacet
  facet normal -1.1719e-016 0 1
    outer loop
      vertex -18 -20.5 1.5
      vertex 18 -20.5 1.5
      vertex 18 -19 1.5
    endloop
  endfacet
  facet normal -1.1719e-016 0 1
    outer loop
      vertex -18 -19 1.5
      vertex -18 -20.5 1.5
      vertex 18 -19 1.5
    endloop
  endfacet
  facet normal 0 -1 0
    outer loop
      vertex 18 -19 1.5
      vertex 18 -19 3.5
      vertex -18 -19 3.5
    endloop
  endfacet
  facet normal 0 -1 -0
    outer loop
      vertex -18 -19 1.5
      vertex 18 -19 1.5
      vertex -18 -19 3.5
    endloop
  endfacet
  facet normal 1 0 0
    outer loop
      vertex 18 -19 1.5
      vertex 18 -17.5 1.5
      vertex 18 -17.5 3.5
    endloop
  endfacet
  facet normal 1 0 -0
    outer loop
      vertex 18 -19 3.5
      vertex 18 -19 1.5
      vertex 18 -17.5 3.5
    endloop
  endfacet
  facet normal 0 1 0
    outer loop
      vertex -18 -17.5 1.5
      vertex -18 -17.5 3.5
      vertex 18 -17.5 1.5
    endloop
  endfacet
  facet normal 0 1 0
    outer loop
      vertex 18 -17.5 1.5
      vertex -18 -17.5 3.5
      vertex 18 -17.5 3.5
    endloop
  endfacet
  facet normal -1 0 0
    outer loop
      vertex -18 -17.5 1.5
      vertex -18 -19 1.5
      vertex -18 -17.5 3.5
    endloop
  endfacet
  facet normal -1 0 0
    outer loop
      vertex -18 -17.5 3.5
      vertex -18 -19 1.5
      vertex -18 -19 3.5
    endloop
  endfacet
  facet normal -1.4803e-016 0 1
    outer loop
      vertex -43 -5.5 1.5
      vertex -41.5 -5.5 1.5
      vertex -41.5 5.5 1.5
    endloop
  endfacet
  facet normal -1.4803e-016 0 1
    outer loop
      vertex -43 5.5 1.5
      vertex -43 -5.5 1.5
      vertex -41.5 5.5 1.5
    endloop
  endfacet
  facet normal -1 0 0
    outer loop
      vertex -41.5 -5.5 3.5
      vertex -41.5 5.5 3.5
      vertex -41.5 -5.5 1.5
    endloop
  endfacet
  facet normal -1 -0 0
    outer loop
      vertex -41.5 -5.5 1.5
      vertex -41.5 5.5 3.5
      vertex -41.5 5.5 1.5
    endloop
  endfacet
  facet normal 0 -1 0
    outer loop
      vertex -41.5 -5.5 3.5
      vertex -41.5 -5.5 1.5
      vertex -40 -5.5 1.5
    endloop
  endfacet
  facet normal 0 -1 0
    outer loop
      vertex -40 -5.5 3.5
      vertex -41.5 -5.5 3.5
      vertex -40 -5.5 1.5
    endloop
  endfacet
  facet normal 1 0 0
    outer loop
      vertex -40 -5.5 1.5
      vertex -40 5.5 1.5
      vertex -40 5.5 3.5
    endloop
  endfacet
  facet normal 1 0 -0
    outer loop
      vertex -40 -5.5 3.5
      vertex -40 -5.5 1.5
      vertex -40 5.5 3.5
    endloop
  endfacet
  facet normal 0 1 0
    outer loop
      vertex -41.5 5.5 1.5
      vertex -41.5 5.5 3.5
      vertex -40 5.5 1.5
    endloop
  endfacet
  facet normal 0 1 0
    outer loop
      vertex -40 5.5 1.5
      vertex -41.5 5.5 3.5
      vertex -40 5.5 3.5
    endloop
  endfacet
  facet normal -1.1719e-016 0 1
    outer loop
      vertex -18 19 1.5
      vertex 18 19 1.5
      vertex 18 20.5 1.5
    endloop
  endfacet
  facet normal -1.1719e-016 0 1
    outer loop
      vertex -18 20.5 1.5
      vertex -18 19 1.5
      vertex 18 20.5 1.5
    endloop
  endfacet
  facet normal 0 1 0
    outer loop
      vertex 18 19 3.5
      vertex 18 19 1.5
      vertex -18 19 3.5
    endloop
  endfacet
  facet normal 0 1 -0
    outer loop
      vertex -18 19 3.5
      vertex 18 19 1.5
      vertex -18 19 1.5
    endloop
  endfacet
  facet normal -1 0 0
    outer loop
      vertex -18 19 1.5
      vertex -18 17.5 1.5
      vertex -18 19 3.5
    endloop
  endfacet
  facet normal -1 0 0
    outer loop
      vertex -18 19 3.5
      vertex -18 17.5 1.5
      vertex -18 17.5 3.5
    endloop
  endfacet
  facet normal 0 -1 0
    outer loop
      vertex -18 17.5 3.5
      vertex -18 17.5 1.5
      vertex 18 17.5 1.5
    endloop
  endfacet
  facet normal 0 -1 0
    outer loop
      vertex 18 17.5 3.5
      vertex -18 17.5 3.5
      vertex 18 17.5 1.5
    endloop
  endfacet
  facet normal 1 0 0
    outer loop
      vertex 18 17.5 1.5
      vertex 18 19 1.5
      vertex 18 19 3.5
    endloop
  endfacet
  facet normal 1 0 -0
    outer loop
      vertex 18 17.5 3.5
      vertex 18 17.5 1.5
      vertex 18 19 3.5
    endloop
  endfacet
  facet normal 1 0 0
    outer loop
      vertex 41.5 5.5 3.5
      vertex 41.5 -5.5 3.5
      vertex 41.5 -5.5 1.5
    endloop
  endfacet
  facet normal 1 -0 0
    outer loop
      vertex 41.5 5.5 1.5
      vertex 41.5 5.5 3.5
      vertex 41.5 -5.5 1.5
    endloop
  endfacet
  facet normal 0 1 0
    outer loop
      vertex 40 5.5 1.5
      vertex 40 5.5 3.5
      vertex 41.5 5.5 1.5
    endloop
  endfacet
  facet normal 0 1 0
    outer loop
      vertex 41.5 5.5 1.5
      vertex 40 5.5 3.5
      vertex 41.5 5.5 3.5
    endloop
  endfacet
  facet normal -1 0 0
    outer loop
      vertex 40 5.5 1.5
      vertex 40 -5.5 1.5
      vertex 40 5.5 3.5
    endloop
  endfacet
  facet normal -1 0 0
    outer loop
      vertex 40 5.5 3.5
      vertex 40 -5.5 1.5
      vertex 40 -5.5 3.5
    endloop
  endfacet
  facet normal 0 -1 0
    outer loop
      vertex 40 -5.5 3.5
      vertex 40 -5.5 1.5
      vertex 41.5 -5.5 1.5
    endloop
  endfacet
  facet normal 0 -1 0
    outer loop
      vertex 41.5 -5.5 3.5
      vertex 40 -5.5 3.5
      vertex 41.5 -5.5 1.5
    endloop
  endfacet
  facet normal -1.11022e-016 0 1
    outer loop
      vertex -18 -19 3.5
      vertex 18 -19 3.5
      vertex 18 -17.5 3.5
    endloop
  endfacet
  facet normal -1.11022e-016 0 1
    outer loop
      vertex -18 -17.5 3.5
      vertex -18 -19 3.5
      vertex 18 -17.5 3.5
    endloop
  endfacet
  facet normal 0 0 1
    outer loop
      vertex -41.5 -5.5 3.5
      vertex -40 -5.5 3.5
      vertex -40 5.5 3.5
    endloop
  endfacet
  facet normal 0 -0 1
    outer loop
      vertex -41.5 5.5 3.5
      vertex -41.5 -5.5 3.5
      vertex -40 5.5 3.5
    endloop
  endfacet
  facet normal -1.11022e-016 0 1
    outer loop
      vertex -18 17.5 3.5
      vertex 18 17.5 3.5
      vertex 18 19 3.5
    endloop
  endfacet
  facet normal -1.11022e-016 0 1
    outer loop
      vertex -18 19 3.5
      vertex -18 17.5 3.5
      vertex 18 19 3.5
    endloop
  endfacet
  facet normal 0 0 1
    outer loop
      vertex 40 -5.5 3.5
      vertex 41.5 -5.5 3.5
      vertex 41.5 5.5 3.5
    endloop
  endfacet
  facet normal 0 -0 1
    outer loop
      vertex 40 5.5 3.5
      vertex 40 -5.5 3.5
      vertex 41.5 5.5 3.5
    endloop
  endfacet
endsolid OpenSCAD_Model
