solid OpenSCAD_Model
  facet normal 1 -0 0
    outer loop
      vertex 43 23.5 1.5
      vertex 43 -20.5 1.5
      vertex 43 -20.5 2.6698e-016
    endloop
  endfacet
  facet normal 1 0 0
    outer loop
      vertex 43 23.5 -3.07454e-015
      vertex 43 23.5 1.5
      vertex 43 -20.5 2.6698e-016
    endloop
  endfacet
  facet normal 0 -1 0
    outer loop
      vertex 43 -20.5 2.6698e-016
      vertex 43 -20.5 1.5
      vertex -43 -20.5 1.5
    endloop
  endfacet
  facet normal 0 -1 -0
    outer loop
      vertex -43 -20.5 -1.02646e-014
      vertex 43 -20.5 2.6698e-016
      vertex -43 -20.5 1.5
    endloop
  endfacet
  facet normal -1.16086e-016 8.07435e-017 1
    outer loop
      vertex 41.5 18.5934 1.5
      vertex 43 -20.5 1.5
      vertex 43 23.5 1.5
    endloop
  endfacet
  facet normal -1.22384e-016 7.7718e-017 1
    outer loop
      vertex 15 19.4067 1.5
      vertex -43 -20.5 1.5
      vertex 43 23.5 1.5
    endloop
  endfacet
  facet normal -1.11022e-016 7.91956e-017 1
    outer loop
      vertex 39.5 18.5934 1.5
      vertex 41.5 18.5934 1.5
      vertex 43 23.5 1.5
    endloop
  endfacet
  facet normal -2.91449e-016 7.40149e-017 1
    outer loop
      vertex 41.5 3.59344 1.5
      vertex 43 -20.5 1.5
      vertex 41.5 18.5934 1.5
    endloop
  endfacet
  facet normal -1.23577e-016 8.44662e-017 1
    outer loop
      vertex 15 -16.7754 1.5
      vertex 43 -20.5 1.5
      vertex 41.5 3.59344 1.5
    endloop
  endfacet
  facet normal -1.249e-016 1.04327e-016 1
    outer loop
      vertex -15 -18.9037 1.5
      vertex -15 -16.7754 1.5
      vertex -43 -20.5 1.5
    endloop
  endfacet
  facet normal -1.11022e-016 3.91679e-017 1
    outer loop
      vertex -43 -20.5 1.5
      vertex 41.5 3.59344 1.5
      vertex 39.5 3.59344 1.5
    endloop
  endfacet
  facet normal -1.30104e-016 9.28071e-017 1
    outer loop
      vertex -43 -20.5 1.5
      vertex 39.5 18.5934 1.5
      vertex 43 23.5 1.5
    endloop
  endfacet
  facet normal -1.25825e-016 8.73913e-017 1
    outer loop
      vertex -15 -16.7754 1.5
      vertex 15 -16.7754 1.5
      vertex 41.5 3.59344 1.5
    endloop
  endfacet
  facet normal -1.20935e-016 1.04327e-016 1
    outer loop
      vertex 15 -18.9037 1.5
      vertex 43 -20.5 1.5
      vertex 15 -16.7754 1.5
    endloop
  endfacet
  facet normal -1.23932e-016 5.17591e-017 1
    outer loop
      vertex -43 -20.5 1.5
      vertex 43 -20.5 1.5
      vertex 15 -18.9037 1.5
    endloop
  endfacet
  facet normal -1.18424e-016 7.19623e-017 1
    outer loop
      vertex 15 19.4067 1.5
      vertex -15 19.4067 1.5
      vertex -43 -20.5 1.5
    endloop
  endfacet
  facet normal -1.25825e-016 1.20555e-016 1
    outer loop
      vertex -43 -20.5 1.5
      vertex 15 -18.9037 1.5
      vertex -15 -18.9037 1.5
    endloop
  endfacet
  facet normal -1.20789e-016 7.34214e-017 1
    outer loop
      vertex -43 -20.5 1.5
      vertex -15 -16.7754 1.5
      vertex 41.5 3.59344 1.5
    endloop
  endfacet
  facet normal -1.2135e-016 1.47164e-016 1
    outer loop
      vertex -43 23.5 1.5
      vertex 15 21.535 1.5
      vertex 43 23.5 1.5
    endloop
  endfacet
  facet normal -1.11022e-016 0 1
    outer loop
      vertex 15 21.535 1.5
      vertex 15 19.4067 1.5
      vertex 43 23.5 1.5
    endloop
  endfacet
  facet normal -1.66039e-016 7.99361e-017 1
    outer loop
      vertex -41.5 -9.05095 1.5
      vertex -41.5 15.949 1.5
      vertex -43 -20.5 1.5
    endloop
  endfacet
  facet normal -1.26073e-016 7.7329e-017 1
    outer loop
      vertex -39.5 -9.05095 1.5
      vertex -43 -20.5 1.5
      vertex -15 19.4067 1.5
    endloop
  endfacet
  facet normal -1.25825e-016 1.50668e-017 1
    outer loop
      vertex -43 23.5 1.5
      vertex -15 21.535 1.5
      vertex 15 21.535 1.5
    endloop
  endfacet
  facet normal -1.19561e-016 1.04327e-016 1
    outer loop
      vertex -43 23.5 1.5
      vertex -15 19.4067 1.5
      vertex -15 21.535 1.5
    endloop
  endfacet
  facet normal -1.21555e-016 9.06879e-017 1
    outer loop
      vertex -43 23.5 1.5
      vertex -39.5 15.949 1.5
      vertex -15 19.4067 1.5
    endloop
  endfacet
  facet normal -1.18784e-016 7.10543e-017 1
    outer loop
      vertex -39.5 15.949 1.5
      vertex -39.5 -9.05095 1.5
      vertex -15 19.4067 1.5
    endloop
  endfacet
  facet normal -1.11022e-016 7.27281e-017 1
    outer loop
      vertex -41.5 -9.05095 1.5
      vertex -43 -20.5 1.5
      vertex -39.5 -9.05095 1.5
    endloop
  endfacet
  facet normal -2.22045e-016 4.41093e-017 1
    outer loop
      vertex -43 23.5 1.5
      vertex -41.5 15.949 1.5
      vertex -39.5 15.949 1.5
    endloop
  endfacet
  facet normal -6.30328e-017 7.5697e-017 1
    outer loop
      vertex -43 23.5 1.5
      vertex -43 -20.5 1.5
      vertex -41.5 15.949 1.5
    endloop
  endfacet
  facet normal -1.21199e-016 7.40149e-017 1
    outer loop
      vertex 39.5 3.59344 1.5
      vertex 39.5 18.5934 1.5
      vertex -43 -20.5 1.5
    endloop
  endfacet
  facet normal 0 1 0
    outer loop
      vertex 43 23.5 1.5
      vertex 43 23.5 -3.07454e-015
      vertex -43 23.5 1.5
    endloop
  endfacet
  facet normal 0 1 -0
    outer loop
      vertex -43 23.5 1.5
      vertex 43 23.5 -3.07454e-015
      vertex -43 23.5 -1.36062e-014
    endloop
  endfacet
  facet normal 1.22461e-016 -7.59437e-017 -1
    outer loop
      vertex 43 -20.5 2.6698e-016
      vertex -43 -20.5 -1.02646e-014
      vertex 43 23.5 -3.07454e-015
    endloop
  endfacet
  facet normal 1.22461e-016 -7.59437e-017 -1
    outer loop
      vertex 43 23.5 -3.07454e-015
      vertex -43 -20.5 -1.02646e-014
      vertex -43 23.5 -1.36062e-014
    endloop
  endfacet
  facet normal -1 0 0
    outer loop
      vertex -43 -20.5 1.5
      vertex -43 23.5 1.5
      vertex -43 -20.5 -1.02646e-014
    endloop
  endfacet
  facet normal -1 -0 0
    outer loop
      vertex -43 -20.5 -1.02646e-014
      vertex -43 23.5 1.5
      vertex -43 23.5 -1.36062e-014
    endloop
  endfacet
  facet normal 1 -0 0
    outer loop
      vertex 41.5 18.5934 3.37248
      vertex 41.5 3.59344 3.37248
      vertex 41.5 3.59344 1.5
    endloop
  endfacet
  facet normal 1 0 0
    outer loop
      vertex 41.5 18.5934 1.5
      vertex 41.5 18.5934 3.37248
      vertex 41.5 3.59344 1.5
    endloop
  endfacet
  facet normal 0 1 0
    outer loop
      vertex 41.5 18.5934 3.37248
      vertex 41.5 18.5934 1.5
      vertex 39.5 18.5934 3.37248
    endloop
  endfacet
  facet normal 0 1 -0
    outer loop
      vertex 39.5 18.5934 3.37248
      vertex 41.5 18.5934 1.5
      vertex 39.5 18.5934 1.5
    endloop
  endfacet
  facet normal -1 0 0
    outer loop
      vertex 39.5 3.59344 3.37248
      vertex 39.5 18.5934 3.37248
      vertex 39.5 3.59344 1.5
    endloop
  endfacet
  facet normal -1 -0 0
    outer loop
      vertex 39.5 3.59344 1.5
      vertex 39.5 18.5934 3.37248
      vertex 39.5 18.5934 1.5
    endloop
  endfacet
  facet normal 0 -1 0
    outer loop
      vertex 41.5 3.59344 1.5
      vertex 41.5 3.59344 3.37248
      vertex 39.5 3.59344 3.37248
    endloop
  endfacet
  facet normal 0 -1 -0
    outer loop
      vertex 39.5 3.59344 1.5
      vertex 41.5 3.59344 1.5
      vertex 39.5 3.59344 3.37248
    endloop
  endfacet
  facet normal 1 -0 0
    outer loop
      vertex 15 -16.185 3.12201
      vertex 15 -18.0644 3.80605
      vertex 15 -18.9037 1.5
    endloop
  endfacet
  facet normal 1 0 0
    outer loop
      vertex 15 -16.7754 1.5
      vertex 15 -16.185 3.12201
      vertex 15 -18.9037 1.5
    endloop
  endfacet
  facet normal 4.55662e-017 0.939693 -0.34202
    outer loop
      vertex 15 -16.185 3.12201
      vertex 15 -16.7754 1.5
      vertex -15 -16.185 3.12201
    endloop
  endfacet
  facet normal 4.1456e-017 0.939693 -0.34202
    outer loop
      vertex -15 -16.185 3.12201
      vertex 15 -16.7754 1.5
      vertex -15 -16.7754 1.5
    endloop
  endfacet
  facet normal -1 0 0
    outer loop
      vertex -15 -18.0644 3.80605
      vertex -15 -16.185 3.12201
      vertex -15 -18.9037 1.5
    endloop
  endfacet
  facet normal -1 -0 0
    outer loop
      vertex -15 -18.9037 1.5
      vertex -15 -16.185 3.12201
      vertex -15 -16.7754 1.5
    endloop
  endfacet
  facet normal -4.2413e-017 -0.939693 0.34202
    outer loop
      vertex 15 -18.9037 1.5
      vertex 15 -18.0644 3.80605
      vertex -15 -18.0644 3.80605
    endloop
  endfacet
  facet normal -4.30348e-017 -0.939693 0.34202
    outer loop
      vertex -15 -18.9037 1.5
      vertex 15 -18.9037 1.5
      vertex -15 -18.0644 3.80605
    endloop
  endfacet
  facet normal 1 -0 0
    outer loop
      vertex 15 22.0902 3.02529
      vertex 15 20.2108 3.70933
      vertex 15 19.4067 1.5
    endloop
  endfacet
  facet normal 1 -0 0
    outer loop
      vertex 15 21.535 1.5
      vertex 15 22.0902 3.02529
      vertex 15 19.4067 1.5
    endloop
  endfacet
  facet normal 4.05033e-017 0.939693 -0.34202
    outer loop
      vertex 15 22.0902 3.02529
      vertex 15 21.535 1.5
      vertex -15 22.0902 3.02529
    endloop
  endfacet
  facet normal 4.20809e-017 0.939693 -0.34202
    outer loop
      vertex -15 22.0902 3.02529
      vertex 15 21.535 1.5
      vertex -15 21.535 1.5
    endloop
  endfacet
  facet normal -1 0 0
    outer loop
      vertex -15 20.2108 3.70933
      vertex -15 22.0902 3.02529
      vertex -15 19.4067 1.5
    endloop
  endfacet
  facet normal -1 -0 0
    outer loop
      vertex -15 19.4067 1.5
      vertex -15 22.0902 3.02529
      vertex -15 21.535 1.5
    endloop
  endfacet
  facet normal -4.42698e-017 -0.939693 0.34202
    outer loop
      vertex 15 19.4067 1.5
      vertex 15 20.2108 3.70933
      vertex -15 20.2108 3.70933
    endloop
  endfacet
  facet normal -4.05033e-017 -0.939693 0.34202
    outer loop
      vertex -15 19.4067 1.5
      vertex 15 19.4067 1.5
      vertex -15 20.2108 3.70933
    endloop
  endfacet
  facet normal 1 -0 0
    outer loop
      vertex -39.5 15.949 3.71795
      vertex -39.5 -9.05095 3.71795
      vertex -39.5 -9.05095 1.5
    endloop
  endfacet
  facet normal 1 0 0
    outer loop
      vertex -39.5 15.949 1.5
      vertex -39.5 15.949 3.71795
      vertex -39.5 -9.05095 1.5
    endloop
  endfacet
  facet normal 0 1 0
    outer loop
      vertex -39.5 15.949 3.71795
      vertex -39.5 15.949 1.5
      vertex -41.5 15.949 3.71795
    endloop
  endfacet
  facet normal 0 1 -0
    outer loop
      vertex -41.5 15.949 3.71795
      vertex -39.5 15.949 1.5
      vertex -41.5 15.949 1.5
    endloop
  endfacet
  facet normal -1 0 0
    outer loop
      vertex -41.5 -9.05095 3.71795
      vertex -41.5 15.949 3.71795
      vertex -41.5 -9.05095 1.5
    endloop
  endfacet
  facet normal -1 -0 0
    outer loop
      vertex -41.5 -9.05095 1.5
      vertex -41.5 15.949 3.71795
      vertex -41.5 15.949 1.5
    endloop
  endfacet
  facet normal 0 -1 0
    outer loop
      vertex -39.5 -9.05095 1.5
      vertex -39.5 -9.05095 3.71795
      vertex -41.5 -9.05095 3.71795
    endloop
  endfacet
  facet normal 0 -1 -0
    outer loop
      vertex -41.5 -9.05095 1.5
      vertex -39.5 -9.05095 1.5
      vertex -41.5 -9.05095 3.71795
    endloop
  endfacet
  facet normal 0 5.92119e-017 1
    outer loop
      vertex 39.5 3.59344 3.37248
      vertex 41.5 3.59344 3.37248
      vertex 41.5 18.5934 3.37248
    endloop
  endfacet
  facet normal -2.22045e-016 8.88178e-017 1
    outer loop
      vertex 39.5 18.5934 3.37248
      vertex 39.5 3.59344 3.37248
      vertex 41.5 18.5934 3.37248
    endloop
  endfacet
  facet normal -1.25192e-016 0.34202 0.939693
    outer loop
      vertex -15 -18.0644 3.80605
      vertex 15 -18.0644 3.80605
      vertex 15 -16.185 3.12201
    endloop
  endfacet
  facet normal -1.25192e-016 0.34202 0.939693
    outer loop
      vertex -15 -16.185 3.12201
      vertex -15 -18.0644 3.80605
      vertex 15 -16.185 3.12201
    endloop
  endfacet
  facet normal -1.11282e-016 0.34202 0.939693
    outer loop
      vertex -15 20.2108 3.70933
      vertex 15 20.2108 3.70933
      vertex 15 22.0902 3.02529
    endloop
  endfacet
  facet normal -1.11282e-016 0.34202 0.939693
    outer loop
      vertex -15 22.0902 3.02529
      vertex -15 20.2108 3.70933
      vertex 15 22.0902 3.02529
    endloop
  endfacet
  facet normal -2.22045e-016 8.88178e-017 1
    outer loop
      vertex -41.5 -9.05095 3.71795
      vertex -39.5 -9.05095 3.71795
      vertex -39.5 15.949 3.71795
    endloop
  endfacet
  facet normal 0 7.10543e-017 1
    outer loop
      vertex -41.5 15.949 3.71795
      vertex -41.5 -9.05095 3.71795
      vertex -39.5 15.949 3.71795
    endloop
  endfacet
endsolid OpenSCAD_Model
