solid OpenSCAD_Model
  facet normal -1 0 0
    outer loop
      vertex -43 -2.5 15
      vertex -43 20.5 0
      vertex -43 -13.5 15
    endloop
  endfacet
  facet normal -1 0 -0
    outer loop
      vertex -43 -13.5 18.5
      vertex -43 -20.5 21
      vertex -43 20.5 21
    endloop
  endfacet
  facet normal -1 0 -0
    outer loop
      vertex -43 -2.5 18.5
      vertex -43 -13.5 18.5
      vertex -43 20.5 21
    endloop
  endfacet
  facet normal -1 0 -0
    outer loop
      vertex -43 -20.5 0
      vertex -43 -20.5 21
      vertex -43 -13.5 15
    endloop
  endfacet
  facet normal -1 -0 0
    outer loop
      vertex -43 -20.5 0
      vertex -43 -13.5 15
      vertex -43 20.5 0
    endloop
  endfacet
  facet normal -1 0 0
    outer loop
      vertex -43 20.5 0
      vertex -43 -2.5 15
      vertex -43 20.5 21
    endloop
  endfacet
  facet normal -1 0 -0
    outer loop
      vertex -43 -2.5 15
      vertex -43 -2.5 18.5
      vertex -43 20.5 21
    endloop
  endfacet
  facet normal -1 0 0
    outer loop
      vertex -43 -13.5 15
      vertex -43 -20.5 21
      vertex -43 -13.5 18.5
    endloop
  endfacet
  facet normal 0 -1 0
    outer loop
      vertex -43 -20.5 21
      vertex -43 -20.5 0
      vertex 43 -20.5 0
    endloop
  endfacet
  facet normal 0 -1 0
    outer loop
      vertex 43 -20.5 21
      vertex -43 -20.5 21
      vertex 43 -20.5 0
    endloop
  endfacet
  facet normal 0 0 -1
    outer loop
      vertex 36 -12.5 0
      vertex 43 -20.5 0
      vertex -36 -12.5 0
    endloop
  endfacet
  facet normal 0 -0 -1
    outer loop
      vertex 36 12.5 0
      vertex -43 20.5 0
      vertex 43 20.5 0
    endloop
  endfacet
  facet normal 0 -0 -1
    outer loop
      vertex -43 -20.5 0
      vertex -43 20.5 0
      vertex -36 12.5 0
    endloop
  endfacet
  facet normal 0 0 -1
    outer loop
      vertex -43 -20.5 0
      vertex -36 12.5 0
      vertex -36 -12.5 0
    endloop
  endfacet
  facet normal -0 0 -1
    outer loop
      vertex -43 -20.5 0
      vertex -36 -12.5 0
      vertex 43 -20.5 0
    endloop
  endfacet
  facet normal 0 0 -1
    outer loop
      vertex 43 -20.5 0
      vertex 36 -12.5 0
      vertex 43 20.5 0
    endloop
  endfacet
  facet normal 0 -0 -1
    outer loop
      vertex 36 -12.5 0
      vertex 36 12.5 0
      vertex 43 20.5 0
    endloop
  endfacet
  facet normal -0 -0 -1
    outer loop
      vertex -36 12.5 0
      vertex -43 20.5 0
      vertex 36 12.5 0
    endloop
  endfacet
  facet normal 0 1 0
    outer loop
      vertex -43 20.5 0
      vertex -43 20.5 21
      vertex 43 20.5 0
    endloop
  endfacet
  facet normal 0 1 0
    outer loop
      vertex 43 20.5 0
      vertex -43 20.5 21
      vertex 43 20.5 21
    endloop
  endfacet
  facet normal 0 -0 1
    outer loop
      vertex -41.5 -19 21
      vertex -43 -20.5 21
      vertex 43 -20.5 21
    endloop
  endfacet
  facet normal 0 -0 1
    outer loop
      vertex -43 20.5 21
      vertex -43 -20.5 21
      vertex -41.5 -19 21
    endloop
  endfacet
  facet normal 0 0 1
    outer loop
      vertex -41.5 19 21
      vertex 41.5 19 21
      vertex -43 20.5 21
    endloop
  endfacet
  facet normal 0 0 1
    outer loop
      vertex -43 20.5 21
      vertex -41.5 -19 21
      vertex -41.5 19 21
    endloop
  endfacet
  facet normal 0 0 1
    outer loop
      vertex 43 20.5 21
      vertex 41.5 19 21
      vertex 43 -20.5 21
    endloop
  endfacet
  facet normal 0 0 1
    outer loop
      vertex 43 20.5 21
      vertex -43 20.5 21
      vertex 41.5 19 21
    endloop
  endfacet
  facet normal 0 -0 1
    outer loop
      vertex 41.5 19 21
      vertex 41.5 -19 21
      vertex 43 -20.5 21
    endloop
  endfacet
  facet normal 0 -0 1
    outer loop
      vertex 41.5 -19 21
      vertex -41.5 -19 21
      vertex 43 -20.5 21
    endloop
  endfacet
  facet normal 0 0 -1
    outer loop
      vertex -41.5 -2.5 18.5
      vertex -41.5 -13.5 18.5
      vertex -43 -2.5 18.5
    endloop
  endfacet
  facet normal 0 0 -1
    outer loop
      vertex -43 -2.5 18.5
      vertex -41.5 -13.5 18.5
      vertex -43 -13.5 18.5
    endloop
  endfacet
  facet normal 0 1 0
    outer loop
      vertex -41.5 -13.5 18.5
      vertex -41.5 -13.5 15
      vertex -43 -13.5 18.5
    endloop
  endfacet
  facet normal 0 1 -0
    outer loop
      vertex -43 -13.5 18.5
      vertex -41.5 -13.5 15
      vertex -43 -13.5 15
    endloop
  endfacet
  facet normal 0 -1 0
    outer loop
      vertex -41.5 -2.5 15
      vertex -41.5 -2.5 18.5
      vertex -43 -2.5 18.5
    endloop
  endfacet
  facet normal -0 -1 -0
    outer loop
      vertex -43 -2.5 15
      vertex -41.5 -2.5 15
      vertex -43 -2.5 18.5
    endloop
  endfacet
  facet normal 0 0 1
    outer loop
      vertex -41.5 -13.5 15
      vertex -41.5 -2.5 15
      vertex -43 -2.5 15
    endloop
  endfacet
  facet normal 0 0 1
    outer loop
      vertex -43 -13.5 15
      vertex -41.5 -13.5 15
      vertex -43 -2.5 15
    endloop
  endfacet
  facet normal 1 0 -0
    outer loop
      vertex 43 -20.5 21
      vertex 43 -20.5 0
      vertex 43 20.5 0
    endloop
  endfacet
  facet normal 1 0 0
    outer loop
      vertex 43 20.5 21
      vertex 43 -20.5 21
      vertex 43 20.5 0
    endloop
  endfacet
  facet normal 1 0 0
    outer loop
      vertex -36 12.5 0
      vertex -36 12.5 1.5
      vertex -36 -12.5 1.5
    endloop
  endfacet
  facet normal 1 0 0
    outer loop
      vertex -36 -12.5 0
      vertex -36 12.5 0
      vertex -36 -12.5 1.5
    endloop
  endfacet
  facet normal 0 -1 0
    outer loop
      vertex 36 12.5 0
      vertex 36 12.5 1.5
      vertex -36 12.5 1.5
    endloop
  endfacet
  facet normal -0 -1 -0
    outer loop
      vertex -36 12.5 0
      vertex 36 12.5 0
      vertex -36 12.5 1.5
    endloop
  endfacet
  facet normal -1 0 0
    outer loop
      vertex 36 12.5 1.5
      vertex 36 12.5 0
      vertex 36 -12.5 1.5
    endloop
  endfacet
  facet normal -1 0 0
    outer loop
      vertex 36 -12.5 1.5
      vertex 36 12.5 0
      vertex 36 -12.5 0
    endloop
  endfacet
  facet normal 0 1 0
    outer loop
      vertex 36 -12.5 1.5
      vertex 36 -12.5 0
      vertex -36 -12.5 1.5
    endloop
  endfacet
  facet normal 0 1 -0
    outer loop
      vertex -36 -12.5 1.5
      vertex 36 -12.5 0
      vertex -36 -12.5 0
    endloop
  endfacet
  facet normal 1 0 0
    outer loop
      vertex -41.5 -13.5 18.5
      vertex -41.5 19 21
      vertex -41.5 -19 21
    endloop
  endfacet
  facet normal 1 0 -0
    outer loop
      vertex -41.5 -2.5 15
      vertex -41.5 -13.5 15
      vertex -41.5 19 1.5
    endloop
  endfacet
  facet normal 1 -0 0
    outer loop
      vertex -41.5 -2.5 18.5
      vertex -41.5 19 21
      vertex -41.5 -13.5 18.5
    endloop
  endfacet
  facet normal 1 0 0
    outer loop
      vertex -41.5 19 1.5
      vertex -41.5 19 21
      vertex -41.5 -2.5 18.5
    endloop
  endfacet
  facet normal 1 0 0
    outer loop
      vertex -41.5 19 1.5
      vertex -41.5 -2.5 18.5
      vertex -41.5 -2.5 15
    endloop
  endfacet
  facet normal 1 0 0
    outer loop
      vertex -41.5 -19 1.5
      vertex -41.5 -13.5 15
      vertex -41.5 -19 21
    endloop
  endfacet
  facet normal 1 0 0
    outer loop
      vertex -41.5 -19 1.5
      vertex -41.5 19 1.5
      vertex -41.5 -13.5 15
    endloop
  endfacet
  facet normal 1 0 0
    outer loop
      vertex -41.5 -13.5 15
      vertex -41.5 -13.5 18.5
      vertex -41.5 -19 21
    endloop
  endfacet
  facet normal 0 1 0
    outer loop
      vertex 41.5 -19 21
      vertex 41.5 -19 1.5
      vertex -41.5 -19 21
    endloop
  endfacet
  facet normal 0 1 -0
    outer loop
      vertex -41.5 -19 21
      vertex 41.5 -19 1.5
      vertex -41.5 -19 1.5
    endloop
  endfacet
  facet normal -1 0 0
    outer loop
      vertex 41.5 19 21
      vertex 41.5 19 1.5
      vertex 41.5 -19 21
    endloop
  endfacet
  facet normal -1 0 0
    outer loop
      vertex 41.5 -19 21
      vertex 41.5 19 1.5
      vertex 41.5 -19 1.5
    endloop
  endfacet
  facet normal 0 -1 0
    outer loop
      vertex 41.5 19 1.5
      vertex 41.5 19 21
      vertex -41.5 19 21
    endloop
  endfacet
  facet normal -0 -1 -0
    outer loop
      vertex -41.5 19 1.5
      vertex 41.5 19 1.5
      vertex -41.5 19 21
    endloop
  endfacet
  facet normal 0 0 1
    outer loop
      vertex -37.5 18 1.5
      vertex 41.5 19 1.5
      vertex -41.5 19 1.5
    endloop
  endfacet
  facet normal 0 0 1
    outer loop
      vertex -41.5 -19 1.5
      vertex -40 -15.5 1.5
      vertex -41.5 19 1.5
    endloop
  endfacet
  facet normal 0 0 1
    outer loop
      vertex -40 -15.5 1.5
      vertex -39.6651 -14.25 1.5
      vertex -41.5 19 1.5
    endloop
  endfacet
  facet normal 0 0 1
    outer loop
      vertex -39.6651 -14.25 1.5
      vertex -38.75 -13.3349 1.5
      vertex -41.5 19 1.5
    endloop
  endfacet
  facet normal 0 0 1
    outer loop
      vertex -38.75 -13.3349 1.5
      vertex -37.5 -13 1.5
      vertex -41.5 19 1.5
    endloop
  endfacet
  facet normal 0 0 1
    outer loop
      vertex -36.25 -13.3349 1.5
      vertex 41.5 -19 1.5
      vertex -37.5 -13 1.5
    endloop
  endfacet
  facet normal 0 0 1
    outer loop
      vertex -35.3349 -14.25 1.5
      vertex -35 -15.5 1.5
      vertex 41.5 -19 1.5
    endloop
  endfacet
  facet normal 0 -0 1
    outer loop
      vertex -35 -15.5 1.5
      vertex -35.3349 -16.75 1.5
      vertex 41.5 -19 1.5
    endloop
  endfacet
  facet normal 0 0 1
    outer loop
      vertex -36.25 -17.6651 1.5
      vertex 41.5 -19 1.5
      vertex -35.3349 -16.75 1.5
    endloop
  endfacet
  facet normal 0 0 1
    outer loop
      vertex -37.5 -18 1.5
      vertex 41.5 -19 1.5
      vertex -36.25 -17.6651 1.5
    endloop
  endfacet
  facet normal 0 0 1
    outer loop
      vertex -38.75 17.6651 1.5
      vertex -37.5 18 1.5
      vertex -41.5 19 1.5
    endloop
  endfacet
  facet normal 0 0 1
    outer loop
      vertex -41.5 -19 1.5
      vertex 41.5 -19 1.5
      vertex -37.5 -18 1.5
    endloop
  endfacet
  facet normal -0 0 1
    outer loop
      vertex 35.3349 -14.25 1.5
      vertex -36 -12.5 1.5
      vertex 35 -15.5 1.5
    endloop
  endfacet
  facet normal 0 0 1
    outer loop
      vertex -41.5 -19 1.5
      vertex -39.6651 -16.75 1.5
      vertex -40 -15.5 1.5
    endloop
  endfacet
  facet normal 0 0 1
    outer loop
      vertex -41.5 -19 1.5
      vertex -38.75 -17.6651 1.5
      vertex -39.6651 -16.75 1.5
    endloop
  endfacet
  facet normal 0 0 1
    outer loop
      vertex -37.5 -13 1.5
      vertex -40 15.5 1.5
      vertex -41.5 19 1.5
    endloop
  endfacet
  facet normal 0 0 1
    outer loop
      vertex -40 15.5 1.5
      vertex -39.6651 16.75 1.5
      vertex -41.5 19 1.5
    endloop
  endfacet
  facet normal 0 0 1
    outer loop
      vertex -39.6651 16.75 1.5
      vertex -38.75 17.6651 1.5
      vertex -41.5 19 1.5
    endloop
  endfacet
  facet normal 0 0 1
    outer loop
      vertex -36.25 17.6651 1.5
      vertex 41.5 19 1.5
      vertex -37.5 18 1.5
    endloop
  endfacet
  facet normal -0 -0 1
    outer loop
      vertex 35 -15.5 1.5
      vertex -36 -12.5 1.5
      vertex 35.3349 -16.75 1.5
    endloop
  endfacet
  facet normal -0 0 1
    outer loop
      vertex 37.5 18 1.5
      vertex 41.5 19 1.5
      vertex -36.25 17.6651 1.5
    endloop
  endfacet
  facet normal -0 -0 1
    outer loop
      vertex 35.3349 -16.75 1.5
      vertex -36 -12.5 1.5
      vertex 36.25 -17.6651 1.5
    endloop
  endfacet
  facet normal 0 0 1
    outer loop
      vertex 36 -12.5 1.5
      vertex -36 -12.5 1.5
      vertex 35.3349 -14.25 1.5
    endloop
  endfacet
  facet normal 0 0 1
    outer loop
      vertex -37.5 -13 1.5
      vertex -36.25 13.3349 1.5
      vertex -37.5 13 1.5
    endloop
  endfacet
  facet normal 0 0 1
    outer loop
      vertex -37.5 -13 1.5
      vertex -37.5 13 1.5
      vertex -38.75 13.3349 1.5
    endloop
  endfacet
  facet normal 0 0 1
    outer loop
      vertex -37.5 -13 1.5
      vertex -39.6651 14.25 1.5
      vertex -40 15.5 1.5
    endloop
  endfacet
  facet normal 0 0 1
    outer loop
      vertex -37.5 -13 1.5
      vertex -38.75 13.3349 1.5
      vertex -39.6651 14.25 1.5
    endloop
  endfacet
  facet normal 0 0 1
    outer loop
      vertex -37.5 -13 1.5
      vertex -36 12.5 1.5
      vertex -36.25 13.3349 1.5
    endloop
  endfacet
  facet normal 0 0 1
    outer loop
      vertex 38.75 17.6651 1.5
      vertex 39.6651 16.75 1.5
      vertex 41.5 19 1.5
    endloop
  endfacet
  facet normal 0 0 1
    outer loop
      vertex 37.5 -13 1.5
      vertex 36 12.5 1.5
      vertex 36 -12.5 1.5
    endloop
  endfacet
  facet normal 0 0 1
    outer loop
      vertex -37.5 -13 1.5
      vertex -36 -12.5 1.5
      vertex -36 12.5 1.5
    endloop
  endfacet
  facet normal 0 0 1
    outer loop
      vertex -37.5 -13 1.5
      vertex 41.5 -19 1.5
      vertex -36 -12.5 1.5
    endloop
  endfacet
  facet normal 0 0 1
    outer loop
      vertex 37.5 18 1.5
      vertex 38.75 17.6651 1.5
      vertex 41.5 19 1.5
    endloop
  endfacet
  facet normal 0 -0 1
    outer loop
      vertex 38.75 -17.6651 1.5
      vertex 37.5 -18 1.5
      vertex 41.5 -19 1.5
    endloop
  endfacet
  facet normal 0 -0 1
    outer loop
      vertex 40 -15.5 1.5
      vertex 39.6651 -16.75 1.5
      vertex 41.5 -19 1.5
    endloop
  endfacet
  facet normal 0 0 1
    outer loop
      vertex 38.75 -13.3349 1.5
      vertex 36 12.5 1.5
      vertex 37.5 -13 1.5
    endloop
  endfacet
  facet normal 0 0 1
    outer loop
      vertex 39.6651 -14.25 1.5
      vertex 36 12.5 1.5
      vertex 38.75 -13.3349 1.5
    endloop
  endfacet
  facet normal 0 0 1
    outer loop
      vertex 41.5 -19 1.5
      vertex 36 12.5 1.5
      vertex 39.6651 -14.25 1.5
    endloop
  endfacet
  facet normal 0 -0 1
    outer loop
      vertex 39.6651 -16.75 1.5
      vertex 38.75 -17.6651 1.5
      vertex 41.5 -19 1.5
    endloop
  endfacet
  facet normal 0 0 1
    outer loop
      vertex 41.5 -19 1.5
      vertex 39.6651 -14.25 1.5
      vertex 40 -15.5 1.5
    endloop
  endfacet
  facet normal 0 0 1
    outer loop
      vertex 35.3349 -14.25 1.5
      vertex 36.25 -13.3349 1.5
      vertex 36 -12.5 1.5
    endloop
  endfacet
  facet normal 0 0 1
    outer loop
      vertex -36 -12.5 1.5
      vertex 41.5 -19 1.5
      vertex 37.5 -18 1.5
    endloop
  endfacet
  facet normal 0 0 1
    outer loop
      vertex -36 -12.5 1.5
      vertex 37.5 -18 1.5
      vertex 36.25 -17.6651 1.5
    endloop
  endfacet
  facet normal 0 0 1
    outer loop
      vertex 36.25 -13.3349 1.5
      vertex 37.5 -13 1.5
      vertex 36 -12.5 1.5
    endloop
  endfacet
  facet normal 0 0 1
    outer loop
      vertex 35.3349 14.25 1.5
      vertex 35 15.5 1.5
      vertex -36.25 17.6651 1.5
    endloop
  endfacet
  facet normal -0 0 1
    outer loop
      vertex 37.5 13 1.5
      vertex 36.25 13.3349 1.5
      vertex 36 12.5 1.5
    endloop
  endfacet
  facet normal 0 0 1
    outer loop
      vertex 35 15.5 1.5
      vertex 35.3349 16.75 1.5
      vertex -36.25 17.6651 1.5
    endloop
  endfacet
  facet normal 0 0 1
    outer loop
      vertex 35.3349 16.75 1.5
      vertex 36.25 17.6651 1.5
      vertex -36.25 17.6651 1.5
    endloop
  endfacet
  facet normal -0 0 1
    outer loop
      vertex 36.25 17.6651 1.5
      vertex 37.5 18 1.5
      vertex -36.25 17.6651 1.5
    endloop
  endfacet
  facet normal -0 0 1
    outer loop
      vertex 36.25 13.3349 1.5
      vertex 35.3349 14.25 1.5
      vertex 36 12.5 1.5
    endloop
  endfacet
  facet normal 0 0 1
    outer loop
      vertex 40 15.5 1.5
      vertex 41.5 19 1.5
      vertex 39.6651 16.75 1.5
    endloop
  endfacet
  facet normal 0 0 1
    outer loop
      vertex 41.5 -19 1.5
      vertex 41.5 19 1.5
      vertex 40 15.5 1.5
    endloop
  endfacet
  facet normal 0 0 1
    outer loop
      vertex 41.5 -19 1.5
      vertex 38.75 13.3349 1.5
      vertex 36 12.5 1.5
    endloop
  endfacet
  facet normal 0 0 1
    outer loop
      vertex 41.5 -19 1.5
      vertex 39.6651 14.25 1.5
      vertex 38.75 13.3349 1.5
    endloop
  endfacet
  facet normal 0 0 1
    outer loop
      vertex 38.75 13.3349 1.5
      vertex 37.5 13 1.5
      vertex 36 12.5 1.5
    endloop
  endfacet
  facet normal 0 -0 1
    outer loop
      vertex 40 15.5 1.5
      vertex 39.6651 14.25 1.5
      vertex 41.5 -19 1.5
    endloop
  endfacet
  facet normal 0 0 1
    outer loop
      vertex 36 12.5 1.5
      vertex 35.3349 14.25 1.5
      vertex -36.25 17.6651 1.5
    endloop
  endfacet
  facet normal 0 0 1
    outer loop
      vertex -36.25 -13.3349 1.5
      vertex -35.3349 -14.25 1.5
      vertex 41.5 -19 1.5
    endloop
  endfacet
  facet normal -0 0 1
    outer loop
      vertex -37.5 -18 1.5
      vertex -38.75 -17.6651 1.5
      vertex -41.5 -19 1.5
    endloop
  endfacet
  facet normal 0 0 1
    outer loop
      vertex -36 12.5 1.5
      vertex -35.3349 14.25 1.5
      vertex -36.25 13.3349 1.5
    endloop
  endfacet
  facet normal 0 0 1
    outer loop
      vertex -35.3349 16.75 1.5
      vertex 36 12.5 1.5
      vertex -36.25 17.6651 1.5
    endloop
  endfacet
  facet normal 0 0 1
    outer loop
      vertex -35 15.5 1.5
      vertex 36 12.5 1.5
      vertex -35.3349 16.75 1.5
    endloop
  endfacet
  facet normal 0 0 1
    outer loop
      vertex -35.3349 14.25 1.5
      vertex 36 12.5 1.5
      vertex -35 15.5 1.5
    endloop
  endfacet
  facet normal 0 0 1
    outer loop
      vertex -36 12.5 1.5
      vertex 36 12.5 1.5
      vertex -35.3349 14.25 1.5
    endloop
  endfacet
  facet normal -0.965926 0.258819 0
    outer loop
      vertex -40 -15.5 1.5
      vertex -40 -15.5 6.5
      vertex -39.6651 -14.25 1.5
    endloop
  endfacet
  facet normal -0.965926 0.258819 0
    outer loop
      vertex -39.6651 -14.25 1.5
      vertex -40 -15.5 6.5
      vertex -39.6651 -14.25 6.5
    endloop
  endfacet
  facet normal -0.965926 -0.258819 -0
    outer loop
      vertex -40 -15.5 1.5
      vertex -39.6651 -16.75 1.5
      vertex -40 -15.5 6.5
    endloop
  endfacet
  facet normal -0.965926 -0.258819 0
    outer loop
      vertex -40 -15.5 6.5
      vertex -39.6651 -16.75 1.5
      vertex -39.6651 -16.75 6.5
    endloop
  endfacet
  facet normal -0.707107 -0.707107 0
    outer loop
      vertex -39.6651 -16.75 6.5
      vertex -39.6651 -16.75 1.5
      vertex -38.75 -17.6651 1.5
    endloop
  endfacet
  facet normal -0.707107 -0.707107 0
    outer loop
      vertex -38.75 -17.6651 6.5
      vertex -39.6651 -16.75 6.5
      vertex -38.75 -17.6651 1.5
    endloop
  endfacet
  facet normal -0.258819 -0.965926 0
    outer loop
      vertex -38.75 -17.6651 6.5
      vertex -38.75 -17.6651 1.5
      vertex -37.5 -18 1.5
    endloop
  endfacet
  facet normal -0.258819 -0.965926 0
    outer loop
      vertex -37.5 -18 6.5
      vertex -38.75 -17.6651 6.5
      vertex -37.5 -18 1.5
    endloop
  endfacet
  facet normal 0.258819 -0.965926 0
    outer loop
      vertex -37.5 -18 6.5
      vertex -37.5 -18 1.5
      vertex -36.25 -17.6651 1.5
    endloop
  endfacet
  facet normal 0.258819 -0.965926 0
    outer loop
      vertex -36.25 -17.6651 6.5
      vertex -37.5 -18 6.5
      vertex -36.25 -17.6651 1.5
    endloop
  endfacet
  facet normal 0.707107 -0.707107 0
    outer loop
      vertex -36.25 -17.6651 6.5
      vertex -36.25 -17.6651 1.5
      vertex -35.3349 -16.75 1.5
    endloop
  endfacet
  facet normal 0.707107 -0.707107 0
    outer loop
      vertex -35.3349 -16.75 6.5
      vertex -36.25 -17.6651 6.5
      vertex -35.3349 -16.75 1.5
    endloop
  endfacet
  facet normal 0.965926 -0.258819 0
    outer loop
      vertex -35.3349 -16.75 6.5
      vertex -35.3349 -16.75 1.5
      vertex -35 -15.5 1.5
    endloop
  endfacet
  facet normal 0.965926 -0.258819 0
    outer loop
      vertex -35 -15.5 6.5
      vertex -35.3349 -16.75 6.5
      vertex -35 -15.5 1.5
    endloop
  endfacet
  facet normal 0.965926 0.258819 0
    outer loop
      vertex -35 -15.5 1.5
      vertex -35.3349 -14.25 1.5
      vertex -35.3349 -14.25 6.5
    endloop
  endfacet
  facet normal 0.965926 0.258819 -0
    outer loop
      vertex -35 -15.5 6.5
      vertex -35 -15.5 1.5
      vertex -35.3349 -14.25 6.5
    endloop
  endfacet
  facet normal 0.707107 0.707107 0
    outer loop
      vertex -36.25 -13.3349 1.5
      vertex -36.25 -13.3349 6.5
      vertex -35.3349 -14.25 1.5
    endloop
  endfacet
  facet normal 0.707107 0.707107 0
    outer loop
      vertex -35.3349 -14.25 1.5
      vertex -36.25 -13.3349 6.5
      vertex -35.3349 -14.25 6.5
    endloop
  endfacet
  facet normal 0.258819 0.965926 0
    outer loop
      vertex -37.5 -13 1.5
      vertex -37.5 -13 6.5
      vertex -36.25 -13.3349 1.5
    endloop
  endfacet
  facet normal 0.258819 0.965926 0
    outer loop
      vertex -36.25 -13.3349 1.5
      vertex -37.5 -13 6.5
      vertex -36.25 -13.3349 6.5
    endloop
  endfacet
  facet normal -0.258819 0.965926 0
    outer loop
      vertex -38.75 -13.3349 1.5
      vertex -38.75 -13.3349 6.5
      vertex -37.5 -13 1.5
    endloop
  endfacet
  facet normal -0.258819 0.965926 0
    outer loop
      vertex -37.5 -13 1.5
      vertex -38.75 -13.3349 6.5
      vertex -37.5 -13 6.5
    endloop
  endfacet
  facet normal -0.707107 0.707107 0
    outer loop
      vertex -39.6651 -14.25 1.5
      vertex -39.6651 -14.25 6.5
      vertex -38.75 -13.3349 1.5
    endloop
  endfacet
  facet normal -0.707107 0.707107 0
    outer loop
      vertex -38.75 -13.3349 1.5
      vertex -39.6651 -14.25 6.5
      vertex -38.75 -13.3349 6.5
    endloop
  endfacet
  facet normal -0.965926 0.258819 0
    outer loop
      vertex -40 15.5 1.5
      vertex -40 15.5 6.5
      vertex -39.6651 16.75 1.5
    endloop
  endfacet
  facet normal -0.965926 0.258819 0
    outer loop
      vertex -39.6651 16.75 1.5
      vertex -40 15.5 6.5
      vertex -39.6651 16.75 6.5
    endloop
  endfacet
  facet normal -0.965926 -0.258819 -0
    outer loop
      vertex -40 15.5 1.5
      vertex -39.6651 14.25 1.5
      vertex -40 15.5 6.5
    endloop
  endfacet
  facet normal -0.965926 -0.258819 0
    outer loop
      vertex -40 15.5 6.5
      vertex -39.6651 14.25 1.5
      vertex -39.6651 14.25 6.5
    endloop
  endfacet
  facet normal -0.707107 -0.707107 0
    outer loop
      vertex -39.6651 14.25 6.5
      vertex -39.6651 14.25 1.5
      vertex -38.75 13.3349 1.5
    endloop
  endfacet
  facet normal -0.707107 -0.707107 0
    outer loop
      vertex -38.75 13.3349 6.5
      vertex -39.6651 14.25 6.5
      vertex -38.75 13.3349 1.5
    endloop
  endfacet
  facet normal -0.258819 -0.965926 0
    outer loop
      vertex -38.75 13.3349 6.5
      vertex -38.75 13.3349 1.5
      vertex -37.5 13 1.5
    endloop
  endfacet
  facet normal -0.258819 -0.965926 0
    outer loop
      vertex -37.5 13 6.5
      vertex -38.75 13.3349 6.5
      vertex -37.5 13 1.5
    endloop
  endfacet
  facet normal 0.258819 -0.965926 0
    outer loop
      vertex -37.5 13 6.5
      vertex -37.5 13 1.5
      vertex -36.25 13.3349 1.5
    endloop
  endfacet
  facet normal 0.258819 -0.965926 0
    outer loop
      vertex -36.25 13.3349 6.5
      vertex -37.5 13 6.5
      vertex -36.25 13.3349 1.5
    endloop
  endfacet
  facet normal 0.707107 -0.707107 0
    outer loop
      vertex -36.25 13.3349 6.5
      vertex -36.25 13.3349 1.5
      vertex -35.3349 14.25 1.5
    endloop
  endfacet
  facet normal 0.707107 -0.707107 0
    outer loop
      vertex -35.3349 14.25 6.5
      vertex -36.25 13.3349 6.5
      vertex -35.3349 14.25 1.5
    endloop
  endfacet
  facet normal 0.965926 -0.258819 0
    outer loop
      vertex -35.3349 14.25 6.5
      vertex -35.3349 14.25 1.5
      vertex -35 15.5 1.5
    endloop
  endfacet
  facet normal 0.965926 -0.258819 0
    outer loop
      vertex -35 15.5 6.5
      vertex -35.3349 14.25 6.5
      vertex -35 15.5 1.5
    endloop
  endfacet
  facet normal 0.965926 0.258819 0
    outer loop
      vertex -35 15.5 1.5
      vertex -35.3349 16.75 1.5
      vertex -35.3349 16.75 6.5
    endloop
  endfacet
  facet normal 0.965926 0.258819 -0
    outer loop
      vertex -35 15.5 6.5
      vertex -35 15.5 1.5
      vertex -35.3349 16.75 6.5
    endloop
  endfacet
  facet normal 0.707107 0.707107 0
    outer loop
      vertex -36.25 17.6651 1.5
      vertex -36.25 17.6651 6.5
      vertex -35.3349 16.75 1.5
    endloop
  endfacet
  facet normal 0.707107 0.707107 0
    outer loop
      vertex -35.3349 16.75 1.5
      vertex -36.25 17.6651 6.5
      vertex -35.3349 16.75 6.5
    endloop
  endfacet
  facet normal 0.258819 0.965926 0
    outer loop
      vertex -37.5 18 1.5
      vertex -37.5 18 6.5
      vertex -36.25 17.6651 1.5
    endloop
  endfacet
  facet normal 0.258819 0.965926 0
    outer loop
      vertex -36.25 17.6651 1.5
      vertex -37.5 18 6.5
      vertex -36.25 17.6651 6.5
    endloop
  endfacet
  facet normal -0.258819 0.965926 0
    outer loop
      vertex -38.75 17.6651 1.5
      vertex -38.75 17.6651 6.5
      vertex -37.5 18 1.5
    endloop
  endfacet
  facet normal -0.258819 0.965926 0
    outer loop
      vertex -37.5 18 1.5
      vertex -38.75 17.6651 6.5
      vertex -37.5 18 6.5
    endloop
  endfacet
  facet normal -0.707107 0.707107 0
    outer loop
      vertex -39.6651 16.75 1.5
      vertex -39.6651 16.75 6.5
      vertex -38.75 17.6651 1.5
    endloop
  endfacet
  facet normal -0.707107 0.707107 0
    outer loop
      vertex -38.75 17.6651 1.5
      vertex -39.6651 16.75 6.5
      vertex -38.75 17.6651 6.5
    endloop
  endfacet
  facet normal -0.965926 0.258819 0
    outer loop
      vertex 35 -15.5 1.5
      vertex 35 -15.5 6.5
      vertex 35.3349 -14.25 1.5
    endloop
  endfacet
  facet normal -0.965926 0.258819 0
    outer loop
      vertex 35.3349 -14.25 1.5
      vertex 35 -15.5 6.5
      vertex 35.3349 -14.25 6.5
    endloop
  endfacet
  facet normal -0.965926 -0.258819 -0
    outer loop
      vertex 35 -15.5 1.5
      vertex 35.3349 -16.75 1.5
      vertex 35 -15.5 6.5
    endloop
  endfacet
  facet normal -0.965926 -0.258819 0
    outer loop
      vertex 35 -15.5 6.5
      vertex 35.3349 -16.75 1.5
      vertex 35.3349 -16.75 6.5
    endloop
  endfacet
  facet normal -0.707107 -0.707107 0
    outer loop
      vertex 35.3349 -16.75 6.5
      vertex 35.3349 -16.75 1.5
      vertex 36.25 -17.6651 1.5
    endloop
  endfacet
  facet normal -0.707107 -0.707107 0
    outer loop
      vertex 36.25 -17.6651 6.5
      vertex 35.3349 -16.75 6.5
      vertex 36.25 -17.6651 1.5
    endloop
  endfacet
  facet normal -0.258819 -0.965926 0
    outer loop
      vertex 36.25 -17.6651 6.5
      vertex 36.25 -17.6651 1.5
      vertex 37.5 -18 1.5
    endloop
  endfacet
  facet normal -0.258819 -0.965926 0
    outer loop
      vertex 37.5 -18 6.5
      vertex 36.25 -17.6651 6.5
      vertex 37.5 -18 1.5
    endloop
  endfacet
  facet normal 0.258819 -0.965926 0
    outer loop
      vertex 37.5 -18 6.5
      vertex 37.5 -18 1.5
      vertex 38.75 -17.6651 1.5
    endloop
  endfacet
  facet normal 0.258819 -0.965926 0
    outer loop
      vertex 38.75 -17.6651 6.5
      vertex 37.5 -18 6.5
      vertex 38.75 -17.6651 1.5
    endloop
  endfacet
  facet normal 0.707107 -0.707107 0
    outer loop
      vertex 38.75 -17.6651 6.5
      vertex 38.75 -17.6651 1.5
      vertex 39.6651 -16.75 1.5
    endloop
  endfacet
  facet normal 0.707107 -0.707107 0
    outer loop
      vertex 39.6651 -16.75 6.5
      vertex 38.75 -17.6651 6.5
      vertex 39.6651 -16.75 1.5
    endloop
  endfacet
  facet normal 0.965926 -0.258819 0
    outer loop
      vertex 39.6651 -16.75 6.5
      vertex 39.6651 -16.75 1.5
      vertex 40 -15.5 1.5
    endloop
  endfacet
  facet normal 0.965926 -0.258819 0
    outer loop
      vertex 40 -15.5 6.5
      vertex 39.6651 -16.75 6.5
      vertex 40 -15.5 1.5
    endloop
  endfacet
  facet normal 0.965926 0.258819 0
    outer loop
      vertex 40 -15.5 1.5
      vertex 39.6651 -14.25 1.5
      vertex 39.6651 -14.25 6.5
    endloop
  endfacet
  facet normal 0.965926 0.258819 -0
    outer loop
      vertex 40 -15.5 6.5
      vertex 40 -15.5 1.5
      vertex 39.6651 -14.25 6.5
    endloop
  endfacet
  facet normal 0.707107 0.707107 0
    outer loop
      vertex 38.75 -13.3349 1.5
      vertex 38.75 -13.3349 6.5
      vertex 39.6651 -14.25 1.5
    endloop
  endfacet
  facet normal 0.707107 0.707107 0
    outer loop
      vertex 39.6651 -14.25 1.5
      vertex 38.75 -13.3349 6.5
      vertex 39.6651 -14.25 6.5
    endloop
  endfacet
  facet normal 0.258819 0.965926 0
    outer loop
      vertex 37.5 -13 1.5
      vertex 37.5 -13 6.5
      vertex 38.75 -13.3349 1.5
    endloop
  endfacet
  facet normal 0.258819 0.965926 0
    outer loop
      vertex 38.75 -13.3349 1.5
      vertex 37.5 -13 6.5
      vertex 38.75 -13.3349 6.5
    endloop
  endfacet
  facet normal -0.258819 0.965926 0
    outer loop
      vertex 36.25 -13.3349 1.5
      vertex 36.25 -13.3349 6.5
      vertex 37.5 -13 1.5
    endloop
  endfacet
  facet normal -0.258819 0.965926 0
    outer loop
      vertex 37.5 -13 1.5
      vertex 36.25 -13.3349 6.5
      vertex 37.5 -13 6.5
    endloop
  endfacet
  facet normal -0.707107 0.707107 0
    outer loop
      vertex 35.3349 -14.25 1.5
      vertex 35.3349 -14.25 6.5
      vertex 36.25 -13.3349 1.5
    endloop
  endfacet
  facet normal -0.707107 0.707107 0
    outer loop
      vertex 36.25 -13.3349 1.5
      vertex 35.3349 -14.25 6.5
      vertex 36.25 -13.3349 6.5
    endloop
  endfacet
  facet normal -0.965926 0.258819 0
    outer loop
      vertex 35 15.5 1.5
      vertex 35 15.5 6.5
      vertex 35.3349 16.75 1.5
    endloop
  endfacet
  facet normal -0.965926 0.258819 0
    outer loop
      vertex 35.3349 16.75 1.5
      vertex 35 15.5 6.5
      vertex 35.3349 16.75 6.5
    endloop
  endfacet
  facet normal -0.965926 -0.258819 -0
    outer loop
      vertex 35 15.5 1.5
      vertex 35.3349 14.25 1.5
      vertex 35 15.5 6.5
    endloop
  endfacet
  facet normal -0.965926 -0.258819 0
    outer loop
      vertex 35 15.5 6.5
      vertex 35.3349 14.25 1.5
      vertex 35.3349 14.25 6.5
    endloop
  endfacet
  facet normal -0.707107 -0.707107 0
    outer loop
      vertex 35.3349 14.25 6.5
      vertex 35.3349 14.25 1.5
      vertex 36.25 13.3349 1.5
    endloop
  endfacet
  facet normal -0.707107 -0.707107 0
    outer loop
      vertex 36.25 13.3349 6.5
      vertex 35.3349 14.25 6.5
      vertex 36.25 13.3349 1.5
    endloop
  endfacet
  facet normal -0.258819 -0.965926 0
    outer loop
      vertex 36.25 13.3349 6.5
      vertex 36.25 13.3349 1.5
      vertex 37.5 13 1.5
    endloop
  endfacet
  facet normal -0.258819 -0.965926 0
    outer loop
      vertex 37.5 13 6.5
      vertex 36.25 13.3349 6.5
      vertex 37.5 13 1.5
    endloop
  endfacet
  facet normal 0.258819 -0.965926 0
    outer loop
      vertex 37.5 13 6.5
      vertex 37.5 13 1.5
      vertex 38.75 13.3349 1.5
    endloop
  endfacet
  facet normal 0.258819 -0.965926 0
    outer loop
      vertex 38.75 13.3349 6.5
      vertex 37.5 13 6.5
      vertex 38.75 13.3349 1.5
    endloop
  endfacet
  facet normal 0.707107 -0.707107 0
    outer loop
      vertex 38.75 13.3349 6.5
      vertex 38.75 13.3349 1.5
      vertex 39.6651 14.25 1.5
    endloop
  endfacet
  facet normal 0.707107 -0.707107 0
    outer loop
      vertex 39.6651 14.25 6.5
      vertex 38.75 13.3349 6.5
      vertex 39.6651 14.25 1.5
    endloop
  endfacet
  facet normal 0.965926 -0.258819 0
    outer loop
      vertex 39.6651 14.25 6.5
      vertex 39.6651 14.25 1.5
      vertex 40 15.5 1.5
    endloop
  endfacet
  facet normal 0.965926 -0.258819 0
    outer loop
      vertex 40 15.5 6.5
      vertex 39.6651 14.25 6.5
      vertex 40 15.5 1.5
    endloop
  endfacet
  facet normal 0.965926 0.258819 0
    outer loop
      vertex 40 15.5 1.5
      vertex 39.6651 16.75 1.5
      vertex 39.6651 16.75 6.5
    endloop
  endfacet
  facet normal 0.965926 0.258819 -0
    outer loop
      vertex 40 15.5 6.5
      vertex 40 15.5 1.5
      vertex 39.6651 16.75 6.5
    endloop
  endfacet
  facet normal 0.707107 0.707107 0
    outer loop
      vertex 38.75 17.6651 1.5
      vertex 38.75 17.6651 6.5
      vertex 39.6651 16.75 1.5
    endloop
  endfacet
  facet normal 0.707107 0.707107 0
    outer loop
      vertex 39.6651 16.75 1.5
      vertex 38.75 17.6651 6.5
      vertex 39.6651 16.75 6.5
    endloop
  endfacet
  facet normal 0.258819 0.965926 0
    outer loop
      vertex 37.5 18 1.5
      vertex 37.5 18 6.5
      vertex 38.75 17.6651 1.5
    endloop
  endfacet
  facet normal 0.258819 0.965926 0
    outer loop
      vertex 38.75 17.6651 1.5
      vertex 37.5 18 6.5
      vertex 38.75 17.6651 6.5
    endloop
  endfacet
  facet normal -0.258819 0.965926 0
    outer loop
      vertex 36.25 17.6651 1.5
      vertex 36.25 17.6651 6.5
      vertex 37.5 18 1.5
    endloop
  endfacet
  facet normal -0.258819 0.965926 0
    outer loop
      vertex 37.5 18 1.5
      vertex 36.25 17.6651 6.5
      vertex 37.5 18 6.5
    endloop
  endfacet
  facet normal -0.707107 0.707107 0
    outer loop
      vertex 35.3349 16.75 1.5
      vertex 35.3349 16.75 6.5
      vertex 36.25 17.6651 1.5
    endloop
  endfacet
  facet normal -0.707107 0.707107 0
    outer loop
      vertex 36.25 17.6651 1.5
      vertex 35.3349 16.75 6.5
      vertex 36.25 17.6651 6.5
    endloop
  endfacet
  facet normal 0 0 1
    outer loop
      vertex -39.6651 -14.25 6.5
      vertex -40 -15.5 6.5
      vertex -39.6651 -16.75 6.5
    endloop
  endfacet
  facet normal -0 -0 1
    outer loop
      vertex -38.799 -16.25 6.5
      vertex -39.6651 -14.25 6.5
      vertex -38.75 -17.6651 6.5
    endloop
  endfacet
  facet normal 0 0 1
    outer loop
      vertex -38.75 -17.6651 6.5
      vertex -39.6651 -14.25 6.5
      vertex -39.6651 -16.75 6.5
    endloop
  endfacet
  facet normal 0 0 1
    outer loop
      vertex -38.799 -14.75 6.5
      vertex -38.25 -14.201 6.5
      vertex -39.6651 -14.25 6.5
    endloop
  endfacet
  facet normal 0 0 1
    outer loop
      vertex -36.201 -14.75 6.5
      vertex -36 -15.5 6.5
      vertex -35 -15.5 6.5
    endloop
  endfacet
  facet normal 0 -0 1
    outer loop
      vertex -37.5 -13 6.5
      vertex -39.6651 -14.25 6.5
      vertex -36.25 -13.3349 6.5
    endloop
  endfacet
  facet normal 0 -0 1
    outer loop
      vertex -38.75 -13.3349 6.5
      vertex -39.6651 -14.25 6.5
      vertex -37.5 -13 6.5
    endloop
  endfacet
  facet normal 0 0 1
    outer loop
      vertex -37.5 -18 6.5
      vertex -38.799 -16.25 6.5
      vertex -38.75 -17.6651 6.5
    endloop
  endfacet
  facet normal -0 -0 1
    outer loop
      vertex -39 -15.5 6.5
      vertex -39.6651 -14.25 6.5
      vertex -38.799 -16.25 6.5
    endloop
  endfacet
  facet normal 0 -0 1
    outer loop
      vertex -36.75 -16.799 6.5
      vertex -37.5 -17 6.5
      vertex -36.25 -17.6651 6.5
    endloop
  endfacet
  facet normal 0 0 1
    outer loop
      vertex -36.25 -13.3349 6.5
      vertex -39.6651 -14.25 6.5
      vertex -38.25 -14.201 6.5
    endloop
  endfacet
  facet normal 0 -0 1
    outer loop
      vertex -36.25 -13.3349 6.5
      vertex -37.5 -14 6.5
      vertex -35.3349 -14.25 6.5
    endloop
  endfacet
  facet normal 0 0 1
    outer loop
      vertex -36.25 -13.3349 6.5
      vertex -38.25 -14.201 6.5
      vertex -37.5 -14 6.5
    endloop
  endfacet
  facet normal 0 0 1
    outer loop
      vertex -37.5 -14 6.5
      vertex -36.75 -14.201 6.5
      vertex -35.3349 -14.25 6.5
    endloop
  endfacet
  facet normal 0 -0 1
    outer loop
      vertex -35.3349 -14.25 6.5
      vertex -36.201 -14.75 6.5
      vertex -35 -15.5 6.5
    endloop
  endfacet
  facet normal 0 0 1
    outer loop
      vertex -36.75 -14.201 6.5
      vertex -36.201 -14.75 6.5
      vertex -35.3349 -14.25 6.5
    endloop
  endfacet
  facet normal 0 0 1
    outer loop
      vertex -35 -15.5 6.5
      vertex -36 -15.5 6.5
      vertex -35.3349 -16.75 6.5
    endloop
  endfacet
  facet normal -0 0 1
    outer loop
      vertex -35.3349 -16.75 6.5
      vertex -36.201 -16.25 6.5
      vertex -36.25 -17.6651 6.5
    endloop
  endfacet
  facet normal -0 0 1
    outer loop
      vertex -37.5 -17 6.5
      vertex -38.25 -16.799 6.5
      vertex -37.5 -18 6.5
    endloop
  endfacet
  facet normal 0 0 1
    outer loop
      vertex -36.201 -16.25 6.5
      vertex -36.75 -16.799 6.5
      vertex -36.25 -17.6651 6.5
    endloop
  endfacet
  facet normal 0 -0 1
    outer loop
      vertex -36 -15.5 6.5
      vertex -36.201 -16.25 6.5
      vertex -35.3349 -16.75 6.5
    endloop
  endfacet
  facet normal -0 0 1
    outer loop
      vertex -36.25 -17.6651 6.5
      vertex -37.5 -17 6.5
      vertex -37.5 -18 6.5
    endloop
  endfacet
  facet normal 0 0 1
    outer loop
      vertex -37.5 -18 6.5
      vertex -38.25 -16.799 6.5
      vertex -38.799 -16.25 6.5
    endloop
  endfacet
  facet normal 0 0 1
    outer loop
      vertex -39 -15.5 6.5
      vertex -38.799 -14.75 6.5
      vertex -39.6651 -14.25 6.5
    endloop
  endfacet
  facet normal 0 0 1
    outer loop
      vertex -39.6651 16.75 6.5
      vertex -40 15.5 6.5
      vertex -39.6651 14.25 6.5
    endloop
  endfacet
  facet normal -0 -0 1
    outer loop
      vertex -38.799 14.75 6.5
      vertex -39.6651 16.75 6.5
      vertex -38.75 13.3349 6.5
    endloop
  endfacet
  facet normal 0 0 1
    outer loop
      vertex -38.75 13.3349 6.5
      vertex -39.6651 16.75 6.5
      vertex -39.6651 14.25 6.5
    endloop
  endfacet
  facet normal 0 0 1
    outer loop
      vertex -38.799 16.25 6.5
      vertex -38.25 16.799 6.5
      vertex -39.6651 16.75 6.5
    endloop
  endfacet
  facet normal 0 0 1
    outer loop
      vertex -36.201 16.25 6.5
      vertex -36 15.5 6.5
      vertex -35 15.5 6.5
    endloop
  endfacet
  facet normal 0 -0 1
    outer loop
      vertex -37.5 18 6.5
      vertex -39.6651 16.75 6.5
      vertex -36.25 17.6651 6.5
    endloop
  endfacet
  facet normal 0 -0 1
    outer loop
      vertex -38.75 17.6651 6.5
      vertex -39.6651 16.75 6.5
      vertex -37.5 18 6.5
    endloop
  endfacet
  facet normal 0 0 1
    outer loop
      vertex -37.5 13 6.5
      vertex -38.799 14.75 6.5
      vertex -38.75 13.3349 6.5
    endloop
  endfacet
  facet normal -0 -0 1
    outer loop
      vertex -39 15.5 6.5
      vertex -39.6651 16.75 6.5
      vertex -38.799 14.75 6.5
    endloop
  endfacet
  facet normal 0 -0 1
    outer loop
      vertex -36.75 14.201 6.5
      vertex -37.5 14 6.5
      vertex -36.25 13.3349 6.5
    endloop
  endfacet
  facet normal 0 0 1
    outer loop
      vertex -36.25 17.6651 6.5
      vertex -39.6651 16.75 6.5
      vertex -38.25 16.799 6.5
    endloop
  endfacet
  facet normal 0 -0 1
    outer loop
      vertex -36.25 17.6651 6.5
      vertex -37.5 17 6.5
      vertex -35.3349 16.75 6.5
    endloop
  endfacet
  facet normal 0 0 1
    outer loop
      vertex -36.25 17.6651 6.5
      vertex -38.25 16.799 6.5
      vertex -37.5 17 6.5
    endloop
  endfacet
  facet normal 0 0 1
    outer loop
      vertex -37.5 17 6.5
      vertex -36.75 16.799 6.5
      vertex -35.3349 16.75 6.5
    endloop
  endfacet
  facet normal 0 -0 1
    outer loop
      vertex -35.3349 16.75 6.5
      vertex -36.201 16.25 6.5
      vertex -35 15.5 6.5
    endloop
  endfacet
  facet normal 0 0 1
    outer loop
      vertex -36.75 16.799 6.5
      vertex -36.201 16.25 6.5
      vertex -35.3349 16.75 6.5
    endloop
  endfacet
  facet normal 0 0 1
    outer loop
      vertex -35 15.5 6.5
      vertex -36 15.5 6.5
      vertex -35.3349 14.25 6.5
    endloop
  endfacet
  facet normal -0 0 1
    outer loop
      vertex -35.3349 14.25 6.5
      vertex -36.201 14.75 6.5
      vertex -36.25 13.3349 6.5
    endloop
  endfacet
  facet normal -0 0 1
    outer loop
      vertex -37.5 14 6.5
      vertex -38.25 14.201 6.5
      vertex -37.5 13 6.5
    endloop
  endfacet
  facet normal 0 0 1
    outer loop
      vertex -36.201 14.75 6.5
      vertex -36.75 14.201 6.5
      vertex -36.25 13.3349 6.5
    endloop
  endfacet
  facet normal 0 -0 1
    outer loop
      vertex -36 15.5 6.5
      vertex -36.201 14.75 6.5
      vertex -35.3349 14.25 6.5
    endloop
  endfacet
  facet normal -0 0 1
    outer loop
      vertex -36.25 13.3349 6.5
      vertex -37.5 14 6.5
      vertex -37.5 13 6.5
    endloop
  endfacet
  facet normal 0 0 1
    outer loop
      vertex -37.5 13 6.5
      vertex -38.25 14.201 6.5
      vertex -38.799 14.75 6.5
    endloop
  endfacet
  facet normal 0 0 1
    outer loop
      vertex -39 15.5 6.5
      vertex -38.799 16.25 6.5
      vertex -39.6651 16.75 6.5
    endloop
  endfacet
  facet normal 0 0 1
    outer loop
      vertex 35.3349 -14.25 6.5
      vertex 35 -15.5 6.5
      vertex 35.3349 -16.75 6.5
    endloop
  endfacet
  facet normal -0 -0 1
    outer loop
      vertex 36.201 -16.25 6.5
      vertex 35.3349 -14.25 6.5
      vertex 36.25 -17.6651 6.5
    endloop
  endfacet
  facet normal 0 0 1
    outer loop
      vertex 36.25 -17.6651 6.5
      vertex 35.3349 -14.25 6.5
      vertex 35.3349 -16.75 6.5
    endloop
  endfacet
  facet normal 0 0 1
    outer loop
      vertex 36.201 -14.75 6.5
      vertex 36.75 -14.201 6.5
      vertex 35.3349 -14.25 6.5
    endloop
  endfacet
  facet normal 0 0 1
    outer loop
      vertex 38.799 -14.75 6.5
      vertex 39 -15.5 6.5
      vertex 40 -15.5 6.5
    endloop
  endfacet
  facet normal 0 -0 1
    outer loop
      vertex 37.5 -13 6.5
      vertex 35.3349 -14.25 6.5
      vertex 38.75 -13.3349 6.5
    endloop
  endfacet
  facet normal 0 -0 1
    outer loop
      vertex 36.25 -13.3349 6.5
      vertex 35.3349 -14.25 6.5
      vertex 37.5 -13 6.5
    endloop
  endfacet
  facet normal 0 0 1
    outer loop
      vertex 37.5 -18 6.5
      vertex 36.201 -16.25 6.5
      vertex 36.25 -17.6651 6.5
    endloop
  endfacet
  facet normal -0 -0 1
    outer loop
      vertex 36 -15.5 6.5
      vertex 35.3349 -14.25 6.5
      vertex 36.201 -16.25 6.5
    endloop
  endfacet
  facet normal 0 -0 1
    outer loop
      vertex 38.25 -16.799 6.5
      vertex 37.5 -17 6.5
      vertex 38.75 -17.6651 6.5
    endloop
  endfacet
  facet normal 0 0 1
    outer loop
      vertex 38.75 -13.3349 6.5
      vertex 35.3349 -14.25 6.5
      vertex 36.75 -14.201 6.5
    endloop
  endfacet
  facet normal 0 -0 1
    outer loop
      vertex 38.75 -13.3349 6.5
      vertex 37.5 -14 6.5
      vertex 39.6651 -14.25 6.5
    endloop
  endfacet
  facet normal 0 0 1
    outer loop
      vertex 38.75 -13.3349 6.5
      vertex 36.75 -14.201 6.5
      vertex 37.5 -14 6.5
    endloop
  endfacet
  facet normal 0 0 1
    outer loop
      vertex 37.5 -14 6.5
      vertex 38.25 -14.201 6.5
      vertex 39.6651 -14.25 6.5
    endloop
  endfacet
  facet normal 0 -0 1
    outer loop
      vertex 39.6651 -14.25 6.5
      vertex 38.799 -14.75 6.5
      vertex 40 -15.5 6.5
    endloop
  endfacet
  facet normal 0 0 1
    outer loop
      vertex 38.25 -14.201 6.5
      vertex 38.799 -14.75 6.5
      vertex 39.6651 -14.25 6.5
    endloop
  endfacet
  facet normal 0 0 1
    outer loop
      vertex 40 -15.5 6.5
      vertex 39 -15.5 6.5
      vertex 39.6651 -16.75 6.5
    endloop
  endfacet
  facet normal -0 0 1
    outer loop
      vertex 39.6651 -16.75 6.5
      vertex 38.799 -16.25 6.5
      vertex 38.75 -17.6651 6.5
    endloop
  endfacet
  facet normal -0 0 1
    outer loop
      vertex 37.5 -17 6.5
      vertex 36.75 -16.799 6.5
      vertex 37.5 -18 6.5
    endloop
  endfacet
  facet normal 0 0 1
    outer loop
      vertex 38.799 -16.25 6.5
      vertex 38.25 -16.799 6.5
      vertex 38.75 -17.6651 6.5
    endloop
  endfacet
  facet normal 0 -0 1
    outer loop
      vertex 39 -15.5 6.5
      vertex 38.799 -16.25 6.5
      vertex 39.6651 -16.75 6.5
    endloop
  endfacet
  facet normal -0 0 1
    outer loop
      vertex 38.75 -17.6651 6.5
      vertex 37.5 -17 6.5
      vertex 37.5 -18 6.5
    endloop
  endfacet
  facet normal 0 0 1
    outer loop
      vertex 37.5 -18 6.5
      vertex 36.75 -16.799 6.5
      vertex 36.201 -16.25 6.5
    endloop
  endfacet
  facet normal 0 0 1
    outer loop
      vertex 36 -15.5 6.5
      vertex 36.201 -14.75 6.5
      vertex 35.3349 -14.25 6.5
    endloop
  endfacet
  facet normal 0 0 1
    outer loop
      vertex 35.3349 16.75 6.5
      vertex 35 15.5 6.5
      vertex 35.3349 14.25 6.5
    endloop
  endfacet
  facet normal -0 -0 1
    outer loop
      vertex 36.201 14.75 6.5
      vertex 35.3349 16.75 6.5
      vertex 36.25 13.3349 6.5
    endloop
  endfacet
  facet normal 0 0 1
    outer loop
      vertex 36.25 13.3349 6.5
      vertex 35.3349 16.75 6.5
      vertex 35.3349 14.25 6.5
    endloop
  endfacet
  facet normal 0 0 1
    outer loop
      vertex 36.201 16.25 6.5
      vertex 36.75 16.799 6.5
      vertex 35.3349 16.75 6.5
    endloop
  endfacet
  facet normal 0 0 1
    outer loop
      vertex 38.799 16.25 6.5
      vertex 39 15.5 6.5
      vertex 40 15.5 6.5
    endloop
  endfacet
  facet normal 0 -0 1
    outer loop
      vertex 37.5 18 6.5
      vertex 35.3349 16.75 6.5
      vertex 38.75 17.6651 6.5
    endloop
  endfacet
  facet normal 0 -0 1
    outer loop
      vertex 36.25 17.6651 6.5
      vertex 35.3349 16.75 6.5
      vertex 37.5 18 6.5
    endloop
  endfacet
  facet normal 0 0 1
    outer loop
      vertex 37.5 13 6.5
      vertex 36.201 14.75 6.5
      vertex 36.25 13.3349 6.5
    endloop
  endfacet
  facet normal -0 -0 1
    outer loop
      vertex 36 15.5 6.5
      vertex 35.3349 16.75 6.5
      vertex 36.201 14.75 6.5
    endloop
  endfacet
  facet normal 0 -0 1
    outer loop
      vertex 38.25 14.201 6.5
      vertex 37.5 14 6.5
      vertex 38.75 13.3349 6.5
    endloop
  endfacet
  facet normal 0 0 1
    outer loop
      vertex 38.75 17.6651 6.5
      vertex 35.3349 16.75 6.5
      vertex 36.75 16.799 6.5
    endloop
  endfacet
  facet normal 0 -0 1
    outer loop
      vertex 38.75 17.6651 6.5
      vertex 37.5 17 6.5
      vertex 39.6651 16.75 6.5
    endloop
  endfacet
  facet normal 0 0 1
    outer loop
      vertex 38.75 17.6651 6.5
      vertex 36.75 16.799 6.5
      vertex 37.5 17 6.5
    endloop
  endfacet
  facet normal 0 0 1
    outer loop
      vertex 37.5 17 6.5
      vertex 38.25 16.799 6.5
      vertex 39.6651 16.75 6.5
    endloop
  endfacet
  facet normal 0 -0 1
    outer loop
      vertex 39.6651 16.75 6.5
      vertex 38.799 16.25 6.5
      vertex 40 15.5 6.5
    endloop
  endfacet
  facet normal 0 0 1
    outer loop
      vertex 38.25 16.799 6.5
      vertex 38.799 16.25 6.5
      vertex 39.6651 16.75 6.5
    endloop
  endfacet
  facet normal 0 0 1
    outer loop
      vertex 40 15.5 6.5
      vertex 39 15.5 6.5
      vertex 39.6651 14.25 6.5
    endloop
  endfacet
  facet normal -0 0 1
    outer loop
      vertex 39.6651 14.25 6.5
      vertex 38.799 14.75 6.5
      vertex 38.75 13.3349 6.5
    endloop
  endfacet
  facet normal -0 0 1
    outer loop
      vertex 37.5 14 6.5
      vertex 36.75 14.201 6.5
      vertex 37.5 13 6.5
    endloop
  endfacet
  facet normal 0 0 1
    outer loop
      vertex 38.799 14.75 6.5
      vertex 38.25 14.201 6.5
      vertex 38.75 13.3349 6.5
    endloop
  endfacet
  facet normal 0 -0 1
    outer loop
      vertex 39 15.5 6.5
      vertex 38.799 14.75 6.5
      vertex 39.6651 14.25 6.5
    endloop
  endfacet
  facet normal -0 0 1
    outer loop
      vertex 38.75 13.3349 6.5
      vertex 37.5 14 6.5
      vertex 37.5 13 6.5
    endloop
  endfacet
  facet normal 0 0 1
    outer loop
      vertex 37.5 13 6.5
      vertex 36.75 14.201 6.5
      vertex 36.201 14.75 6.5
    endloop
  endfacet
  facet normal 0 0 1
    outer loop
      vertex 36 15.5 6.5
      vertex 36.201 16.25 6.5
      vertex 35.3349 16.75 6.5
    endloop
  endfacet
  facet normal 0.965926 0.258819 0
    outer loop
      vertex -39 -15.5 6.5
      vertex -38.799 -16.25 6.5
      vertex -38.799 -16.25 1.5
    endloop
  endfacet
  facet normal 0.965926 0.258819 0
    outer loop
      vertex -39 -15.5 1.5
      vertex -39 -15.5 6.5
      vertex -38.799 -16.25 1.5
    endloop
  endfacet
  facet normal 0.707107 0.707107 -0
    outer loop
      vertex -38.25 -16.799 6.5
      vertex -38.25 -16.799 1.5
      vertex -38.799 -16.25 6.5
    endloop
  endfacet
  facet normal 0.707107 0.707107 -0
    outer loop
      vertex -38.799 -16.25 6.5
      vertex -38.25 -16.799 1.5
      vertex -38.799 -16.25 1.5
    endloop
  endfacet
  facet normal 0.258819 0.965926 -0
    outer loop
      vertex -37.5 -17 6.5
      vertex -37.5 -17 1.5
      vertex -38.25 -16.799 6.5
    endloop
  endfacet
  facet normal 0.258819 0.965926 -0
    outer loop
      vertex -38.25 -16.799 6.5
      vertex -37.5 -17 1.5
      vertex -38.25 -16.799 1.5
    endloop
  endfacet
  facet normal -0.258819 0.965926 0
    outer loop
      vertex -36.75 -16.799 6.5
      vertex -36.75 -16.799 1.5
      vertex -37.5 -17 6.5
    endloop
  endfacet
  facet normal -0.258819 0.965926 0
    outer loop
      vertex -37.5 -17 6.5
      vertex -36.75 -16.799 1.5
      vertex -37.5 -17 1.5
    endloop
  endfacet
  facet normal -0.707107 0.707107 0
    outer loop
      vertex -36.201 -16.25 6.5
      vertex -36.201 -16.25 1.5
      vertex -36.75 -16.799 6.5
    endloop
  endfacet
  facet normal -0.707107 0.707107 0
    outer loop
      vertex -36.75 -16.799 6.5
      vertex -36.201 -16.25 1.5
      vertex -36.75 -16.799 1.5
    endloop
  endfacet
  facet normal -0.965926 0.258819 0
    outer loop
      vertex -36 -15.5 6.5
      vertex -36 -15.5 1.5
      vertex -36.201 -16.25 6.5
    endloop
  endfacet
  facet normal -0.965926 0.258819 0
    outer loop
      vertex -36.201 -16.25 6.5
      vertex -36 -15.5 1.5
      vertex -36.201 -16.25 1.5
    endloop
  endfacet
  facet normal -0.965926 -0.258819 0
    outer loop
      vertex -36 -15.5 6.5
      vertex -36.201 -14.75 6.5
      vertex -36 -15.5 1.5
    endloop
  endfacet
  facet normal -0.965926 -0.258819 0
    outer loop
      vertex -36 -15.5 1.5
      vertex -36.201 -14.75 6.5
      vertex -36.201 -14.75 1.5
    endloop
  endfacet
  facet normal -0.707107 -0.707107 -0
    outer loop
      vertex -36.201 -14.75 1.5
      vertex -36.201 -14.75 6.5
      vertex -36.75 -14.201 6.5
    endloop
  endfacet
  facet normal -0.707107 -0.707107 -0
    outer loop
      vertex -36.75 -14.201 1.5
      vertex -36.201 -14.75 1.5
      vertex -36.75 -14.201 6.5
    endloop
  endfacet
  facet normal -0.258819 -0.965926 -0
    outer loop
      vertex -36.75 -14.201 1.5
      vertex -36.75 -14.201 6.5
      vertex -37.5 -14 6.5
    endloop
  endfacet
  facet normal -0.258819 -0.965926 -0
    outer loop
      vertex -37.5 -14 1.5
      vertex -36.75 -14.201 1.5
      vertex -37.5 -14 6.5
    endloop
  endfacet
  facet normal 0.258819 -0.965926 0
    outer loop
      vertex -37.5 -14 1.5
      vertex -37.5 -14 6.5
      vertex -38.25 -14.201 6.5
    endloop
  endfacet
  facet normal 0.258819 -0.965926 0
    outer loop
      vertex -38.25 -14.201 1.5
      vertex -37.5 -14 1.5
      vertex -38.25 -14.201 6.5
    endloop
  endfacet
  facet normal 0.707107 -0.707107 0
    outer loop
      vertex -38.25 -14.201 1.5
      vertex -38.25 -14.201 6.5
      vertex -38.799 -14.75 6.5
    endloop
  endfacet
  facet normal 0.707107 -0.707107 0
    outer loop
      vertex -38.799 -14.75 1.5
      vertex -38.25 -14.201 1.5
      vertex -38.799 -14.75 6.5
    endloop
  endfacet
  facet normal 0.965926 -0.258819 0
    outer loop
      vertex -38.799 -14.75 1.5
      vertex -38.799 -14.75 6.5
      vertex -39 -15.5 6.5
    endloop
  endfacet
  facet normal 0.965926 -0.258819 0
    outer loop
      vertex -39 -15.5 1.5
      vertex -38.799 -14.75 1.5
      vertex -39 -15.5 6.5
    endloop
  endfacet
  facet normal 0.965926 0.258819 0
    outer loop
      vertex -39 15.5 6.5
      vertex -38.799 14.75 6.5
      vertex -38.799 14.75 1.5
    endloop
  endfacet
  facet normal 0.965926 0.258819 0
    outer loop
      vertex -39 15.5 1.5
      vertex -39 15.5 6.5
      vertex -38.799 14.75 1.5
    endloop
  endfacet
  facet normal 0.707107 0.707107 -0
    outer loop
      vertex -38.25 14.201 6.5
      vertex -38.25 14.201 1.5
      vertex -38.799 14.75 6.5
    endloop
  endfacet
  facet normal 0.707107 0.707107 -0
    outer loop
      vertex -38.799 14.75 6.5
      vertex -38.25 14.201 1.5
      vertex -38.799 14.75 1.5
    endloop
  endfacet
  facet normal 0.258819 0.965926 -0
    outer loop
      vertex -37.5 14 6.5
      vertex -37.5 14 1.5
      vertex -38.25 14.201 6.5
    endloop
  endfacet
  facet normal 0.258819 0.965926 -0
    outer loop
      vertex -38.25 14.201 6.5
      vertex -37.5 14 1.5
      vertex -38.25 14.201 1.5
    endloop
  endfacet
  facet normal -0.258819 0.965926 0
    outer loop
      vertex -36.75 14.201 6.5
      vertex -36.75 14.201 1.5
      vertex -37.5 14 6.5
    endloop
  endfacet
  facet normal -0.258819 0.965926 0
    outer loop
      vertex -37.5 14 6.5
      vertex -36.75 14.201 1.5
      vertex -37.5 14 1.5
    endloop
  endfacet
  facet normal -0.707107 0.707107 0
    outer loop
      vertex -36.201 14.75 6.5
      vertex -36.201 14.75 1.5
      vertex -36.75 14.201 6.5
    endloop
  endfacet
  facet normal -0.707107 0.707107 0
    outer loop
      vertex -36.75 14.201 6.5
      vertex -36.201 14.75 1.5
      vertex -36.75 14.201 1.5
    endloop
  endfacet
  facet normal -0.965926 0.258819 0
    outer loop
      vertex -36 15.5 6.5
      vertex -36 15.5 1.5
      vertex -36.201 14.75 6.5
    endloop
  endfacet
  facet normal -0.965926 0.258819 0
    outer loop
      vertex -36.201 14.75 6.5
      vertex -36 15.5 1.5
      vertex -36.201 14.75 1.5
    endloop
  endfacet
  facet normal -0.965926 -0.258819 0
    outer loop
      vertex -36 15.5 6.5
      vertex -36.201 16.25 6.5
      vertex -36 15.5 1.5
    endloop
  endfacet
  facet normal -0.965926 -0.258819 0
    outer loop
      vertex -36 15.5 1.5
      vertex -36.201 16.25 6.5
      vertex -36.201 16.25 1.5
    endloop
  endfacet
  facet normal -0.707107 -0.707107 -0
    outer loop
      vertex -36.201 16.25 1.5
      vertex -36.201 16.25 6.5
      vertex -36.75 16.799 6.5
    endloop
  endfacet
  facet normal -0.707107 -0.707107 -0
    outer loop
      vertex -36.75 16.799 1.5
      vertex -36.201 16.25 1.5
      vertex -36.75 16.799 6.5
    endloop
  endfacet
  facet normal -0.258819 -0.965926 -0
    outer loop
      vertex -36.75 16.799 1.5
      vertex -36.75 16.799 6.5
      vertex -37.5 17 6.5
    endloop
  endfacet
  facet normal -0.258819 -0.965926 -0
    outer loop
      vertex -37.5 17 1.5
      vertex -36.75 16.799 1.5
      vertex -37.5 17 6.5
    endloop
  endfacet
  facet normal 0.258819 -0.965926 0
    outer loop
      vertex -37.5 17 1.5
      vertex -37.5 17 6.5
      vertex -38.25 16.799 6.5
    endloop
  endfacet
  facet normal 0.258819 -0.965926 0
    outer loop
      vertex -38.25 16.799 1.5
      vertex -37.5 17 1.5
      vertex -38.25 16.799 6.5
    endloop
  endfacet
  facet normal 0.707107 -0.707107 0
    outer loop
      vertex -38.25 16.799 1.5
      vertex -38.25 16.799 6.5
      vertex -38.799 16.25 6.5
    endloop
  endfacet
  facet normal 0.707107 -0.707107 0
    outer loop
      vertex -38.799 16.25 1.5
      vertex -38.25 16.799 1.5
      vertex -38.799 16.25 6.5
    endloop
  endfacet
  facet normal 0.965926 -0.258819 0
    outer loop
      vertex -38.799 16.25 1.5
      vertex -38.799 16.25 6.5
      vertex -39 15.5 6.5
    endloop
  endfacet
  facet normal 0.965926 -0.258819 0
    outer loop
      vertex -39 15.5 1.5
      vertex -38.799 16.25 1.5
      vertex -39 15.5 6.5
    endloop
  endfacet
  facet normal 0.965926 0.258819 0
    outer loop
      vertex 36 -15.5 6.5
      vertex 36.201 -16.25 6.5
      vertex 36.201 -16.25 1.5
    endloop
  endfacet
  facet normal 0.965926 0.258819 0
    outer loop
      vertex 36 -15.5 1.5
      vertex 36 -15.5 6.5
      vertex 36.201 -16.25 1.5
    endloop
  endfacet
  facet normal 0.707107 0.707107 -0
    outer loop
      vertex 36.75 -16.799 6.5
      vertex 36.75 -16.799 1.5
      vertex 36.201 -16.25 6.5
    endloop
  endfacet
  facet normal 0.707107 0.707107 -0
    outer loop
      vertex 36.201 -16.25 6.5
      vertex 36.75 -16.799 1.5
      vertex 36.201 -16.25 1.5
    endloop
  endfacet
  facet normal 0.258819 0.965926 -0
    outer loop
      vertex 37.5 -17 6.5
      vertex 37.5 -17 1.5
      vertex 36.75 -16.799 6.5
    endloop
  endfacet
  facet normal 0.258819 0.965926 -0
    outer loop
      vertex 36.75 -16.799 6.5
      vertex 37.5 -17 1.5
      vertex 36.75 -16.799 1.5
    endloop
  endfacet
  facet normal -0.258819 0.965926 0
    outer loop
      vertex 38.25 -16.799 6.5
      vertex 38.25 -16.799 1.5
      vertex 37.5 -17 6.5
    endloop
  endfacet
  facet normal -0.258819 0.965926 0
    outer loop
      vertex 37.5 -17 6.5
      vertex 38.25 -16.799 1.5
      vertex 37.5 -17 1.5
    endloop
  endfacet
  facet normal -0.707107 0.707107 0
    outer loop
      vertex 38.799 -16.25 6.5
      vertex 38.799 -16.25 1.5
      vertex 38.25 -16.799 6.5
    endloop
  endfacet
  facet normal -0.707107 0.707107 0
    outer loop
      vertex 38.25 -16.799 6.5
      vertex 38.799 -16.25 1.5
      vertex 38.25 -16.799 1.5
    endloop
  endfacet
  facet normal -0.965926 0.258819 0
    outer loop
      vertex 39 -15.5 6.5
      vertex 39 -15.5 1.5
      vertex 38.799 -16.25 6.5
    endloop
  endfacet
  facet normal -0.965926 0.258819 0
    outer loop
      vertex 38.799 -16.25 6.5
      vertex 39 -15.5 1.5
      vertex 38.799 -16.25 1.5
    endloop
  endfacet
  facet normal -0.965926 -0.258819 0
    outer loop
      vertex 39 -15.5 6.5
      vertex 38.799 -14.75 6.5
      vertex 39 -15.5 1.5
    endloop
  endfacet
  facet normal -0.965926 -0.258819 0
    outer loop
      vertex 39 -15.5 1.5
      vertex 38.799 -14.75 6.5
      vertex 38.799 -14.75 1.5
    endloop
  endfacet
  facet normal -0.707107 -0.707107 -0
    outer loop
      vertex 38.799 -14.75 1.5
      vertex 38.799 -14.75 6.5
      vertex 38.25 -14.201 6.5
    endloop
  endfacet
  facet normal -0.707107 -0.707107 -0
    outer loop
      vertex 38.25 -14.201 1.5
      vertex 38.799 -14.75 1.5
      vertex 38.25 -14.201 6.5
    endloop
  endfacet
  facet normal -0.258819 -0.965926 -0
    outer loop
      vertex 38.25 -14.201 1.5
      vertex 38.25 -14.201 6.5
      vertex 37.5 -14 6.5
    endloop
  endfacet
  facet normal -0.258819 -0.965926 -0
    outer loop
      vertex 37.5 -14 1.5
      vertex 38.25 -14.201 1.5
      vertex 37.5 -14 6.5
    endloop
  endfacet
  facet normal 0.258819 -0.965926 0
    outer loop
      vertex 37.5 -14 1.5
      vertex 37.5 -14 6.5
      vertex 36.75 -14.201 6.5
    endloop
  endfacet
  facet normal 0.258819 -0.965926 0
    outer loop
      vertex 36.75 -14.201 1.5
      vertex 37.5 -14 1.5
      vertex 36.75 -14.201 6.5
    endloop
  endfacet
  facet normal 0.707107 -0.707107 0
    outer loop
      vertex 36.75 -14.201 1.5
      vertex 36.75 -14.201 6.5
      vertex 36.201 -14.75 6.5
    endloop
  endfacet
  facet normal 0.707107 -0.707107 0
    outer loop
      vertex 36.201 -14.75 1.5
      vertex 36.75 -14.201 1.5
      vertex 36.201 -14.75 6.5
    endloop
  endfacet
  facet normal 0.965926 -0.258819 0
    outer loop
      vertex 36.201 -14.75 1.5
      vertex 36.201 -14.75 6.5
      vertex 36 -15.5 6.5
    endloop
  endfacet
  facet normal 0.965926 -0.258819 0
    outer loop
      vertex 36 -15.5 1.5
      vertex 36.201 -14.75 1.5
      vertex 36 -15.5 6.5
    endloop
  endfacet
  facet normal 0.965926 0.258819 0
    outer loop
      vertex 36 15.5 6.5
      vertex 36.201 14.75 6.5
      vertex 36.201 14.75 1.5
    endloop
  endfacet
  facet normal 0.965926 0.258819 0
    outer loop
      vertex 36 15.5 1.5
      vertex 36 15.5 6.5
      vertex 36.201 14.75 1.5
    endloop
  endfacet
  facet normal 0.707107 0.707107 -0
    outer loop
      vertex 36.75 14.201 6.5
      vertex 36.75 14.201 1.5
      vertex 36.201 14.75 6.5
    endloop
  endfacet
  facet normal 0.707107 0.707107 -0
    outer loop
      vertex 36.201 14.75 6.5
      vertex 36.75 14.201 1.5
      vertex 36.201 14.75 1.5
    endloop
  endfacet
  facet normal 0.258819 0.965926 -0
    outer loop
      vertex 37.5 14 6.5
      vertex 37.5 14 1.5
      vertex 36.75 14.201 6.5
    endloop
  endfacet
  facet normal 0.258819 0.965926 -0
    outer loop
      vertex 36.75 14.201 6.5
      vertex 37.5 14 1.5
      vertex 36.75 14.201 1.5
    endloop
  endfacet
  facet normal -0.258819 0.965926 0
    outer loop
      vertex 38.25 14.201 6.5
      vertex 38.25 14.201 1.5
      vertex 37.5 14 6.5
    endloop
  endfacet
  facet normal -0.258819 0.965926 0
    outer loop
      vertex 37.5 14 6.5
      vertex 38.25 14.201 1.5
      vertex 37.5 14 1.5
    endloop
  endfacet
  facet normal -0.707107 0.707107 0
    outer loop
      vertex 38.799 14.75 6.5
      vertex 38.799 14.75 1.5
      vertex 38.25 14.201 6.5
    endloop
  endfacet
  facet normal -0.707107 0.707107 0
    outer loop
      vertex 38.25 14.201 6.5
      vertex 38.799 14.75 1.5
      vertex 38.25 14.201 1.5
    endloop
  endfacet
  facet normal -0.965926 0.258819 0
    outer loop
      vertex 39 15.5 6.5
      vertex 39 15.5 1.5
      vertex 38.799 14.75 6.5
    endloop
  endfacet
  facet normal -0.965926 0.258819 0
    outer loop
      vertex 38.799 14.75 6.5
      vertex 39 15.5 1.5
      vertex 38.799 14.75 1.5
    endloop
  endfacet
  facet normal -0.965926 -0.258819 0
    outer loop
      vertex 39 15.5 6.5
      vertex 38.799 16.25 6.5
      vertex 39 15.5 1.5
    endloop
  endfacet
  facet normal -0.965926 -0.258819 0
    outer loop
      vertex 39 15.5 1.5
      vertex 38.799 16.25 6.5
      vertex 38.799 16.25 1.5
    endloop
  endfacet
  facet normal -0.707107 -0.707107 -0
    outer loop
      vertex 38.799 16.25 1.5
      vertex 38.799 16.25 6.5
      vertex 38.25 16.799 6.5
    endloop
  endfacet
  facet normal -0.707107 -0.707107 -0
    outer loop
      vertex 38.25 16.799 1.5
      vertex 38.799 16.25 1.5
      vertex 38.25 16.799 6.5
    endloop
  endfacet
  facet normal -0.258819 -0.965926 -0
    outer loop
      vertex 38.25 16.799 1.5
      vertex 38.25 16.799 6.5
      vertex 37.5 17 6.5
    endloop
  endfacet
  facet normal -0.258819 -0.965926 -0
    outer loop
      vertex 37.5 17 1.5
      vertex 38.25 16.799 1.5
      vertex 37.5 17 6.5
    endloop
  endfacet
  facet normal 0.258819 -0.965926 0
    outer loop
      vertex 37.5 17 1.5
      vertex 37.5 17 6.5
      vertex 36.75 16.799 6.5
    endloop
  endfacet
  facet normal 0.258819 -0.965926 0
    outer loop
      vertex 36.75 16.799 1.5
      vertex 37.5 17 1.5
      vertex 36.75 16.799 6.5
    endloop
  endfacet
  facet normal 0.707107 -0.707107 0
    outer loop
      vertex 36.75 16.799 1.5
      vertex 36.75 16.799 6.5
      vertex 36.201 16.25 6.5
    endloop
  endfacet
  facet normal 0.707107 -0.707107 0
    outer loop
      vertex 36.201 16.25 1.5
      vertex 36.75 16.799 1.5
      vertex 36.201 16.25 6.5
    endloop
  endfacet
  facet normal 0.965926 -0.258819 0
    outer loop
      vertex 36.201 16.25 1.5
      vertex 36.201 16.25 6.5
      vertex 36 15.5 6.5
    endloop
  endfacet
  facet normal 0.965926 -0.258819 0
    outer loop
      vertex 36 15.5 1.5
      vertex 36.201 16.25 1.5
      vertex 36 15.5 6.5
    endloop
  endfacet
  facet normal 0 0 1
    outer loop
      vertex -38.799 -16.25 1.5
      vertex -38.25 -16.799 1.5
      vertex -37.5 -17 1.5
    endloop
  endfacet
  facet normal 0 0 1
    outer loop
      vertex -36.201 -16.25 1.5
      vertex -38.799 -16.25 1.5
      vertex -36.75 -16.799 1.5
    endloop
  endfacet
  facet normal -0 0 1
    outer loop
      vertex -36.75 -16.799 1.5
      vertex -38.799 -16.25 1.5
      vertex -37.5 -17 1.5
    endloop
  endfacet
  facet normal 0 0 1
    outer loop
      vertex -36 -15.5 1.5
      vertex -38.799 -16.25 1.5
      vertex -36.201 -16.25 1.5
    endloop
  endfacet
  facet normal 0 -0 1
    outer loop
      vertex -36.201 -14.75 1.5
      vertex -38.799 -16.25 1.5
      vertex -36 -15.5 1.5
    endloop
  endfacet
  facet normal 0 -0 1
    outer loop
      vertex -36.75 -14.201 1.5
      vertex -38.799 -16.25 1.5
      vertex -36.201 -14.75 1.5
    endloop
  endfacet
  facet normal 0 -0 1
    outer loop
      vertex -37.5 -14 1.5
      vertex -38.799 -16.25 1.5
      vertex -36.75 -14.201 1.5
    endloop
  endfacet
  facet normal 0 -0 1
    outer loop
      vertex -38.25 -14.201 1.5
      vertex -38.799 -16.25 1.5
      vertex -37.5 -14 1.5
    endloop
  endfacet
  facet normal 0 -0 1
    outer loop
      vertex -38.799 -14.75 1.5
      vertex -38.799 -16.25 1.5
      vertex -38.25 -14.201 1.5
    endloop
  endfacet
  facet normal 0 0 1
    outer loop
      vertex -39 -15.5 1.5
      vertex -38.799 -16.25 1.5
      vertex -38.799 -14.75 1.5
    endloop
  endfacet
  facet normal 0 0 1
    outer loop
      vertex -38.799 14.75 1.5
      vertex -38.25 14.201 1.5
      vertex -37.5 14 1.5
    endloop
  endfacet
  facet normal 0 0 1
    outer loop
      vertex -36.201 14.75 1.5
      vertex -38.799 14.75 1.5
      vertex -36.75 14.201 1.5
    endloop
  endfacet
  facet normal -0 0 1
    outer loop
      vertex -36.75 14.201 1.5
      vertex -38.799 14.75 1.5
      vertex -37.5 14 1.5
    endloop
  endfacet
  facet normal 0 0 1
    outer loop
      vertex -36 15.5 1.5
      vertex -38.799 14.75 1.5
      vertex -36.201 14.75 1.5
    endloop
  endfacet
  facet normal 0 -0 1
    outer loop
      vertex -36.201 16.25 1.5
      vertex -38.799 14.75 1.5
      vertex -36 15.5 1.5
    endloop
  endfacet
  facet normal 0 -0 1
    outer loop
      vertex -36.75 16.799 1.5
      vertex -38.799 14.75 1.5
      vertex -36.201 16.25 1.5
    endloop
  endfacet
  facet normal 0 -0 1
    outer loop
      vertex -37.5 17 1.5
      vertex -38.799 14.75 1.5
      vertex -36.75 16.799 1.5
    endloop
  endfacet
  facet normal 0 -0 1
    outer loop
      vertex -38.25 16.799 1.5
      vertex -38.799 14.75 1.5
      vertex -37.5 17 1.5
    endloop
  endfacet
  facet normal 0 -0 1
    outer loop
      vertex -38.799 16.25 1.5
      vertex -38.799 14.75 1.5
      vertex -38.25 16.799 1.5
    endloop
  endfacet
  facet normal 0 0 1
    outer loop
      vertex -39 15.5 1.5
      vertex -38.799 14.75 1.5
      vertex -38.799 16.25 1.5
    endloop
  endfacet
  facet normal 0 0 1
    outer loop
      vertex 36.201 -16.25 1.5
      vertex 36.75 -16.799 1.5
      vertex 37.5 -17 1.5
    endloop
  endfacet
  facet normal 0 0 1
    outer loop
      vertex 38.799 -16.25 1.5
      vertex 36.201 -16.25 1.5
      vertex 38.25 -16.799 1.5
    endloop
  endfacet
  facet normal -0 0 1
    outer loop
      vertex 38.25 -16.799 1.5
      vertex 36.201 -16.25 1.5
      vertex 37.5 -17 1.5
    endloop
  endfacet
  facet normal 0 0 1
    outer loop
      vertex 39 -15.5 1.5
      vertex 36.201 -16.25 1.5
      vertex 38.799 -16.25 1.5
    endloop
  endfacet
  facet normal 0 -0 1
    outer loop
      vertex 38.799 -14.75 1.5
      vertex 36.201 -16.25 1.5
      vertex 39 -15.5 1.5
    endloop
  endfacet
  facet normal 0 -0 1
    outer loop
      vertex 38.25 -14.201 1.5
      vertex 36.201 -16.25 1.5
      vertex 38.799 -14.75 1.5
    endloop
  endfacet
  facet normal 0 -0 1
    outer loop
      vertex 37.5 -14 1.5
      vertex 36.201 -16.25 1.5
      vertex 38.25 -14.201 1.5
    endloop
  endfacet
  facet normal 0 -0 1
    outer loop
      vertex 36.75 -14.201 1.5
      vertex 36.201 -16.25 1.5
      vertex 37.5 -14 1.5
    endloop
  endfacet
  facet normal 0 -0 1
    outer loop
      vertex 36.201 -14.75 1.5
      vertex 36.201 -16.25 1.5
      vertex 36.75 -14.201 1.5
    endloop
  endfacet
  facet normal 0 0 1
    outer loop
      vertex 36 -15.5 1.5
      vertex 36.201 -16.25 1.5
      vertex 36.201 -14.75 1.5
    endloop
  endfacet
  facet normal 0 0 1
    outer loop
      vertex 36.201 14.75 1.5
      vertex 36.75 14.201 1.5
      vertex 37.5 14 1.5
    endloop
  endfacet
  facet normal 0 0 1
    outer loop
      vertex 38.799 14.75 1.5
      vertex 36.201 14.75 1.5
      vertex 38.25 14.201 1.5
    endloop
  endfacet
  facet normal -0 0 1
    outer loop
      vertex 38.25 14.201 1.5
      vertex 36.201 14.75 1.5
      vertex 37.5 14 1.5
    endloop
  endfacet
  facet normal 0 0 1
    outer loop
      vertex 39 15.5 1.5
      vertex 36.201 14.75 1.5
      vertex 38.799 14.75 1.5
    endloop
  endfacet
  facet normal 0 -0 1
    outer loop
      vertex 38.799 16.25 1.5
      vertex 36.201 14.75 1.5
      vertex 39 15.5 1.5
    endloop
  endfacet
  facet normal 0 -0 1
    outer loop
      vertex 38.25 16.799 1.5
      vertex 36.201 14.75 1.5
      vertex 38.799 16.25 1.5
    endloop
  endfacet
  facet normal 0 -0 1
    outer loop
      vertex 37.5 17 1.5
      vertex 36.201 14.75 1.5
      vertex 38.25 16.799 1.5
    endloop
  endfacet
  facet normal 0 -0 1
    outer loop
      vertex 36.75 16.799 1.5
      vertex 36.201 14.75 1.5
      vertex 37.5 17 1.5
    endloop
  endfacet
  facet normal 0 -0 1
    outer loop
      vertex 36.201 16.25 1.5
      vertex 36.201 14.75 1.5
      vertex 36.75 16.799 1.5
    endloop
  endfacet
  facet normal 0 0 1
    outer loop
      vertex 36 15.5 1.5
      vertex 36.201 14.75 1.5
      vertex 36.201 16.25 1.5
    endloop
  endfacet
endsolid OpenSCAD_Model
