<?xml version="1.0" encoding="UTF-8" standalone="no"?>
<!-- Created with Inkscape (http://www.inkscape.org/) -->

<svg
   width="210mm"
   height="297mm"
   viewBox="0 0 210 297"
   version="1.1"
   id="svg1"
   inkscape:version="1.3.2 (091e20e, 2023-11-25, custom)"
   sodipodi:docname="lucas.svg"
   xmlns:inkscape="http://www.inkscape.org/namespaces/inkscape"
   xmlns:sodipodi="http://sodipodi.sourceforge.net/DTD/sodipodi-0.dtd"
   xmlns="http://www.w3.org/2000/svg"
   xmlns:svg="http://www.w3.org/2000/svg">
  <sodipodi:namedview
     id="namedview1"
     pagecolor="#ffffff"
     bordercolor="#000000"
     borderopacity="0.25"
     inkscape:showpageshadow="2"
     inkscape:pageopacity="0.0"
     inkscape:pagecheckerboard="0"
     inkscape:deskcolor="#d1d1d1"
     inkscape:document-units="mm"
     inkscape:zoom="0.35355339"
     inkscape:cx="-504.87424"
     inkscape:cy="541.64379"
     inkscape:window-width="3840"
     inkscape:window-height="2054"
     inkscape:window-x="-11"
     inkscape:window-y="-11"
     inkscape:window-maximized="1"
     inkscape:current-layer="layer1"
     showguides="true" />
  <defs
     id="defs1">
    <clipPath
       clipPathUnits="userSpaceOnUse"
       id="clipPath84">
      <path
         d="M 0,841.89 H 1190.551 V 0 H 0 Z"
         transform="translate(-466.63531,-342.67491)"
         id="path84" />
    </clipPath>
    <clipPath
       clipPathUnits="userSpaceOnUse"
       id="clipPath82">
      <path
         d="M 0,841.89 H 1190.551 V 0 H 0 Z"
         transform="translate(-466.62991,-475.77211)"
         id="path82" />
    </clipPath>
    <clipPath
       clipPathUnits="userSpaceOnUse"
       id="clipPath70-8">
      <path
         d="M 0,841.89 H 1190.551 V 0 H 0 Z"
         transform="translate(-252.13821,-318.01571)"
         id="path70-8" />
    </clipPath>
    <clipPath
       clipPathUnits="userSpaceOnUse"
       id="clipPath72-1">
      <path
         d="M 0,841.89 H 1190.551 V 0 H 0 Z"
         transform="translate(-252.4219,-45.606601)"
         id="path72-6" />
    </clipPath>
    <clipPath
       clipPathUnits="userSpaceOnUse"
       id="clipPath74-8">
      <path
         d="M 0,841.89 H 1190.551 V 0 H 0 Z"
         transform="translate(-252.13821,-448.97621)"
         id="path74-0" />
    </clipPath>
    <clipPath
       clipPathUnits="userSpaceOnUse"
       id="clipPath76-2">
      <path
         d="M 0,841.89 H 1190.551 V 0 H 0 Z"
         transform="translate(-391.14361,-318.19741)"
         id="path76-7" />
    </clipPath>
    <clipPath
       clipPathUnits="userSpaceOnUse"
       id="clipPath78-5">
      <path
         d="M 0,841.89 H 1190.551 V 0 H 0 Z"
         transform="translate(-391.08401,-449.36191)"
         id="path78-9" />
    </clipPath>
    <clipPath
       clipPathUnits="userSpaceOnUse"
       id="clipPath80-2">
      <path
         d="M 0,841.89 H 1190.551 V 0 H 0 Z"
         transform="translate(-252.4219,-538.55141)"
         id="path80-3" />
    </clipPath>
    <clipPath
       clipPathUnits="userSpaceOnUse"
       id="clipPath68-9">
      <path
         d="M 0,841.89 H 1190.551 V 0 H 0 Z"
         transform="translate(-435.25631,-71.401502)"
         id="path68-8" />
    </clipPath>
    <clipPath
       clipPathUnits="userSpaceOnUse"
       id="clipPath66-3">
      <path
         d="M 0,841.89 H 1190.551 V 0 H 0 Z"
         transform="translate(-401.24071,-71.401502)"
         id="path66-4" />
    </clipPath>
    <clipPath
       clipPathUnits="userSpaceOnUse"
       id="clipPath64-3">
      <path
         d="M 0,841.89 H 1190.551 V 0 H 0 Z"
         transform="translate(-367.22511,-71.401502)"
         id="path64-2" />
    </clipPath>
    <clipPath
       clipPathUnits="userSpaceOnUse"
       id="clipPath62-6">
      <path
         d="M 0,841.89 H 1190.551 V 0 H 0 Z"
         transform="translate(-333.20901,-71.401502)"
         id="path62-7" />
    </clipPath>
    <clipPath
       clipPathUnits="userSpaceOnUse"
       id="clipPath60-5">
      <path
         d="M 0,841.89 H 1190.551 V 0 H 0 Z"
         transform="translate(-299.1934,-71.401502)"
         id="path60-3" />
    </clipPath>
    <clipPath
       clipPathUnits="userSpaceOnUse"
       id="clipPath58-5">
      <path
         d="M 0,841.89 H 1190.551 V 0 H 0 Z"
         transform="translate(-265.17771,-71.401502)"
         id="path58-7" />
    </clipPath>
    <clipPath
       clipPathUnits="userSpaceOnUse"
       id="clipPath2">
      <path
         d="M 0,841.89 H 1190.551 V 0 H 0 Z"
         transform="translate(-26.6938,-552.78481)"
         id="path2" />
    </clipPath>
    <clipPath
       clipPathUnits="userSpaceOnUse"
       id="clipPath14">
      <path
         d="M 0,841.89 H 1190.551 V 0 H 0 Z"
         transform="translate(-252.4219,-552.78481)"
         id="path14" />
    </clipPath>
    <clipPath
       clipPathUnits="userSpaceOnUse"
       id="clipPath4">
      <path
         d="M 0,841.89 H 1190.551 V 0 H 0 Z"
         transform="translate(-637.27541,-45.889801)"
         id="path4" />
    </clipPath>
    <clipPath
       clipPathUnits="userSpaceOnUse"
       id="clipPath40">
      <path
         d="M 0,841.89 H 1190.551 V 0 H 0 Z"
         transform="translate(-663.65432,-318.58311)"
         id="path40" />
    </clipPath>
    <clipPath
       clipPathUnits="userSpaceOnUse"
       id="clipPath50">
      <path
         d="M 0,841.89 H 1190.551 V 0 H 0 Z"
         transform="translate(-834.2998,-448.97621)"
         id="path50" />
    </clipPath>
    <clipPath
       clipPathUnits="userSpaceOnUse"
       id="clipPath52">
      <path
         d="M 0,841.89 H 1190.551 V 0 H 0 Z"
         transform="translate(-663.65432,-448.97621)"
         id="path52" />
    </clipPath>
    <clipPath
       clipPathUnits="userSpaceOnUse"
       id="clipPath54">
      <path
         d="M 0,841.89 H 1190.551 V 0 H 0 Z"
         transform="translate(-834.2998,-318.01571)"
         id="path54" />
    </clipPath>
    <clipPath
       clipPathUnits="userSpaceOnUse"
       id="clipPath56">
      <path
         d="M 0,841.89 H 1190.551 V 0 H 0 Z"
         transform="translate(-637.28122,-495.48351)"
         id="path56" />
    </clipPath>
    <clipPath
       clipPathUnits="userSpaceOnUse"
       id="clipPath82-1">
      <path
         d="M 0,841.89 H 1190.551 V 0 H 0 Z"
         transform="translate(-466.62991,-475.77211)"
         id="path82-0" />
    </clipPath>
    <clipPath
       clipPathUnits="userSpaceOnUse"
       id="clipPath84-5">
      <path
         d="M 0,841.89 H 1190.551 V 0 H 0 Z"
         transform="translate(-466.63531,-342.67491)"
         id="path84-1" />
    </clipPath>
    <clipPath
       clipPathUnits="userSpaceOnUse"
       id="clipPath86">
      <path
         d="M 0,841.89 H 1190.551 V 0 H 0 Z"
         transform="translate(-466.62991,-604.69102)"
         id="path86" />
    </clipPath>
    <clipPath
       clipPathUnits="userSpaceOnUse"
       id="clipPath12">
      <path
         d="M 0,841.89 H 1190.551 V 0 H 0 Z"
         transform="translate(-602.97662,-71.401502)"
         id="path12" />
    </clipPath>
    <clipPath
       clipPathUnits="userSpaceOnUse"
       id="clipPath10">
      <path
         d="M 0,841.89 H 1190.551 V 0 H 0 Z"
         transform="translate(-568.96091,-71.401502)"
         id="path10" />
    </clipPath>
    <clipPath
       clipPathUnits="userSpaceOnUse"
       id="clipPath8">
      <path
         d="M 0,841.89 H 1190.551 V 0 H 0 Z"
         transform="translate(-534.94481,-71.401502)"
         id="path8" />
    </clipPath>
    <clipPath
       clipPathUnits="userSpaceOnUse"
       id="clipPath6">
      <path
         d="M 0,841.89 H 1190.551 V 0 H 0 Z"
         transform="translate(-500.92921,-71.401502)"
         id="path6" />
    </clipPath>
    <clipPath
       clipPathUnits="userSpaceOnUse"
       id="clipPath48">
      <path
         d="M 0,841.89 H 1190.551 V 0 H 0 Z"
         transform="translate(-800.00102,-71.401502)"
         id="path48" />
    </clipPath>
    <clipPath
       clipPathUnits="userSpaceOnUse"
       id="clipPath46">
      <path
         d="M 0,841.89 H 1190.551 V 0 H 0 Z"
         transform="translate(-765.98544,-71.401502)"
         id="path46" />
    </clipPath>
    <clipPath
       clipPathUnits="userSpaceOnUse"
       id="clipPath44">
      <path
         d="M 0,841.89 H 1190.551 V 0 H 0 Z"
         transform="translate(-731.96872,-71.401502)"
         id="path44" />
    </clipPath>
    <clipPath
       clipPathUnits="userSpaceOnUse"
       id="clipPath42">
      <path
         d="M 0,841.89 H 1190.551 V 0 H 0 Z"
         transform="translate(-697.95311,-71.401502)"
         id="path42" />
    </clipPath>
  </defs>
  <g
     inkscape:label="Camada 1"
     inkscape:groupmode="layer"
     id="layer1">
    <path
       d="m -183.66387,20.708891 v 11.00036 c 0,0.055 0.0452,0.0997 0.10025,0.0997 h 2.89957 v 5.80017 h -2.89957 c -0.055,3e-5 -0.10025,0.0452 -0.10025,0.10028 v 5.99963 c 0,0.055 0.0452,0.0997 0.10025,0.0997 h 2.89957 v 5.80016 h -2.89957 c -0.055,4e-5 -0.10025,0.0449 -0.10025,0.10029 v 10.99985 h 14.09992 v -35.99987 h 32.00011 v 35.99987 h 14.09991 v -10.99985 c 0,-0.0554 -0.0449,-0.10025 -0.10025,-0.10025 h -2.89956 v -5.80016 h 2.89956 c 0.0554,0 0.10025,-0.0447 0.10025,-0.0997 v -5.99963 c 0,-0.055 -0.0449,-0.10025 -0.10025,-0.10025 h -2.89956 v -5.80017 h 2.89956 c 0.0554,0 0.10025,-0.0447 0.10025,-0.0997 v -11.00036 z"
       style="stroke-width:0.567;stroke-linecap:round;stroke-linejoin:round;stroke-miterlimit:11.339"
       id="path1" />
    <path
       id="path69-0"
       clip-path="url(#clipPath70-8)"
       style="fill:#000000;fill-opacity:1;stroke:none;stroke-width:0.567;stroke-linecap:round;stroke-linejoin:round;stroke-miterlimit:11.339;stroke-dasharray:none;stroke-opacity:1"
       d="m 0.28389722,220.53544 v -18.8628 h -0.0600586 z m 0,0 c -0.15599985,0 -0.28417970648,-0.12818 -0.28417970648,-0.28418 v -18.5669 H -8.220986 c -0.1559999,0 -0.2827149,-0.12671 -0.2827149,-0.28271 v -17.0083 c 0,-0.156 0.126715,-0.28272 0.2827149,-0.28272 H -2.8248648e-4 V 167.66922 H -8.220986 c -0.1559999,0 -0.2827149,-0.12818 -0.2827149,-0.28418 v -17.00683 c 0,-0.155 0.126715,-0.28418 0.2827149,-0.28418 h 8.22070351352 v -19.13379 l 0.0600585965,19.1543 c 0.01516302,0.006 0.03971668,0.008 0.046875,0.0161 H 0.28389722 V 91.444611 H 0.06856517 c 0.06034777,0.0089 0.1132573,0.114257 -0.0688476565,0.114257 0,-0.06738 0.0173866565,-0.09959 0.0380859365,-0.114257 H -2.824865e-4 v 0.114257 H -8.2195212 c -0.1559998,0 -0.2841797,-0.126715 -0.2841797,-0.282715 V 74.267852 c 0,-0.156 0.1281799,-0.282715 0.2841797,-0.282715 h 8.21923871352 v 0.01172 H 0.00411204 c -3.4168e-4,-0.0064 -0.004394526,-0.0046 -0.004394526,-0.01172 0.020805556,0 0.020112496,0.009 0.035156246,0.01172 h 0.24902346 v -16.50586 h -0.1669922 c -0.006105,0.02802 -0.03222674,0.05273 -0.11718750598,0.05273 0,-0.03121 0.011849816,-0.03411 0.017578126,-0.05273 h -0.017578126 v 0.05273 H -8.2195212 c -0.1559998,0 -0.2841797,-0.12718 -0.2841797,-0.28418 V 40.252713 c 0,-0.156999 0.1281799,-0.284179 0.2841797,-0.284179 h 8.21923871352 v 0.07324 H 0.02315501 c -0.01013319,-0.01991 -0.0234374965,-0.03007 -0.0234374965,-0.07324 0.1066453165,0 0.1212201265,0.03826 0.1127929765,0.07324 H 0.28389722 V -8.2878164 H 0.11397533 c 0.003143,0.031253 -0.01792115,0.061116 -0.10546875,0.064453 L -2.8248648e-4,2.6997418e-4 V -8.2204336 H -8.2195212 c -0.1559998,0 -0.2841797,-0.1281798 -0.2841797,-0.2841797 V -25.51145 c 0,-0.156 0.1281799,-0.28418 0.2841797,-0.28418 H -2.8248648e-4 V -42.235572 H -8.2195212 c -0.1559998,0 -0.2841797,-0.12818 -0.2841797,-0.28418 v -17.006836 c 0,-0.157 0.1281799,-0.28418 0.2841797,-0.28418 H -2.8248648e-4 V -76.246316 H -2.3835834 v -0.0059 h -5.8359378 c -0.1559998,0 -0.2841797,-0.127715 -0.2841797,-0.282715 v -17.008302 c 0,-0.156 0.1281799,-0.284179 0.2841797,-0.284179 H -2.8248648e-4 V -110.26731 H -8.2195212 c -0.1559998,0 -0.2841797,-0.12918 -0.2841797,-0.28418 v -17.00684 c 0,-0.156 0.1281799,-0.28418 0.2841797,-0.28418 h 8.21923871352 v -16.43994 H -8.2195212 c -0.1559998,0 -0.2841797,-0.12818 -0.2841797,-0.28418 v -17.0083 c 0,-0.155 0.1281799,-0.28272 0.2841797,-0.28272 h 5.0976565 v -0.007 l 3.12158221352,-10e-4 v -16.43262 H -8.2195212 c -0.1559998,0 -0.2841797,-0.12818 -0.2841797,-0.28418 v -17.0083 c 0,-0.155 0.1281799,-0.28271 0.2841797,-0.28271 h 5.2104495 v -0.0249 h 3.00878921352 v -16.41651 H -8.2195212 c -0.1559998,0 -0.2841797,-0.12571 -0.2841797,-0.28271 v -17.00831 c 0,-0.156 0.1281799,-0.28271 0.2841797,-0.28271 h 5.9150394 v -0.0293 h 2.30419931352 v -16.4129 H -8.2195212 c -0.1559998,0 -0.2841797,-0.12671 -0.2841797,-0.28271 v -17.0083 c 0,-0.156 0.1281799,-0.28272 0.2841797,-0.28272 h 5.1650393 v -0.0234 h 3.05419941352 v -8.19873 c 0,-0.156 0.12817985648,-0.28271 0.28417970648,-0.28271 l -0.008789,8.48144 h 0.008789 v -8.48144 H 35.867883 l -0.04541,0.10107 c 2.502868,0.22174 4.937167,0.95397 7.122071,2.21485 2.627997,1.51999 4.810592,3.70305 6.32959,6.33105 1.467999,2.542 3.57712,4.65405 6.120118,6.12305 2.542997,1.464 5.429796,2.23828 8.362793,2.23828 h 68.644045 c 2.934,0 5.81933,-0.77428 8.36133,-2.23828 2.543,-1.469 4.65212,-3.58105 6.12012,-6.12305 1.52,-2.628 3.70159,-4.81106 6.32959,-6.33105 2.62799,-1.516 5.61097,-2.31592 8.64697,-2.31592 h 34.01514 c 0.157,0 0.28418,0.12671 0.28418,0.28271 v 5.48877 h 8.21924 c 0.156,0 0.28418,0.12718 0.28418,0.28418 v 17.00684 c 0,0.157 -0.12818,0.28418 -0.28418,0.28418 h -8.21924 v 16.43994 h 8.21924 c 0.156,0 0.28418,0.12818 0.28418,0.28418 v 17.00684 c 0,0.156 -0.12818,0.28418 -0.28418,0.28418 h -8.21924 v 16.4414 h 8.21924 c 0.156,0 0.28418,0.12672 0.28418,0.28272 v 17.0083 c 0,0.156 -0.12818,0.28272 -0.28418,0.28272 h -8.21924 v 16.4414 h 8.21924 c 0.156,0 0.28418,0.12818 0.28418,0.28418 v 17.00684 c 0,0.157 -0.12818,0.28564 -0.28418,0.28564 h -8.21924 v 16.43995 h 8.21924 c 0.156,0 0.28418,0.12771 0.28418,0.28271 v 17.0083 c 0,0.156 -0.12818,0.28272 -0.28418,0.28272 h -8.21924 v 16.441405 h 8.21924 c 0.156,0 0.28418,0.127715 0.28418,0.282715 v 17.009766 c 0,0.155 -0.12818,0.282715 -0.28418,0.282715 h -8.21924 v 5.487305 5.465332 c 0,0.067 -0.0239,0.131106 -0.0659,0.183106 l -11.96191,14.25293 6.29443,5.285157 c 0.122,0.101 0.13709,0.280902 0.0381,0.399902 l -10.9336,13.029786 c -0.102,0.118 -0.2809,0.133691 -0.3999,0.03369 l -6.29736,-5.283691 -10.56885,12.594727 6.29883,5.283691 c 0.119,0.1 0.13669,0.277903 0.0337,0.399903 l -10.9336,13.0283208 c -0.099,0.1189999 -0.27697,0.1356913 -0.39697,0.033691 L 150.96803,-14.07391 139.00611,0.18194921 c 0.156,0 -0.008,0.22848212 0,0.38525392 V 9.0720478 39.968534 h 8.6792 c 0.156,0 0.28272,0.126715 0.28272,0.282715 V 57.25955 c 0,0.156 -0.12672,0.282715 -0.28272,0.282715 h -8.6792 v 16.442872 h 8.6792 c 0.156,0 0.28272,0.126715 0.28272,0.282715 v 17.008301 c 0,0.156 -0.12672,0.282715 -0.28272,0.282715 h -8.6792 v 30.897952 8.50342 c 0,0.12461 0.0552,0.29186 0,0.35595 v 0.10108 l 10.10742,12.04687 6.2959,-5.28369 c 0.121,-0.102 0.30091,-0.0853 0.39991,0.0337 l 10.93359,13.02833 c 0.102,0.12199 0.0853,0.3009 -0.0337,0.3999 l -6.29883,5.28369 10.17041,12.12158 c 0.042,0.051 0.0644,0.11218 0.0644,0.18018 v 5.46533 13.99219 h 8.22071 c 0.156,0 0.28418,0.12818 0.28418,0.28418 v 17.00683 c 0,0.157 -0.12818,0.28418 -0.28418,0.28418 h -8.22071 v 13.99219 c 0,0.156 -0.12771,0.28272 -0.28271,0.28272 h -8.50342 c -0.156,0 -0.28418,-0.12672 -0.28418,-0.28272 v -8.22217 h -16.44141 v 8.22217 c 0,0.156 -0.12671,0.28272 -0.28271,0.28272 h -17.0083 c -0.156,0 -0.28418,-0.12672 -0.28418,-0.28272 v -8.22217 h -16.43994 v 8.22217 c 0,0.156 -0.12818,0.28272 -0.28418,0.28272 H 93.827359 c -0.156,0 -0.28418,-0.12672 -0.28418,-0.28272 v -8.22217 H 77.103237 v 8.22217 c 0,0.156 -0.12818,0.28272 -0.28418,0.28272 H 59.810756 c -0.156,0 -0.282715,-0.12672 -0.282715,-0.28272 v -8.22217 H 43.086634 v 8.22217 c 0,0.156 -0.12818,0.28272 -0.28418,0.28272 H 25.795617 c -0.156,0 -0.284179,-0.12672 -0.284179,-0.28272 v -8.22217 H 9.0714953 v 8.50489 z M 0.16817455,184.22342 H 0.28389722 V 167.57987 H 0.11544018 v 0.0308 c -5.0439e-4,0.008 0.004894,0.0134 0,0.0205 z M 0.00850658,-8.2468008 c 0.00243888,-0.019023 0.00783016,-0.029002 0.01318359,-0.041016 H 0.00850658 Z M 0.11690502,-25.737036 h 0.1669922 V -42.354224 H 0.04366283 c 0.05835265,-0.02672 0.12034832,0.07529 0,0.104004 L 0.0260847,-25.786841 c 0.05867131,0.0074 0.08821623,0.0252 0.09082032,0.0498 z M 0.0627058,-59.803444 H 0.28389722 V -76.246316 H 0.07881908 Z M 0.09786205,-93.694071 H 0.28389722 V -110.33323 H 0.11544018 c 6.1586e-4,0.01 0.006168,0.0174 0,0.0264 l -0.01757813,16.51318 c 0.02867529,0.02641 0.02601889,0.05473 0,0.07471 z M 0.1330183,-127.78245 h 0.15087892 v -16.63477 H 0.15059643 Z m 0.0366211,-34.08399 h 0.11425782 v -16.58349 h -0.0981445 z m 0.0351563,-34.03271 h 0.0791016 v -16.57178 H 0.220909 Z m 0.0351563,-34.01954 h 0.0439453 v -16.56006 H 0.2575301 Z"
       transform="matrix(-0.35277776,0,0,-0.35277776,-38.437708,77.941203)" />
    <path
       id="path1-4"
       clip-path="url(#clipPath2)"
       style="fill:#000000;fill-opacity:1;stroke:none;stroke-width:0.567;stroke-linecap:round;stroke-linejoin:round;stroke-miterlimit:11.339;stroke-dasharray:none;stroke-opacity:1"
       d="m 4.2524841,162.14127 c -0.1559997,0 -0.2841797,-0.12672 -0.2841797,-0.28272 v -8.2207 H 4.2443654e-5 C -0.15595725,153.63785 -0.28413726,153.50967 -0.28413726,153.35367 V 136.62955 H -8.503376 c -0.1559996,0 -0.2841797,-0.12818 -0.2841797,-0.28418 v -17.00684 c 0,-0.155 0.1281801,-0.28418 0.2841797,-0.28418 h 8.21923874 V 102.61441 H -8.503376 c -0.1559996,0 -0.2841797,-0.12818 -0.2841797,-0.28418 V 85.323392 c 0,-0.155999 0.1281801,-0.284179 0.2841797,-0.284179 h 8.21923874 V 68.599271 H -8.503376 c -0.1559996,0 -0.2841797,-0.128181 -0.2841797,-0.28418 V 51.306789 c 0,-0.155999 0.1281801,-0.28418 0.2841797,-0.28418 h 8.21923874 V 34.582667 H -8.503376 c -0.1559996,0 -0.2841797,-0.12818 -0.2841797,-0.284179 V 17.291651 c 0,-0.157 0.1281801,-0.28418 0.2841797,-0.28418 h 8.21923874 V 0.28334912 c 0,-0.15599968 0.12818001,-0.28271485693 0.284179703654,-0.28271485693 H 3.9683044 V -8.2215341 c 0,-0.1549997 0.12818,-0.2827149 0.2841797,-0.2827149 H 21.259321 c 0.156,0 0.28418,0.1277152 0.28418,0.2827149 V 6.3426307e-4 H 37.983443 V -8.2215341 c 0,-0.1549997 0.12718,-0.2827149 0.284179,-0.2827149 h 17.006837 c 0.156,0 0.28418,0.1277152 0.28418,0.2827149 V 6.3426307e-4 H 72.000046 V -8.2215341 c 0,-0.1549997 0.126715,-0.2827149 0.282715,-0.2827149 h 17.008302 c 0.155999,0 0.284179,0.1277152 0.284179,0.2827149 V 6.3426307e-4 H 106.01665 V -8.2215341 c 0,-0.1549997 0.12671,-0.2827149 0.28271,-0.2827149 h 17.00831 c 0.156,0 0.28271,0.1277152 0.28271,0.2827149 V 6.3426307e-4 h 16.43994 V -8.2215341 c 0,-0.1549997 0.12818,-0.2827149 0.28418,-0.2827149 h 17.0083 c 0.156,0 0.28272,0.1277152 0.28272,0.2827149 V 6.3426307e-4 h 16.44141 V -8.2215341 c 0,-0.1549997 0.12718,-0.2827149 0.28418,-0.2827149 h 17.00683 c 0.156,0 0.28418,0.1277152 0.28418,0.2827149 V 6.3426307e-4 h 3.96826 c 0.156,0 0.28418,0.12671517693 0.28418,0.28271485693 V 17.007471 h 8.21924 c 0.156,0 0.28418,0.12718 0.28418,0.28418 v 17.006837 c 0,0.155999 -0.12818,0.284179 -0.28418,0.284179 h -8.21924 v 16.439942 h 8.21924 c 0.156,0 0.28418,0.128181 0.28418,0.28418 v 17.008302 c 0,0.155999 -0.12818,0.28418 -0.28418,0.28418 h -8.21924 v 16.439942 h 8.21924 c 0.156,0 0.28418,0.12818 0.28418,0.284179 v 17.006838 c 0,0.156 -0.12818,0.28418 -0.28418,0.28418 h -8.21924 v 16.43994 h 8.21924 c 0.156,0 0.28418,0.12918 0.28418,0.28418 v 17.00684 c 0,0.156 -0.12818,0.28418 -0.28418,0.28418 h -8.21924 v 16.72412 c 0,0.156 -0.12818,0.28418 -0.28418,0.28418 h -3.96826 v 8.2207 c 0,0.156 -0.12818,0.28272 -0.28418,0.28272 h -17.00683 c -0.157,0 -0.28418,-0.12672 -0.28418,-0.28272 v -8.2207 h -16.44141 v 8.2207 c 0,0.156 -0.12672,0.28272 -0.28272,0.28272 h -17.0083 c -0.156,0 -0.28418,-0.12672 -0.28418,-0.28272 v -8.2207 h -16.43994 v 8.2207 c 0,0.156 -0.12671,0.28272 -0.28271,0.28272 h -17.00831 c -0.156,0 -0.28271,-0.12672 -0.28271,-0.28272 v -8.2207 H 89.575242 v 8.2207 c 0,0.156 -0.12818,0.28272 -0.284179,0.28272 H 72.282761 c -0.156,0 -0.282715,-0.12672 -0.282715,-0.28272 v -8.2207 H 55.558639 v 8.2207 c 0,0.156 -0.12818,0.28272 -0.28418,0.28272 H 38.267622 c -0.156999,0 -0.284179,-0.12672 -0.284179,-0.28272 v -8.2207 H 21.543501 v 8.2207 c 0,0.156 -0.12818,0.28272 -0.28418,0.28272 z"
       transform="matrix(0,-0.35277776,-0.35277776,0,-123.39473,255.26494)" />
    <path
       id="path13"
       clip-path="url(#clipPath14)"
       style="fill:#000000;fill-opacity:1;stroke:none;stroke-width:0.567;stroke-linecap:round;stroke-linejoin:round;stroke-miterlimit:11.339;stroke-dasharray:none;stroke-opacity:1"
       d="m 8.5032052,162.14089 c -0.1559997,0 -0.2827148,-0.12672 -0.2827148,-0.28272 v -8.2207 H -2.1317791e-4 c -0.15599968209,0 -0.28417970209,-0.12818 -0.28417970209,-0.28418 V 136.62917 H -8.5036316 c -0.1559996,0 -0.2841797,-0.12818 -0.2841797,-0.28418 v -17.00684 c 0,-0.155 0.1281801,-0.28418 0.2841797,-0.28418 h 8.21923872 V 102.61403 H -8.5036316 c -0.1559996,0 -0.2841797,-0.12818 -0.2841797,-0.28418 V 85.323011 c 0,-0.156 0.1281801,-0.284179 0.2841797,-0.284179 h 8.21923872 V 68.598889 H -8.5036316 c -0.1559996,0 -0.2841797,-0.128181 -0.2841797,-0.284179 V 51.306408 c 0,-0.155999 0.1281801,-0.28418 0.2841797,-0.28418 h 8.21923872 V 34.582286 H -8.5036316 c -0.1559996,0 -0.2841797,-0.12818 -0.2841797,-0.28418 V 17.29127 c 0,-0.157 0.1281801,-0.28418 0.2841797,-0.28418 h 8.21923872 V 0.28296788 c 0,-0.15599968 0.12818002,-0.28271485464 0.28417970209,-0.28271485464 H 8.2204904 V -8.2219154 c 0,-0.1549996 0.1267151,-0.2827148 0.2827148,-0.2827148 H 25.511507 c 0.155,0 0.282715,0.1277152 0.282715,0.2827148 V 2.5302536e-4 H 42.235629 V -8.2219154 c 0,-0.1549996 0.12818,-0.2827148 0.284179,-0.2827148 h 17.006837 c 0.157,0 0.28418,0.1277152 0.28418,0.2827148 V 2.5302536e-4 H 76.252232 V -8.2219154 c 0,-0.1549996 0.126715,-0.2827148 0.282715,-0.2827148 h 17.008302 c 0.155999,0 0.284179,0.1277152 0.284179,0.2827148 V 2.5302536e-4 H 110.26737 V -8.2219154 c 0,-0.1549996 0.12672,-0.2827148 0.28272,-0.2827148 h 17.0083 c 0.156,0 0.28271,0.1277152 0.28271,0.2827148 V 2.5302536e-4 h 16.44141 V -8.2219154 c 0,-0.1549996 0.12818,-0.2827148 0.28418,-0.2827148 h 17.0083 c 0.155,0 0.28272,0.1277152 0.28272,0.2827148 V 2.5302536e-4 h 8.2207 c 0.15499,0 0.28271,0.12671517464 0.28271,0.28271485464 V 17.00709 h 8.22217 c 0.155,0 0.28272,0.12718 0.28272,0.28418 v 17.006836 c 0,0.156 -0.12772,0.28418 -0.28272,0.28418 h -8.22217 v 16.439942 h 8.22217 c 0.155,0 0.28272,0.128181 0.28272,0.28418 V 68.31471 c 0,0.155998 -0.12772,0.284179 -0.28272,0.284179 h -8.22217 v 16.439943 h 8.22217 c 0.155,0 0.28272,0.128179 0.28272,0.284179 v 17.006839 c 0,0.156 -0.12772,0.28418 -0.28272,0.28418 h -8.22217 v 16.43994 h 8.22217 c 0.155,0 0.28272,0.12918 0.28272,0.28418 v 17.00684 c 0,0.156 -0.12772,0.28418 -0.28272,0.28418 h -8.22217 v 16.72412 c 0,0.156 -0.12772,0.28418 -0.28271,0.28418 h -8.2207 v 8.2207 c 0,0.156 -0.12772,0.28272 -0.28272,0.28272 h -17.0083 c -0.156,0 -0.28418,-0.12672 -0.28418,-0.28272 v -8.2207 H 127.8411 v 8.2207 c 0,0.156 -0.12671,0.28272 -0.28271,0.28272 h -17.0083 c -0.156,0 -0.28272,-0.12672 -0.28272,-0.28272 v -8.2207 H 93.827428 v 8.2207 c 0,0.156 -0.12818,0.28272 -0.284179,0.28272 H 76.534947 c -0.156,0 -0.282715,-0.12672 -0.282715,-0.28272 v -8.2207 H 59.810825 v 8.2207 c 0,0.156 -0.12718,0.28272 -0.28418,0.28272 H 42.519808 c -0.155999,0 -0.284179,-0.12672 -0.284179,-0.28272 v -8.2207 H 25.794222 v 8.2207 c 0,0.156 -0.127715,0.28272 -0.282715,0.28272 z"
       transform="matrix(0.35277776,0,0,-0.35277776,-260.76891,-10.883729)" />
    <path
       d="m 268.60376,218.96906 c -0.0998,0 0,0.0998 0,0 z"
       style="stroke-width:0.567;stroke-linecap:round;stroke-linejoin:round;stroke-miterlimit:11.339"
       id="path62" />
    <path
       d="m 268.60376,213.16942 c 0,-0.10019 -0.0998,0 0,0 z"
       style="stroke-width:0.567;stroke-linecap:round;stroke-linejoin:round;stroke-miterlimit:11.339"
       id="path61" />
    <path
       d="m -178.94456,103.76978 c -0.055,0 -0.10026,0.0447 -0.10026,0.0997 v 2.03606 c 0,0.055 0.0452,0.10025 0.10026,0.10025 h 2.90008 c 0,-0.10019 0.10019,0 0,0 v 5.79964 c 0.10019,0 0,0.0998 0,0 h -2.90008 c -0.055,0 -0.10026,0.0451 -0.10026,0.0997 v 6.00067 c 0,0.0547 0.0452,0.0997 0.10026,0.0997 h 2.90008 c 0,-0.0998 0.10019,0 0,0 v 5.80016 c 0.10019,0 0,0.10019 0,0 h -2.90008 c -0.055,0 -0.10026,0.0447 -0.10026,0.0997 v 6.00015 c 0,0.0547 0.0452,0.0997 0.10026,0.0997 h 2.90008 c 0,-0.0998 0.10019,0 0,0 v 5.80016 c 0.10019,0 0,0.10019 0,0 h -2.90008 c -0.055,0 -0.10026,0.0449 -0.10026,0.10025 v 5.99963 c 0,0.0554 0.0452,0.10026 0.10026,0.10026 h 2.90008 c 0,-0.10019 0.10019,0 0,0 v 5.80016 c 0.10019,0 0,0.0998 0,0 h -2.90008 c -0.055,0 -0.10026,0.0447 -0.10026,0.0997 v 6.00015 c 0,0.055 0.0452,0.0997 0.10026,0.0997 h 2.90008 c 0,-0.0998 0.10019,0 0,0 v 5.80016 c 0.10019,0 0,0.0998 0,0 h -2.90008 c -0.055,0 -0.10026,0.0452 -0.10026,0.10026 v 5.99963 c 0,0.055 0.0452,0.10025 0.10026,0.10025 h 2.90008 c 0,-0.0998 0.10019,0 0,0 v 5.79965 c 0.10019,0 0,0.10019 0,0 h -2.90008 c -0.055,0 -0.10026,0.0449 -0.10026,0.10025 v 2.03605 c 0,0.055 0.0452,0.0997 0.10026,0.0997 h 3.00033 11.99978 c 1.07104,0 2.1232,-0.28168 3.04995,-0.81649 0.9271,-0.53622 1.69707,-1.30636 2.23294,-2.23346 0.51823,-0.89711 1.26192,-1.64219 2.15904,-2.16007 0.89711,-0.51682 1.91551,-0.79013 2.9502,-0.79013 h 9.21598 c 1.0347,0 2.05309,0.27331 2.95021,0.79013 0.89711,0.51788 1.64081,1.26296 2.15904,2.16007 0.53587,0.9271 1.30567,1.69724 2.23242,2.23346 0.9271,0.53481 1.97891,0.81649 3.04994,0.81649 h 12.0003 2.99982 c 0.055,0 0.10025,-0.0447 0.10025,-0.0997 v -2.03605 c 0,-0.0554 -0.0452,-0.10025 -0.10025,-0.10025 h -2.90008 c 0,0.10019 -0.0998,0 0,0 v -5.79965 c -0.0998,0 0,-0.0998 0,0 h 2.90008 c 0.055,0 0.10025,-0.0452 0.10025,-0.10025 v -5.99963 c 0,-0.055 -0.0452,-0.10026 -0.10025,-0.10026 h -2.90008 c 0,0.0998 -0.0998,0 0,0 v -5.80016 c -0.0998,0 0,-0.0998 0,0 h 2.90008 c 0.055,0 0.10025,-0.0447 0.10025,-0.0997 v -6.00015 c 0,-0.055 -0.0452,-0.0997 -0.10025,-0.0997 h -2.90008 c 0,0.0998 -0.0998,0 0,0 v -5.80016 c -0.0998,0 0,-0.10019 0,0 h 2.90008 c 0.055,0 0.10025,-0.0449 0.10025,-0.10026 v -5.99963 c 0,-0.0554 -0.0452,-0.10025 -0.10025,-0.10025 h -2.90008 c 0,0.10019 -0.0998,0 0,0 v -5.80016 c -0.0998,0 0,-0.0998 0,0 h 2.90008 c 0.055,0 0.10025,-0.0451 0.10025,-0.0997 v -6.00015 c 0,-0.055 -0.0452,-0.0997 -0.10025,-0.0997 h -2.90008 c 0,0.10019 -0.0998,0 0,0 v -5.80016 c -0.0998,0 0,-0.0998 0,0 h 2.90008 c 0.055,0 0.10025,-0.0451 0.10025,-0.0997 v -6.00067 c 0,-0.0547 -0.0452,-0.0997 -0.10025,-0.0997 h -2.90008 c 0,0.0998 -0.0998,0 0,0 v -5.79964 c -0.0998,0 0,-0.10019 0,0 h 2.90008 c 0.055,0 0.10025,-0.0452 0.10025,-0.10025 v -2.03606 c 0,-0.055 -0.0452,-0.0997 -0.10025,-0.0997 h -2.99982 -53.9998 z m 9.08626,58.32977 c 0.008,0.005 0.014,0.0168 0.014,0.0419 h 5.80016 c 0,-0.10019 0.0998,0 0,0 v 2.80034 c 0.0998,0 0,0.0998 0,0 h -2.90008 -2.90008 c 0,0.0998 -0.10019,0 0,0 v -2.80034 c -0.0751,0 -0.0374,-0.0559 -0.014,-0.0419 z m 11.99979,0 c 0.008,0.005 0.0139,0.0168 0.0139,0.0419 h 5.80016 c 0,-0.10019 0.0998,0 0,0 v 2.80034 c 0.0998,0 0,0.0998 0,0 h -2.90008 -2.90008 c 0,0.0998 -0.10019,0 0,0 v -2.80034 c -0.0751,0 -0.0374,-0.0559 -0.0139,-0.0419 z m 11.99978,0 c 0.008,0.005 0.0139,0.0168 0.0139,0.0419 h 5.80017 c 0,-0.10019 0.10019,0 0,0 v 2.80034 c 0.10019,0 0,0.0998 0,0 h -2.89957 -2.9006 c 0,0.0998 -0.0998,0 0,0 v -2.80034 c -0.0749,0 -0.0374,-0.0559 -0.0139,-0.0419 z m 12.0003,0 c 0.008,0.005 0.014,0.0168 0.014,0.0419 h 5.80016 c 0,-0.10019 0.0998,0 0,0 v 2.80034 c 0.0998,0 0,0.0998 0,0 h -2.90008 -2.90008 c 0,0.0998 -0.0998,0 0,0 v -2.80034 c -0.0749,0 -0.0374,-0.0559 -0.014,-0.0419 z"
       style="stroke-width:0.567;stroke-linecap:round;stroke-linejoin:round;stroke-miterlimit:11.339"
       id="path60" />
    <path
       id="path22"
       style="stroke-width:0.567;stroke-linecap:round;stroke-linejoin:round;stroke-miterlimit:11.339"
       d="m -330.38843,-5.1104067 c -0.055,0 -0.10025,0.04403 -0.10025,0.09973 v 6.65024 c 0,0.055 0.0452,0.10026 0.10025,0.10026 h 2.90008 v 5.79964 h -2.90008 c -0.055,0 -0.10025,0.0442 -0.10025,0.10025 v 6.0001497 c 0,0.0547 0.0452,0.09974 0.10025,0.09974 h 2.90008 v 5.80016 h -2.90008 c -0.055,0 -0.10025,0.0442 -0.10025,0.10026 v 1.52962 5.32009 l 5.2e-4,14.00018 c 0,0.0547 0.0451,0.09973 0.0997,0.09973 h 2.90008 v 5.80016 h -2.90008 c -0.0547,0 -0.0997,0.0452 -0.0997,0.10026 v 5.99963 c 0,0.055 0.0451,0.10025 0.0997,0.10025 h 2.90008 v 5.79965 h -2.90008 c -0.0547,0 -0.0997,0.04473 -0.0997,0.09973 l -5.2e-4,16.5468 h 5.2e-4 v 0.6537 c 0,0.0554 0.0451,0.09974 0.0997,0.09974 h 2.90008 v 5.80016 h -2.90008 c -0.0547,0 -0.0997,0.04474 -0.0997,0.09974 v 6.00015 c 0,0.055 0.0451,0.09973 0.0997,0.09973 h 2.90008 v 5.80068 h -2.90008 c -0.0547,0 -0.0997,0.04371 -0.0997,0.09871 v 6.00015 c 0,0.055 0.0451,0.10077 0.0997,0.10077 h 2.90008 v 5.799117 h -2.90008 c -0.0547,0 -0.0997,0.0441 -0.0997,0.0987 v 6.00015 c 0,0.055 0.0451,0.10025 0.0997,0.10025 h 2.90008 v 5.79965 h -2.90008 c -0.0547,0 -0.0997,0.0456 -0.0997,0.10025 v 6.00015 c 0,0.0547 0.0451,0.0997 0.0997,0.0997 h 2.90008 v 5.79965 h -2.90008 c -0.0547,0 -0.0997,0.0454 -0.0997,0.10077 v 5.99963 c 0,0.055 0.0451,0.10025 0.0997,0.10025 h 2.90008 v 5.79965 h -2.90008 c -0.0547,0 -0.0997,0.0452 -0.0997,0.10025 v 5.99964 c 0,0.0547 0.0451,0.10025 0.0997,0.10025 h 2.90008 v 5.80016 h -2.90008 c -0.0547,0 -0.0997,0.0442 -0.0997,0.0992 v 6.00015 c 0,0.055 0.0451,0.0997 0.0997,0.0997 h 2.90008 v 5.80016 h -2.90008 c -0.0547,0 -0.0997,0.0447 -0.0997,0.0997 v 3.00034 c 0,0.0554 0.0451,0.0997 0.0997,0.0997 h 2.99982 12.0003 c 1.07103,0 2.12284,-0.28183 3.04994,-0.817 0.92675,-0.53587 1.69707,-1.30584 2.23294,-2.23294 0.51823,-0.8971 1.26193,-1.64184 2.15904,-2.16007 0.89711,-0.51682 1.91516,-0.78962 2.95021,-0.78962 h 9.21597 c 1.0347,0 2.05258,0.2728 2.9497,0.78962 0.89705,0.51823 1.64081,1.26297 2.15904,2.16007 0.53622,0.9271 1.30584,1.69707 2.23294,2.23294 0.92669,0.53517 1.97947,0.817 3.05045,0.817 h 11.99979 2.99982 c 0.055,0 0.10025,-0.0444 0.10025,-0.0997 v -3.00034 c 0,-0.055 -0.0452,-0.0997 -0.10025,-0.0997 h -2.89957 v -5.80016 h 2.89957 c 0.055,0 0.10025,-0.0447 0.10025,-0.0997 v -6.00015 c 0,-0.055 -0.0452,-0.0992 -0.10025,-0.0992 h -2.89957 v -5.80016 h 2.89957 c 0.055,0 0.10025,-0.0456 0.10025,-0.10025 v -5.99964 c 0,-0.055 -0.0452,-0.10025 -0.10025,-0.10025 h -2.89957 v -5.7981 h 2.89957 c 0.055,0 0.10025,-0.0452 0.10025,-0.10025 v -5.99963 c 0,-0.0554 -0.0452,-0.10077 -0.10025,-0.10077 h -2.89957 v -5.79965 h 2.89957 c 0.055,0 0.10025,-0.0451 0.10025,-0.0997 v -6.00015 c 0,-0.0547 -0.0452,-0.10025 -0.10025,-0.10025 h -2.89957 v -5.79965 h 2.89957 c 0.055,0 0.10025,-0.0452 0.10025,-0.10025 v -6.00015 c 0,-0.0547 -0.0452,-0.0997 -0.10025,-0.0997 h -2.89957 v -5.799637 h 2.89957 c 0.055,0 0.10025,-0.0452 0.10025,-0.10026 v -6.00015 c 0,-0.055 -0.0452,-0.09922 -0.10025,-0.09922 h -2.89957 v -5.80068 h 2.89957 c 0.055,0 0.10025,-0.04473 0.10025,-0.09973 v -6.00015 c 0,-0.055 -0.0452,-0.09974 -0.10025,-0.09974 h -2.89957 v -5.80016 h 2.99982 v -17.39946 h -2.90112 -0.0992 v -5.80067 h 0.0992 2.90112 0.0791 v -6.19963 h -0.0791 -2.90112 v -5.80016 h 2.90112 v -21.04988 h -3.00034 v -5.80016 h 3.00034 V 7.5394633 h -3.00034 v -5.79964 h 3.00034 v -6.84972 h -3.10007 -6.00015 c -0.055,0 -0.10025,0.04352 -0.10025,0.09922 v 2.9006 h -5.79965 v -2.9006 c 0,-0.0557 -0.0452,-0.09922 -0.10025,-0.09922 h -5.99964 c -0.055,0 -0.10025,0.04352 -0.10025,0.09922 v 2.9006 h -5.79964 v -2.9006 c 0,-0.0557 -0.0451,-0.09922 -0.0997,-0.09922 h -6.00015 c -0.055,0 -0.10025,0.04352 -0.10025,0.09922 v 2.9006 h -5.80017 v -2.9006 c 0,-0.0557 -0.0452,-0.09922 -0.10025,-0.09922 h -6.00015 c -0.0547,0 -0.0997,0.04352 -0.0997,0.09922 v 2.9006 h -5.79965 v -2.9006 c 0,-0.0557 -0.0449,-0.09922 -0.10025,-0.09922 h -5.99964 z m 9.10022,161.9999267 h 5.80016 v 2.80034 h -2.90059 -2.89957 z m 11.99978,0 h 5.80017 v 2.80034 h -2.90008 -2.90009 z m 12.00031,0 h 5.79964 v 2.80034 h -2.89956 -2.90008 z m 11.99978,0 h 5.80016 v 2.80034 h -2.90008 -2.90008 z" />
    <path
       d="m 338.20881,170.80559 v -5.80067 h -0.0992 v 5.80067 z"
       style="fill:#ffffff;stroke-width:0.567;stroke-linecap:round;stroke-linejoin:round;stroke-miterlimit:11.339"
       id="path16" />
    <path
       id="path55"
       clip-path="url(#clipPath56)"
       style="fill:#000000;fill-opacity:1;stroke:none;stroke-width:0.567;stroke-linecap:round;stroke-linejoin:round;stroke-miterlimit:11.339;stroke-dasharray:none;stroke-opacity:1"
       d="m -170.37252,48.797116 c -0.156,0 -0.28418,-0.126715 -0.28418,-0.282715 V 40.009518 23.906489 c 0,-0.157999 0.12818,-0.284179 0.28418,-0.284179 h 8.21924 V 7.1823674 h -8.21924 c -0.156,0 -0.28418,-0.12818 -0.28418,-0.2841797 l 0.0103,-6.89794954177 V -8.5046451 c 0,-0.1589997 0.12818,-0.2827148 0.28418,-0.2827148 h 8.50488 153.0703218 8.50341845 c 0.15499968,0 0.28417969835,0.1237151 0.28417969835,0.2827148 V 2.3815823e-4 L -0.0111788,6.8981877 c 0,0.1559997 -0.12818002,0.2841797 -0.2841797,0.2841797 H -8.5145972 V 23.62231 h 8.2192387 c 0.15599968,0 0.2841797,0.12618 0.2841797,0.284179 v 16.103029 8.504883 c 0,0.156 -0.12818002,0.282715 -0.2841797,0.282715 H -8.7987769 -161.8691 Z"
       transform="matrix(0.35277776,0,0,-0.35277776,-125.48144,13.620204)" />
    <path
       id="path83"
       clip-path="url(#clipPath84-5)"
       style="fill:#000000;fill-opacity:1;stroke:none;stroke-width:0.567;stroke-linecap:round;stroke-linejoin:round;stroke-miterlimit:11.339;stroke-dasharray:none;stroke-opacity:1"
       d="m 0.28364306,8.7868707 c -0.15599969,0 -0.28417970496,-0.1247151 -0.28417970496,-0.2827149 V -7.2742991e-4 L -0.01079055,-9.6862748 c 0,-0.1549997 0.12818002,-0.2841797 0.2841797,-0.2841797 H 8.4926278 V -26.410397 H 0.27338915 c -0.15599968,0 -0.2841797,-0.12518 -0.2841797,-0.284179 v -17.006837 c 0,-0.156 0.12818002,-0.28418 0.2841797,-0.28418 H 8.4926278 V -60.427 H 0.27338915 c -0.15599968,0 -0.2841797,-0.123715 -0.2841797,-0.282715 v -18.890626 -8.503418 c 0,-0.159 0.12818002,-0.28418 0.2841797,-0.28418 H 8.7768075 161.84713 h 8.50488 c 0.155,0 0.28272,0.12518 0.28272,0.28418 v 8.503418 18.890626 c 0,0.159 -0.12818,0.282715 -0.28418,0.282715 h -8.21924 v 16.441407 h 8.21924 c 0.156,0 0.28418,0.12918 0.28418,0.28418 v 17.006837 c 0,0.158999 -0.12818,0.284179 -0.28418,0.284179 h -8.21924 v 16.4399425 h 8.21924 c 0.156,0 0.28418,0.12918 0.28418,0.2841797 l 0.0117,9.68554737009 V 8.5041558 c 0,0.1589998 -0.12771,0.2827149 -0.28271,0.2827149 H 161.85885 8.7885263 Z"
       transform="matrix(0.35277776,0,0,-0.35277776,-180.59076,67.797545)" />
    <path
       d="m -136.94716,-16.821165 v 1.45934 h 1.45521 v -1.45934 z"
       style="stroke-width:0.567;stroke-linecap:round;stroke-linejoin:round;stroke-miterlimit:11.339"
       id="path59" />
    <path
       d="m -161.98491,-16.821165 v 1.45934 h 1.45521 v -1.45934 z"
       style="stroke-width:0.567;stroke-linecap:round;stroke-linejoin:round;stroke-miterlimit:11.339"
       id="path58" />
    <path
       d="m -185.0512,-23.854845 c -0.055,0 -0.0997,0.0447 -0.0997,0.0997 v 5.03587 c 0,0.055 0.0447,0.10025 0.0997,0.10025 h 2.90008 v 5.80017 h -2.90008 c -0.055,0 -0.0997,0.0447 -0.0997,0.0997 v 5.0358699 c 0,0.0547 0.0447,0.10025 0.0997,0.10025 h 3.00033 53.99929 2.99982 c 0.0554,0 0.10025,-0.0456 0.10025,-0.10025 v -5.0358699 c 0,-0.055 -0.0449,-0.0997 -0.10025,-0.0997 h -2.89905 v -5.80017 h 2.89905 c 0.0554,0 0.10025,-0.0452 0.10025,-0.10025 v -5.03587 c 0,-0.055 -0.0449,-0.0997 -0.10025,-0.0997 h -2.99982 -5.99963 c -0.0554,0 -0.10026,0.0447 -0.10026,0.0997 v 2.90009 h -5.79964 v -2.90009 c 0,-0.055 -0.0447,-0.0997 -0.0997,-0.0997 h -6.00015 c -0.055,0 -0.10025,0.0447 -0.10025,0.0997 v 2.90009 h -5.80016 v -2.90009 c 0,-0.055 -0.0447,-0.0997 -0.0997,-0.0997 h -6.00015 c -0.055,0 -0.0997,0.0447 -0.0997,0.0997 v 2.90009 h -5.79965 v -2.90009 c 0,-0.055 -0.0452,-0.0997 -0.10025,-0.0997 h -6.00067 c -0.055,0 -0.0992,0.0447 -0.0992,0.0997 v 2.90009 h -5.80016 v -2.90009 c 0,-0.055 -0.0452,-0.0997 -0.10025,-0.0997 h -5.99964 z"
       style="stroke-width:0.567;stroke-linecap:round;stroke-linejoin:round;stroke-miterlimit:11.339"
       id="path32" />
    <path
       d="m -138.48919,-18.363195 v 7.5489 h 1.54203 v -3.0055 h 1.45521 v 3.0055 h 1.54254 v -3.04685 h -0.74879 v -0.71106 h 0.74879 v -3.03858 -0.75241 h -0.74879 z m 1.54203,1.54203 h 1.45521 v 1.45934 h -1.45521 z"
       style="fill:#ffffff;stroke-width:0.352778"
       id="path57" />
    <path
       d="m -144.18651,-18.363195 v 7.5489 h 3.79046 v -1.5503 h -2.24896 v -1.4552 h 2.24896 v -1.54203 h -2.24896 v -1.45934 h 2.24896 v -1.54203 z"
       style="fill:#ffffff;stroke-width:0.352778"
       id="path38" />
    <path
       d="m -150.63418,-18.363195 v 7.5489 h 1.54254 v -3.0055 h 1.45521 v 3.0055 h 1.54151 v -3.04685 h -0.74776 v -1.45934 h 0.74776 v -3.04271 h -1.54151 v 3.00137 h -1.45521 v -3.00137 z"
       style="fill:#ffffff;stroke-width:0.352778"
       id="path37" />
    <path
       d="m -156.33151,-18.363195 v 0.0248 h -0.70693 v 0.7276 h -0.0413 v 6.03994 0.75655 h 0.74827 3.04271 v -0.0248 h 0.74828 v -0.73174 -0.0165 -2.27377 h -1.54203 v 1.49655 h -1.45521 v -4.45657 h 1.45521 v 1.50068 h 1.54203 v -2.2903 -0.7276 h -0.74828 v -0.0248 z"
       style="fill:#ffffff;stroke-width:0.352778"
       id="path36" />
    <path
       d="m -163.52745,-18.363195 v 7.5489 h 1.54254 v -3.0055 h 1.45521 v 3.0055 h 1.54202 v -7.5489 z m 1.54254,1.54203 h 1.45521 v 1.45934 h -1.45521 z"
       style="fill:#ffffff;stroke-width:0.352778"
       id="path35" />
    <path
       d="m -169.97409,-18.363195 v 1.54203 h 1.50069 v 6.00687 h 1.54202 v -6.00687 h 1.49655 v -1.54203 z"
       style="fill:#ffffff;stroke-width:0.352778"
       id="path34" />
    <path
       d="m -175.67348,-18.363195 v 0.0248 h -0.70642 v 0.7276 h -0.0413 v 3.03858 0.75241 h 0.74828 2.24896 v 1.4552 h -2.99724 v 1.5503 h 3.79099 v -0.0248 h 0.74827 v -0.73174 -3.0427 -0.74828 h -0.74827 -2.24896 v -1.45934 h 2.99723 v -1.54203 z"
       style="fill:#ffffff;stroke-width:0.352778"
       id="path33" />
    <path
       id="path5"
       clip-path="url(#clipPath70-8)"
       style="fill:#000000;fill-opacity:1;stroke:none;stroke-width:0.567;stroke-linecap:round;stroke-linejoin:round;stroke-miterlimit:11.339;stroke-dasharray:none;stroke-opacity:1"
       d="m 0.28389722,220.53544 v -18.8628 h -0.0600586 z m 0,0 c -0.15599985,0 -0.28417970648,-0.12818 -0.28417970648,-0.28418 v -18.5669 H -8.220986 c -0.1559999,0 -0.2827149,-0.12671 -0.2827149,-0.28271 v -17.0083 c 0,-0.156 0.126715,-0.28272 0.2827149,-0.28272 H -2.8248648e-4 V 167.66922 H -8.220986 c -0.1559999,0 -0.2827149,-0.12818 -0.2827149,-0.28418 v -17.00683 c 0,-0.155 0.126715,-0.28418 0.2827149,-0.28418 h 8.22070351352 v -19.13379 l 0.0600585965,19.1543 c 0.01516302,0.006 0.03971668,0.008 0.046875,0.0161 H 0.28389722 V 91.444611 H 0.06856517 c 0.06034777,0.0089 0.1132573,0.114257 -0.0688476565,0.114257 0,-0.06738 0.0173866565,-0.09959 0.0380859365,-0.114257 H -2.824865e-4 v 0.114257 H -8.2195212 c -0.1559998,0 -0.2841797,-0.126715 -0.2841797,-0.282715 V 74.267852 c 0,-0.156 0.1281799,-0.282715 0.2841797,-0.282715 h 8.21923871352 v 0.01172 H 0.00411204 c -3.4168e-4,-0.0064 -0.004394526,-0.0046 -0.004394526,-0.01172 0.020805556,0 0.020112496,0.009 0.035156246,0.01172 h 0.24902346 v -16.50586 h -0.1669922 c -0.006105,0.02802 -0.03222674,0.05273 -0.11718750598,0.05273 0,-0.03121 0.011849816,-0.03411 0.017578126,-0.05273 h -0.017578126 v 0.05273 H -8.2195212 c -0.1559998,0 -0.2841797,-0.12718 -0.2841797,-0.28418 V 40.252713 c 0,-0.156999 0.1281799,-0.284179 0.2841797,-0.284179 h 8.21923871352 v 0.07324 H 0.02315501 c -0.01013319,-0.01991 -0.0234374965,-0.03007 -0.0234374965,-0.07324 0.1066453165,0 0.1212201265,0.03826 0.1127929765,0.07324 H 0.28389722 V -8.2878164 H 0.11397533 c 0.003143,0.031253 -0.01792115,0.061116 -0.10546875,0.064453 L -2.8248648e-4,2.6997418e-4 V -8.2204336 H -8.2195212 c -0.1559998,0 -0.2841797,-0.1281798 -0.2841797,-0.2841797 V -25.51145 c 0,-0.156 0.1281799,-0.28418 0.2841797,-0.28418 H -2.8248648e-4 V -42.235572 H -8.2195212 c -0.1559998,0 -0.2841797,-0.12818 -0.2841797,-0.28418 v -17.006836 c 0,-0.157 0.1281799,-0.28418 0.2841797,-0.28418 H -2.8248648e-4 V -76.246316 H -2.3835834 v -0.0059 h -5.8359378 c -0.1559998,0 -0.2841797,-0.127715 -0.2841797,-0.282715 v -17.008302 c 0,-0.156 0.1281799,-0.284179 0.2841797,-0.284179 H -2.8248648e-4 V -110.26731 H -8.2195212 c -0.1559998,0 -0.2841797,-0.12918 -0.2841797,-0.28418 v -17.00684 c 0,-0.156 0.1281799,-0.28418 0.2841797,-0.28418 h 8.21923871352 v -16.43994 H -8.2195212 c -0.1559998,0 -0.2841797,-0.12818 -0.2841797,-0.28418 v -17.0083 c 0,-0.155 0.1281799,-0.28272 0.2841797,-0.28272 h 5.0976565 v -0.007 l 3.12158221352,-10e-4 v -16.43262 H -8.2195212 c -0.1559998,0 -0.2841797,-0.12818 -0.2841797,-0.28418 v -17.0083 c 0,-0.155 0.1281799,-0.28271 0.2841797,-0.28271 h 5.2104495 v -0.0249 h 3.00878921352 v -16.41651 H -8.2195212 c -0.1559998,0 -0.2841797,-0.12571 -0.2841797,-0.28271 v -17.00831 c 0,-0.156 0.1281799,-0.28271 0.2841797,-0.28271 h 5.9150394 v -0.0293 h 2.30419931352 v -16.4129 H -8.2195212 c -0.1559998,0 -0.2841797,-0.12671 -0.2841797,-0.28271 v -17.0083 c 0,-0.156 0.1281799,-0.28272 0.2841797,-0.28272 h 5.1650393 v -0.0234 h 3.05419941352 v -8.19873 c 0,-0.156 0.12817985648,-0.28271 0.28417970648,-0.28271 l -0.008789,8.48144 h 0.008789 v -8.48144 H 35.867883 l -0.04541,0.10107 c 2.502868,0.22174 4.937167,0.95397 7.122071,2.21485 2.627997,1.51999 4.810592,3.70305 6.32959,6.33105 1.467999,2.542 3.57712,4.65405 6.120118,6.12305 2.542997,1.464 5.429796,2.23828 8.362793,2.23828 h 68.644045 c 2.934,0 5.81933,-0.77428 8.36133,-2.23828 2.543,-1.469 4.65212,-3.58105 6.12012,-6.12305 1.52,-2.628 3.70159,-4.81106 6.32959,-6.33105 2.62799,-1.516 5.61097,-2.31592 8.64697,-2.31592 h 34.01514 c 0.157,0 0.28418,0.12671 0.28418,0.28271 v 5.48877 h 8.21924 c 0.156,0 0.28418,0.12718 0.28418,0.28418 v 17.00684 c 0,0.157 -0.12818,0.28418 -0.28418,0.28418 h -8.21924 v 16.43994 h 8.21924 c 0.156,0 0.28418,0.12818 0.28418,0.28418 v 17.00684 c 0,0.156 -0.12818,0.28418 -0.28418,0.28418 h -8.21924 v 16.4414 h 8.21924 c 0.156,0 0.28418,0.12672 0.28418,0.28272 v 17.0083 c 0,0.156 -0.12818,0.28272 -0.28418,0.28272 h -8.21924 v 16.4414 h 8.21924 c 0.156,0 0.28418,0.12818 0.28418,0.28418 v 17.00684 c 0,0.157 -0.12818,0.28564 -0.28418,0.28564 h -8.21924 v 16.43995 h 8.21924 c 0.156,0 0.28418,0.12771 0.28418,0.28271 v 17.0083 c 0,0.156 -0.12818,0.28272 -0.28418,0.28272 h -8.21924 v 16.441405 h 8.21924 c 0.156,0 0.28418,0.127715 0.28418,0.282715 v 17.009766 c 0,0.155 -0.12818,0.282715 -0.28418,0.282715 h -8.21924 v 5.487305 5.465332 c 0,0.067 -0.0239,0.131106 -0.0659,0.183106 l -11.96191,14.25293 6.29443,5.285157 c 0.122,0.101 0.13709,0.280902 0.0381,0.399902 l -10.9336,13.029786 c -0.102,0.118 -0.2809,0.133691 -0.3999,0.03369 l -6.29736,-5.283691 -10.56885,12.594727 6.29883,5.283691 c 0.119,0.1 0.13669,0.277903 0.0337,0.399903 l -10.9336,13.0283208 c -0.099,0.1189999 -0.27697,0.1356913 -0.39697,0.033691 L 150.96803,-14.07391 139.00611,0.18194921 c 0.156,0 -0.008,0.22848212 0,0.38525392 V 9.0720478 39.968534 h 8.6792 c 0.156,0 0.28272,0.126715 0.28272,0.282715 V 57.25955 c 0,0.156 -0.12672,0.282715 -0.28272,0.282715 h -8.6792 v 16.442872 h 8.6792 c 0.156,0 0.28272,0.126715 0.28272,0.282715 v 17.008301 c 0,0.156 -0.12672,0.282715 -0.28272,0.282715 h -8.6792 v 30.897952 8.50342 c 0,0.12461 0.0552,0.29186 0,0.35595 v 0.10108 l 10.10742,12.04687 6.2959,-5.28369 c 0.121,-0.102 0.30091,-0.0853 0.39991,0.0337 l 10.93359,13.02833 c 0.102,0.12199 0.0853,0.3009 -0.0337,0.3999 l -6.29883,5.28369 10.17041,12.12158 c 0.042,0.051 0.0644,0.11218 0.0644,0.18018 v 5.46533 13.99219 h 8.22071 c 0.156,0 0.28418,0.12818 0.28418,0.28418 v 17.00683 c 0,0.157 -0.12818,0.28418 -0.28418,0.28418 h -8.22071 v 13.99219 c 0,0.156 -0.12771,0.28272 -0.28271,0.28272 h -8.50342 c -0.156,0 -0.28418,-0.12672 -0.28418,-0.28272 v -8.22217 h -16.44141 v 8.22217 c 0,0.156 -0.12671,0.28272 -0.28271,0.28272 h -17.0083 c -0.156,0 -0.28418,-0.12672 -0.28418,-0.28272 v -8.22217 h -16.43994 v 8.22217 c 0,0.156 -0.12818,0.28272 -0.28418,0.28272 H 93.827359 c -0.156,0 -0.28418,-0.12672 -0.28418,-0.28272 v -8.22217 H 77.103237 v 8.22217 c 0,0.156 -0.12818,0.28272 -0.28418,0.28272 H 59.810756 c -0.156,0 -0.282715,-0.12672 -0.282715,-0.28272 v -8.22217 H 43.086634 v 8.22217 c 0,0.156 -0.12818,0.28272 -0.28418,0.28272 H 25.795617 c -0.156,0 -0.284179,-0.12672 -0.284179,-0.28272 v -8.22217 H 9.0714953 v 8.50489 z M 0.16817455,184.22342 H 0.28389722 V 167.57987 H 0.11544018 v 0.0308 c -5.0439e-4,0.008 0.004894,0.0134 0,0.0205 z M 0.00850658,-8.2468008 c 0.00243888,-0.019023 0.00783016,-0.029002 0.01318359,-0.041016 H 0.00850658 Z M 0.11690502,-25.737036 h 0.1669922 V -42.354224 H 0.04366283 c 0.05835265,-0.02672 0.12034832,0.07529 0,0.104004 L 0.0260847,-25.786841 c 0.05867131,0.0074 0.08821623,0.0252 0.09082032,0.0498 z M 0.0627058,-59.803444 H 0.28389722 V -76.246316 H 0.07881908 Z M 0.09786205,-93.694071 H 0.28389722 V -110.33323 H 0.11544018 c 6.1586e-4,0.01 0.006168,0.0174 0,0.0264 l -0.01757813,16.51318 c 0.02867529,0.02641 0.02601889,0.05473 0,0.07471 z M 0.1330183,-127.78245 h 0.15087892 v -16.63477 H 0.15059643 Z m 0.0366211,-34.08399 h 0.11425782 v -16.58349 h -0.0981445 z m 0.0351563,-34.03271 h 0.0791016 v -16.57178 H 0.220909 Z m 0.0351563,-34.01954 h 0.0439453 v -16.56006 H 0.2575301 Z"
       transform="matrix(0.35277776,0,0,-0.35277776,-262.54736,76.776457)" />
  </g>
</svg>
