<?xml version="1.0" encoding="UTF-8" standalone="no"?>
<!-- Created with Inkscape (http://www.inkscape.org/) -->

<svg
   width="210mm"
   height="297mm"
   viewBox="0 0 210 297"
   version="1.1"
   id="svg1"
   sodipodi:docname="mdf_arcade_stacker_002.svg"
   inkscape:version="1.3 (0e150ed6c4, 2023-07-21)"
   xmlns:inkscape="http://www.inkscape.org/namespaces/inkscape"
   xmlns:sodipodi="http://sodipodi.sourceforge.net/DTD/sodipodi-0.dtd"
   xmlns="http://www.w3.org/2000/svg"
   xmlns:svg="http://www.w3.org/2000/svg">
  <sodipodi:namedview
     id="namedview1"
     pagecolor="#ffffff"
     bordercolor="#000000"
     borderopacity="0.25"
     inkscape:showpageshadow="2"
     inkscape:pageopacity="0.0"
     inkscape:pagecheckerboard="0"
     inkscape:deskcolor="#d1d1d1"
     inkscape:document-units="mm"
     inkscape:zoom="0.48907828"
     inkscape:cx="286.25274"
     inkscape:cy="765.72609"
     inkscape:window-width="1366"
     inkscape:window-height="745"
     inkscape:window-x="-8"
     inkscape:window-y="-8"
     inkscape:window-maximized="1"
     inkscape:current-layer="layer1"
     showgrid="false" />
  <defs
     id="defs1">
    <clipPath
       clipPathUnits="userSpaceOnUse"
       id="clipPath40">
      <path
         d="M 0,841.89 H 1190.551 V 0 H 0 Z"
         transform="translate(-663.65432,-318.58311)"
         id="path40" />
    </clipPath>
    <clipPath
       clipPathUnits="userSpaceOnUse"
       id="clipPath50">
      <path
         d="M 0,841.89 H 1190.551 V 0 H 0 Z"
         transform="translate(-834.2998,-448.97621)"
         id="path50" />
    </clipPath>
    <clipPath
       clipPathUnits="userSpaceOnUse"
       id="clipPath52">
      <path
         d="M 0,841.89 H 1190.551 V 0 H 0 Z"
         transform="translate(-663.65432,-448.97621)"
         id="path52" />
    </clipPath>
    <clipPath
       clipPathUnits="userSpaceOnUse"
       id="clipPath54">
      <path
         d="M 0,841.89 H 1190.551 V 0 H 0 Z"
         transform="translate(-834.2998,-318.01571)"
         id="path54" />
    </clipPath>
    <clipPath
       clipPathUnits="userSpaceOnUse"
       id="clipPath48">
      <path
         d="M 0,841.89 H 1190.551 V 0 H 0 Z"
         transform="translate(-800.00102,-71.401502)"
         id="path48" />
    </clipPath>
    <clipPath
       clipPathUnits="userSpaceOnUse"
       id="clipPath46">
      <path
         d="M 0,841.89 H 1190.551 V 0 H 0 Z"
         transform="translate(-765.98544,-71.401502)"
         id="path46" />
    </clipPath>
    <clipPath
       clipPathUnits="userSpaceOnUse"
       id="clipPath44">
      <path
         d="M 0,841.89 H 1190.551 V 0 H 0 Z"
         transform="translate(-731.96872,-71.401502)"
         id="path44" />
    </clipPath>
    <clipPath
       clipPathUnits="userSpaceOnUse"
       id="clipPath42">
      <path
         d="M 0,841.89 H 1190.551 V 0 H 0 Z"
         transform="translate(-697.95311,-71.401502)"
         id="path42" />
    </clipPath>
    <clipPath
       clipPathUnits="userSpaceOnUse"
       id="clipPath70">
      <path
         d="M 0,841.89 H 1190.551 V 0 H 0 Z"
         transform="translate(-252.13821,-318.01571)"
         id="path70" />
    </clipPath>
    <clipPath
       clipPathUnits="userSpaceOnUse"
       id="clipPath72">
      <path
         d="M 0,841.89 H 1190.551 V 0 H 0 Z"
         transform="translate(-252.4219,-45.606601)"
         id="path72" />
    </clipPath>
    <clipPath
       clipPathUnits="userSpaceOnUse"
       id="clipPath74">
      <path
         d="M 0,841.89 H 1190.551 V 0 H 0 Z"
         transform="translate(-252.13821,-448.97621)"
         id="path74" />
    </clipPath>
    <clipPath
       clipPathUnits="userSpaceOnUse"
       id="clipPath76">
      <path
         d="M 0,841.89 H 1190.551 V 0 H 0 Z"
         transform="translate(-391.14361,-318.19741)"
         id="path76" />
    </clipPath>
    <clipPath
       clipPathUnits="userSpaceOnUse"
       id="clipPath78">
      <path
         d="M 0,841.89 H 1190.551 V 0 H 0 Z"
         transform="translate(-391.08401,-449.36191)"
         id="path78" />
    </clipPath>
    <clipPath
       clipPathUnits="userSpaceOnUse"
       id="clipPath80">
      <path
         d="M 0,841.89 H 1190.551 V 0 H 0 Z"
         transform="translate(-252.4219,-538.55141)"
         id="path80" />
    </clipPath>
    <clipPath
       clipPathUnits="userSpaceOnUse"
       id="clipPath68">
      <path
         d="M 0,841.89 H 1190.551 V 0 H 0 Z"
         transform="translate(-435.25631,-71.401502)"
         id="path68" />
    </clipPath>
    <clipPath
       clipPathUnits="userSpaceOnUse"
       id="clipPath66">
      <path
         d="M 0,841.89 H 1190.551 V 0 H 0 Z"
         transform="translate(-401.24071,-71.401502)"
         id="path66" />
    </clipPath>
    <clipPath
       clipPathUnits="userSpaceOnUse"
       id="clipPath64">
      <path
         d="M 0,841.89 H 1190.551 V 0 H 0 Z"
         transform="translate(-367.22511,-71.401502)"
         id="path64" />
    </clipPath>
    <clipPath
       clipPathUnits="userSpaceOnUse"
       id="clipPath62">
      <path
         d="M 0,841.89 H 1190.551 V 0 H 0 Z"
         transform="translate(-333.20901,-71.401502)"
         id="path62" />
    </clipPath>
    <clipPath
       clipPathUnits="userSpaceOnUse"
       id="clipPath60">
      <path
         d="M 0,841.89 H 1190.551 V 0 H 0 Z"
         transform="translate(-299.1934,-71.401502)"
         id="path60" />
    </clipPath>
    <clipPath
       clipPathUnits="userSpaceOnUse"
       id="clipPath58">
      <path
         d="M 0,841.89 H 1190.551 V 0 H 0 Z"
         transform="translate(-265.17771,-71.401502)"
         id="path58" />
    </clipPath>
    <clipPath
       clipPathUnits="userSpaceOnUse"
       id="clipPath70-5">
      <path
         d="M 0,841.89 H 1190.551 V 0 H 0 Z"
         transform="translate(-252.13821,-318.01571)"
         id="path70-6" />
    </clipPath>
    <clipPath
       clipPathUnits="userSpaceOnUse"
       id="clipPath72-0">
      <path
         d="M 0,841.89 H 1190.551 V 0 H 0 Z"
         transform="translate(-252.4219,-45.606601)"
         id="path72-3" />
    </clipPath>
    <clipPath
       clipPathUnits="userSpaceOnUse"
       id="clipPath74-0">
      <path
         d="M 0,841.89 H 1190.551 V 0 H 0 Z"
         transform="translate(-252.13821,-448.97621)"
         id="path74-0" />
    </clipPath>
    <clipPath
       clipPathUnits="userSpaceOnUse"
       id="clipPath76-4">
      <path
         d="M 0,841.89 H 1190.551 V 0 H 0 Z"
         transform="translate(-391.14361,-318.19741)"
         id="path76-6" />
    </clipPath>
    <clipPath
       clipPathUnits="userSpaceOnUse"
       id="clipPath78-5">
      <path
         d="M 0,841.89 H 1190.551 V 0 H 0 Z"
         transform="translate(-391.08401,-449.36191)"
         id="path78-4" />
    </clipPath>
    <clipPath
       clipPathUnits="userSpaceOnUse"
       id="clipPath80-2">
      <path
         d="M 0,841.89 H 1190.551 V 0 H 0 Z"
         transform="translate(-252.4219,-538.55141)"
         id="path80-2" />
    </clipPath>
    <clipPath
       clipPathUnits="userSpaceOnUse"
       id="clipPath68-2">
      <path
         d="M 0,841.89 H 1190.551 V 0 H 0 Z"
         transform="translate(-435.25631,-71.401502)"
         id="path68-6" />
    </clipPath>
    <clipPath
       clipPathUnits="userSpaceOnUse"
       id="clipPath66-2">
      <path
         d="M 0,841.89 H 1190.551 V 0 H 0 Z"
         transform="translate(-401.24071,-71.401502)"
         id="path66-6" />
    </clipPath>
    <clipPath
       clipPathUnits="userSpaceOnUse"
       id="clipPath64-4">
      <path
         d="M 0,841.89 H 1190.551 V 0 H 0 Z"
         transform="translate(-367.22511,-71.401502)"
         id="path64-0" />
    </clipPath>
    <clipPath
       clipPathUnits="userSpaceOnUse"
       id="clipPath62-9">
      <path
         d="M 0,841.89 H 1190.551 V 0 H 0 Z"
         transform="translate(-333.20901,-71.401502)"
         id="path62-3" />
    </clipPath>
    <clipPath
       clipPathUnits="userSpaceOnUse"
       id="clipPath60-8">
      <path
         d="M 0,841.89 H 1190.551 V 0 H 0 Z"
         transform="translate(-299.1934,-71.401502)"
         id="path60-3" />
    </clipPath>
    <clipPath
       clipPathUnits="userSpaceOnUse"
       id="clipPath58-9">
      <path
         d="M 0,841.89 H 1190.551 V 0 H 0 Z"
         transform="translate(-265.17771,-71.401502)"
         id="path58-5" />
    </clipPath>
    <clipPath
       clipPathUnits="userSpaceOnUse"
       id="clipPath68-29">
      <path
         d="M 0,841.89 H 1190.551 V 0 H 0 Z"
         transform="translate(-435.25631,-71.401502)"
         id="path68-4" />
    </clipPath>
    <clipPath
       clipPathUnits="userSpaceOnUse"
       id="clipPath66-29">
      <path
         d="M 0,841.89 H 1190.551 V 0 H 0 Z"
         transform="translate(-401.24071,-71.401502)"
         id="path66-1" />
    </clipPath>
    <clipPath
       clipPathUnits="userSpaceOnUse"
       id="clipPath64-3">
      <path
         d="M 0,841.89 H 1190.551 V 0 H 0 Z"
         transform="translate(-367.22511,-71.401502)"
         id="path64-6" />
    </clipPath>
    <clipPath
       clipPathUnits="userSpaceOnUse"
       id="clipPath62-6">
      <path
         d="M 0,841.89 H 1190.551 V 0 H 0 Z"
         transform="translate(-333.20901,-71.401502)"
         id="path62-9" />
    </clipPath>
    <clipPath
       clipPathUnits="userSpaceOnUse"
       id="clipPath60-3">
      <path
         d="M 0,841.89 H 1190.551 V 0 H 0 Z"
         transform="translate(-299.1934,-71.401502)"
         id="path60-0" />
    </clipPath>
    <clipPath
       clipPathUnits="userSpaceOnUse"
       id="clipPath58-3">
      <path
         d="M 0,841.89 H 1190.551 V 0 H 0 Z"
         transform="translate(-265.17771,-71.401502)"
         id="path58-1" />
    </clipPath>
    <clipPath
       clipPathUnits="userSpaceOnUse"
       id="clipPath68-4">
      <path
         d="M 0,841.89 H 1190.551 V 0 H 0 Z"
         transform="translate(-435.25631,-71.401502)"
         id="path68-48" />
    </clipPath>
    <clipPath
       clipPathUnits="userSpaceOnUse"
       id="clipPath66-20">
      <path
         d="M 0,841.89 H 1190.551 V 0 H 0 Z"
         transform="translate(-401.24071,-71.401502)"
         id="path66-5" />
    </clipPath>
    <clipPath
       clipPathUnits="userSpaceOnUse"
       id="clipPath64-0">
      <path
         d="M 0,841.89 H 1190.551 V 0 H 0 Z"
         transform="translate(-367.22511,-71.401502)"
         id="path64-7" />
    </clipPath>
    <clipPath
       clipPathUnits="userSpaceOnUse"
       id="clipPath62-3">
      <path
         d="M 0,841.89 H 1190.551 V 0 H 0 Z"
         transform="translate(-333.20901,-71.401502)"
         id="path62-8" />
    </clipPath>
    <clipPath
       clipPathUnits="userSpaceOnUse"
       id="clipPath60-36">
      <path
         d="M 0,841.89 H 1190.551 V 0 H 0 Z"
         transform="translate(-299.1934,-71.401502)"
         id="path60-4" />
    </clipPath>
    <clipPath
       clipPathUnits="userSpaceOnUse"
       id="clipPath58-5">
      <path
         d="M 0,841.89 H 1190.551 V 0 H 0 Z"
         transform="translate(-265.17771,-71.401502)"
         id="path58-8" />
    </clipPath>
  </defs>
  <g
     inkscape:label="Camada 1"
     inkscape:groupmode="layer"
     id="layer1">
    <path
       id="path69"
       clip-path="url(#clipPath70)"
       style="fill:#000000;fill-opacity:1;stroke:none;stroke-width:0.567;stroke-linecap:round;stroke-linejoin:round;stroke-miterlimit:11.339;stroke-dasharray:none;stroke-opacity:1"
       d="M 0.28303805 220.53643 C 0.12703821 220.53643 0.00032319391 220.40825 0.00032319391 220.25225 L 0.00032319391 201.68536 L -8.2203803 201.68536 C -8.3763802 201.68536 -8.50456 201.55718 -8.50456 201.40118 L -8.50456 184.39434 C -8.50456 184.23834 -8.3763802 184.11016 -8.2203803 184.11016 L 0.00032319391 184.11016 L 0.00032319391 167.67022 L -8.2203803 167.67022 C -8.3763802 167.67022 -8.50456 167.54204 -8.50456 167.38604 L -8.50456 150.37774 C -8.50456 150.22274 -8.3763802 150.09502 -8.2203803 150.09502 L 0.00032319391 150.09502 L 0.00032319391 130.96123 L 0.060381791 150.11553 C 0.075031494 150.12107 0.098769869 150.12218 0.10579195 150.13018 L 0.2845029 150.13018 L 0.2845029 91.445604 L 0.069170854 91.445604 C 0.12923226 91.45523 0.18176746 91.558397 0.00032319391 91.558397 C 0.00032319391 91.491054 0.017726057 91.460287 0.038409133 91.445604 L 0.00032319391 91.445604 L 0.00032319391 91.558397 L -8.2203803 91.558397 C -8.3763802 91.558397 -8.50456 91.431682 -8.50456 91.275682 L -8.50456 74.267381 C -8.50456 74.111381 -8.3763802 73.984666 -8.2203803 73.984666 L 0.00032319391 73.984666 L 0.00032319391 73.996385 L 0.0047177254 73.996385 C 0.0043760382 73.990004 0.00032319391 73.991741 0.00032319391 73.984666 C 0.021128755 73.984666 0.020435687 73.993681 0.035479446 73.996385 L 0.2845029 73.996385 L 0.2845029 57.491989 L 0.1175107 57.491989 C 0.11051776 57.519408 0.083754518 57.543259 0.00032319391 57.543259 C 0.00032319391 57.512832 0.012429282 57.510425 0.01790132 57.491989 L 0.00032319391 57.491989 L 0.00032319391 57.543259 L -8.2203803 57.543259 C -8.3763802 57.543259 -8.50456 57.416079 -8.50456 57.259079 L -8.50456 40.252242 C -8.50456 40.095242 -8.3763802 39.968063 -8.2203803 39.968063 L 0.00032319391 39.968063 L 0.00032319391 40.04277 L 0.025225539 40.04277 C 0.014674544 40.022874 0.00032319391 40.012274 0.00032319391 39.968063 C 0.10757485 39.968063 0.12198978 40.007651 0.11311617 40.04277 L 0.2845029 40.04277 L 0.2845029 -8.2882875 L 0.11458101 -8.2882875 C 0.11823095 -8.2568161 0.097325064 -8.2272096 0.0091122569 -8.2238344 L 0.00032319391 -0.00020115651 L 0.00032319391 -8.2209047 L -8.2203803 -8.2209047 C -8.3763802 -8.2209047 -8.50456 -8.3476197 -8.50456 -8.5036196 L -8.50456 -25.511921 C -8.50456 -25.667921 -8.3763802 -25.794636 -8.2203803 -25.794636 L 0.00032319391 -25.794636 L 0.00032319391 -42.236043 L -8.2203803 -42.236043 C -8.3763802 -42.236043 -8.50456 -42.364223 -8.50456 -42.520223 L -8.50456 -59.52706 C -8.50456 -59.684059 -8.3763802 -59.811239 -8.2203803 -59.811239 L 0.00032319391 -59.811239 L 0.00032319391 -76.245322 L -2.3829777 -76.245322 L -2.3829777 -76.252646 L -8.2203803 -76.252646 C -8.3763802 -76.252646 -8.50456 -76.380361 -8.50456 -76.535361 L -8.50456 -93.543663 C -8.50456 -93.699663 -8.3763802 -93.826378 -8.2203803 -93.826378 L 0.00032319391 -93.826378 L 0.00032319391 -110.26778 L -8.2203803 -110.26778 C -8.3763802 -110.26778 -8.50456 -110.3955 -8.50456 -110.5505 L -8.50456 -127.5588 C -8.50456 -127.7148 -8.3763802 -127.84298 -8.2203803 -127.84298 L 0.00032319391 -127.84298 L 0.00032319391 -144.28292 L -8.2203803 -144.28292 C -8.3763802 -144.28292 -8.50456 -144.4111 -8.50456 -144.5671 L -8.50456 -161.5754 C -8.50456 -161.7304 -8.3763802 -161.85812 -8.2203803 -161.85812 L -3.121259 -161.85812 L -3.121259 -161.86544 L 0.00032319391 -161.86544 L 0.00032319391 -178.29953 L -8.2203803 -178.29953 C -8.3763802 -178.29953 -8.50456 -178.42771 -8.50456 -178.58371 L -8.50456 -195.59054 C -8.50456 -195.74554 -8.3763802 -195.87472 -8.2203803 -195.87472 L -3.008466 -195.87472 L -3.008466 -195.89816 L 0.00032319391 -195.89816 L 0.00032319391 -212.31466 L -8.2203803 -212.31466 C -8.3763802 -212.31466 -8.50456 -212.44184 -8.50456 -212.59884 L -8.50456 -229.60568 C -8.50456 -229.76168 -8.3763802 -229.88986 -8.2203803 -229.88986 L -2.3038761 -229.88986 L -2.3038761 -229.91916 L 0.00032319391 -229.91916 L 0.00032319391 -246.33127 L -8.2203803 -246.33127 C -8.3763802 -246.33127 -8.50456 -246.45798 -8.50456 -246.61398 L -8.50456 -263.62228 C -8.50456 -263.77828 -8.3763802 -263.905 -8.2203803 -263.905 L -3.0538762 -263.905 L -3.0538762 -263.92844 L 0.00032319391 -263.92844 L 0.00032319391 -272.1257 C 0.00032319391 -272.28122 0.12916643 -272.40763 0.2845029 -272.40842 L 34.299641 -272.40842 L 35.868489 -272.40842 L 35.823079 -272.30881 C 38.325612 -272.08696 40.760521 -271.35468 42.94515 -270.09396 C 45.573147 -268.57397 47.755741 -266.39091 49.27474 -263.76291 C 50.742738 -261.22091 52.85186 -259.10886 55.394857 -257.63986 C 57.937855 -256.17586 60.823189 -255.40158 63.756186 -255.40158 L 132.40023 -255.40158 C 135.33423 -255.40158 138.22103 -256.17586 140.76303 -257.63986 C 143.30602 -259.10886 145.41514 -261.22091 146.88314 -263.76291 C 148.40314 -266.39091 150.58474 -268.57397 153.21273 -270.09396 C 155.84073 -271.60996 158.82224 -272.40842 161.85824 -272.40842 L 195.87338 -272.40842 C 196.03038 -272.40842 196.15756 -272.2817 196.15756 -272.1257 L 196.15756 -266.6384 L 204.37826 -266.6384 C 204.53426 -266.6384 204.66098 -266.51122 204.66098 -266.35422 L 204.66098 -249.34738 C 204.66098 -249.19038 204.53426 -249.0632 204.37826 -249.0632 L 196.15756 -249.0632 L 196.15756 -232.62179 L 204.37826 -232.62179 C 204.53426 -232.62179 204.66098 -232.49508 204.66098 -232.33908 L 204.66098 -215.33078 C 204.66098 -215.17478 204.53426 -215.04806 204.37826 -215.04806 L 196.15756 -215.04806 L 196.15756 -198.60666 L 204.37826 -198.60666 C 204.53426 -198.60666 204.66098 -198.47848 204.66098 -198.32248 L 204.66098 -181.31564 C 204.66098 -181.15964 204.53426 -181.03146 204.37826 -181.03146 L 196.15756 -181.03146 L 196.15756 -164.59152 L 204.37826 -164.59152 C 204.53426 -164.59152 204.66098 -164.46334 204.66098 -164.30734 L 204.66098 -147.3005 C 204.66098 -147.1435 204.53426 -147.01486 204.37826 -147.01486 L 196.15756 -147.01486 L 196.15756 -130.57491 L 204.37826 -130.57491 C 204.53426 -130.57491 204.66098 -130.4472 204.66098 -130.2922 L 204.66098 -113.2839 C 204.66098 -113.1279 204.53426 -112.99972 204.37826 -112.99972 L 196.15756 -112.99972 L 196.15756 -96.559776 L 204.37826 -96.559776 C 204.53426 -96.559776 204.66098 -96.430596 204.66098 -96.275597 L 204.66098 -79.267295 C 204.66098 -79.112295 204.53426 -78.98458 204.37826 -78.98458 L 196.15756 -78.98458 L 196.15756 -73.497275 L 196.15756 -68.030478 C 196.15756 -67.963478 196.13511 -67.900837 196.09311 -67.848837 L 184.13119 -53.594442 L 190.42563 -48.31075 C 190.54763 -48.209751 190.56125 -48.029848 190.46225 -47.910848 L 179.53012 -34.879597 C 179.42812 -34.761598 179.24921 -34.747371 179.13022 -34.847371 L 172.83139 -40.129598 L 162.264 -27.536335 L 168.56283 -22.252644 C 168.68183 -22.152644 168.69806 -21.974741 168.59506 -21.852741 L 157.66293 -8.8244204 C 157.56393 -8.7054205 157.38596 -8.688729 157.26596 -8.7907289 L 150.96713 -14.074421 L 139.00521 0.18143948 C 139.16121 0.18143948 138.99675 0.41138644 139.00521 0.56815825 L 139.00521 9.0715766 L 139.00521 39.968063 L 147.68588 39.968063 C 147.84188 39.968063 147.96859 40.096242 147.96859 40.252242 L 147.96859 57.259079 C 147.96859 57.415079 147.84188 57.543259 147.68588 57.543259 L 139.00521 57.543259 L 139.00521 73.984666 L 147.68588 73.984666 C 147.84188 73.984666 147.96859 74.111381 147.96859 74.267381 L 147.96859 91.275682 C 147.96859 91.431682 147.84188 91.558397 147.68588 91.558397 L 139.00521 91.558397 L 139.00521 122.45635 L 139.00521 130.96123 C 139.00521 131.08663 139.06221 131.25406 139.00521 131.31719 L 139.00521 131.41826 L 149.1141 143.46367 L 155.41 138.17998 C 155.531 138.07798 155.70944 138.09467 155.80844 138.21367 L 166.7435 151.24199 C 166.8455 151.36399 166.82734 151.5429 166.70834 151.6419 L 160.40951 156.92559 L 170.58139 169.04717 C 170.62339 169.09817 170.64584 169.16081 170.64584 169.22881 L 170.64584 174.69268 L 170.64584 188.68487 L 178.86508 188.68487 C 179.02108 188.68487 179.14926 188.81305 179.14926 188.96905 L 179.14926 205.97588 C 179.14926 206.13288 179.02108 206.26006 178.86508 206.26006 L 170.64584 206.26006 L 170.64584 220.25225 C 170.64584 220.40825 170.51812 220.53497 170.36312 220.53497 L 161.85824 220.53497 C 161.70224 220.53497 161.57553 220.40825 161.57553 220.25225 L 161.57553 212.03155 L 145.13412 212.03155 L 145.13412 220.25225 C 145.13412 220.40825 145.0074 220.53497 144.8514 220.53497 L 127.8431 220.53497 C 127.6871 220.53497 127.55892 220.40825 127.55892 220.25225 L 127.55892 212.03155 L 111.11752 212.03155 L 111.11752 220.25225 C 111.11752 220.40825 110.9908 220.53497 110.8348 220.53497 L 93.8265 220.53497 C 93.6705 220.53497 93.543785 220.40825 93.543785 220.25225 L 93.543785 212.03155 L 77.102378 212.03155 L 77.102378 220.25225 C 77.102378 220.40825 76.974198 220.53497 76.818198 220.53497 L 59.811361 220.53497 C 59.655362 220.53497 59.527182 220.40825 59.527182 220.25225 L 59.527182 212.03155 L 43.087239 212.03155 L 43.087239 220.25225 C 43.087239 220.40825 42.95906 220.53497 42.80306 220.53497 L 25.796223 220.53497 C 25.640223 220.53497 25.512043 220.40825 25.512043 220.25225 L 25.512043 212.03155 L 9.0706362 212.03155 L 9.0706362 220.53643 L 0.2845029 220.53643 L 0.2845029 201.67217 L 0.22297946 201.67217 L 0.28303805 220.53643 z M 0.16878023 184.22295 L 0.2845029 184.22295 L 0.2845029 177.78789 L 0.2845029 167.5794 L 0.11604586 167.5794 L 0.11604586 167.61455 C 0.11502651 167.62038 0.11963554 167.62522 0.11604586 167.63067 L 0.16878023 184.22295 z M 0.0091122569 -8.2472719 C 0.011551138 -8.2662954 0.016942423 -8.2762738 0.022295851 -8.2882875 L 0.0091122569 -8.2882875 L 0.0091122569 -8.2472719 z M 0.11604586 -25.737507 L 0.2845029 -25.737507 L 0.2845029 -42.354695 L 0.044268509 -42.354695 C 0.10258375 -42.381222 0.16427238 -42.279468 0.044268509 -42.250692 L 0.026690383 -25.785847 C 0.08544469 -25.778367 0.11356374 -25.762174 0.11604586 -25.737507 z M 0.063311478 -59.803915 L 0.2845029 -59.803915 L 0.2845029 -76.245322 L 0.07942476 -76.245322 L 0.063311478 -59.803915 z M 0.09846773 -93.694542 L 0.2845029 -93.694542 L 0.2845029 -110.3337 L 0.11604586 -110.3337 L 0.11604586 -110.33077 C 0.11621248 -110.32176 0.12176341 -110.31419 0.11604586 -110.30587 L 0.09846773 -93.794151 C 0.12679414 -93.768117 0.12378065 -93.739652 0.09846773 -93.719444 L 0.09846773 -93.694542 z M 0.13362398 -127.78292 L 0.2845029 -127.78292 L 0.2845029 -144.41622 L 0.15120211 -144.41622 L 0.13362398 -127.78292 z M 0.16878023 -161.86544 L 0.2845029 -161.86544 L 0.2845029 -178.44894 L 0.18635836 -178.44894 L 0.16878023 -161.86544 z M 0.20393649 -195.89816 L 0.2845029 -195.89816 L 0.2845029 -212.46994 L 0.22151461 -212.46994 L 0.20393649 -195.89816 z M 0.23909274 -229.91916 L 0.2845029 -229.91916 L 0.2845029 -246.47922 L 0.25667086 -246.47922 L 0.23909274 -229.91916 z M 0.27571383 -263.92844 L 0.2845029 -263.92844 L 0.2845029 -272.40549 L 0.27571383 -263.92844 z "
       transform="matrix(0.35277776,0,0,-0.35277776,4.3841145,199.5185)" />
    <path
       id="path69-0"
       clip-path="url(#clipPath70-5)"
       style="fill:#000000;fill-opacity:1;stroke:none;stroke-width:0.567;stroke-linecap:round;stroke-linejoin:round;stroke-miterlimit:11.339;stroke-dasharray:none;stroke-opacity:1"
       d="M 0.2839406 220.53676 L 0.2839406 220.53529 L 0.2839406 201.6725 L 0.223882 201.6725 L 0.2839406 220.53529 C 0.12794075 220.53529 -0.0002391068 220.40712 -0.0002391068 220.25112 L -0.0002391068 201.68422 L -8.2209426 201.68422 C -8.3769425 201.68422 -8.5036575 201.5575 -8.5036575 201.4015 L -8.5036575 184.3932 C -8.5036575 184.2372 -8.3769425 184.11049 -8.2209426 184.11049 L -0.0002391068 184.11049 L -0.0002391068 167.66908 L -8.2209426 167.66908 C -8.3769425 167.66908 -8.5036575 167.54237 -8.5036575 167.38637 L -8.5036575 150.37806 C -8.5036575 150.22307 -8.3769425 150.09535 -8.2209426 150.09535 L -0.0002391068 150.09535 L -0.0002391068 130.9601 L 0.05981949 150.11586 C 0.07485657 150.12145 0.099569364 150.12236 0.10669449 150.13051 L 0.2839406 150.13051 L 0.2839406 91.444468 L 0.071538241 91.444468 C 0.13055547 91.456601 0.17889271 91.558726 -0.0002391068 91.558726 C -0.0002391068 91.491346 0.017147546 91.459136 0.037846833 91.444468 L -0.0002391068 91.444468 L -0.0002391068 91.558726 L -8.2194778 91.558726 C -8.3754776 91.558726 -8.5036575 91.432011 -8.5036575 91.276011 L -8.5036575 74.267709 C -8.5036575 74.11171 -8.3754776 73.984995 -8.2194778 73.984995 L -0.0002391068 73.984995 L -0.0002391068 73.996713 L 0.0041554247 73.996713 C 0.0038137375 73.990333 -0.0002391068 73.99207 -0.0002391068 73.984995 C 0.020566454 73.984995 0.019873386 73.99401 0.034917145 73.996713 L 0.2839406 73.996713 L 0.2839406 57.490853 L 0.1169484 57.490853 C 0.11084357 57.518876 0.084721664 57.543588 -0.0002391068 57.543588 C -0.0002391068 57.512379 0.011610705 57.509474 0.017339019 57.490853 L -0.0002391068 57.490853 L -0.0002391068 57.543588 L -8.2194778 57.543588 C -8.3754776 57.543588 -8.5036575 57.416408 -8.5036575 57.259408 L -8.5036575 40.252571 C -8.5036575 40.095571 -8.3754776 39.968391 -8.2194778 39.968391 L -0.0002391068 39.968391 L -0.0002391068 40.041634 L 0.024663238 40.041634 C 0.014426988 40.021722 -0.0002391068 40.011822 -0.0002391068 39.968391 C 0.10640621 39.968391 0.12098102 40.006654 0.11255387 40.041634 L 0.2839406 40.041634 L 0.2839406 -8.2879588 L 0.11401871 -8.2879588 C 0.11775156 -8.2564512 0.096877792 -8.2268853 0.0085499561 -8.2235056 L -0.0002391068 0.00012759597 L -0.0002391068 -8.2205759 L -8.2194778 -8.2205759 C -8.3754776 -8.2205759 -8.5036575 -8.347291 -8.5036575 -8.5032908 L -8.5036575 -25.511592 C -8.5036575 -25.667592 -8.3754776 -25.794307 -8.2194778 -25.794307 L -0.0002391068 -25.794307 L -0.0002391068 -42.235714 L -8.2194778 -42.235714 C -8.3754776 -42.235714 -8.5036575 -42.363894 -8.5036575 -42.519894 L -8.5036575 -59.526731 C -8.5036575 -59.683731 -8.3754776 -59.810911 -8.2194778 -59.810911 L -0.0002391068 -59.810911 L -0.0002391068 -76.246458 L -2.38354 -76.246458 L -2.38354 -76.252318 L -8.2194778 -76.252318 C -8.3754776 -76.252318 -8.5036575 -76.380033 -8.5036575 -76.535033 L -8.5036575 -93.543334 C -8.5036575 -93.699334 -8.3754776 -93.827514 -8.2194778 -93.827514 L -0.0002391068 -93.827514 L -0.0002391068 -110.26746 L -8.2194778 -110.26746 C -8.3754776 -110.26746 -8.5036575 -110.39664 -8.5036575 -110.55164 L -8.5036575 -127.55847 C -8.5036575 -127.71447 -8.3754776 -127.84265 -8.2194778 -127.84265 L -0.0002391068 -127.84265 L -0.0002391068 -144.28259 L -8.2194778 -144.28259 C -8.3754776 -144.28259 -8.5036575 -144.41077 -8.5036575 -144.56677 L -8.5036575 -161.57508 C -8.5036575 -161.73008 -8.3754776 -161.85779 -8.2194778 -161.85779 L -3.1218213 -161.85779 L -3.1218213 -161.86511 L -0.0002391068 -161.86658 L -0.0002391068 -178.2992 L -8.2194778 -178.2992 C -8.3754776 -178.2992 -8.5036575 -178.42738 -8.5036575 -178.58338 L -8.5036575 -195.59168 C -8.5036575 -195.74668 -8.3754776 -195.87439 -8.2194778 -195.87439 L -3.0090283 -195.87439 L -3.0090283 -195.8993 L -0.0002391068 -195.8993 L -0.0002391068 -212.31434 L -8.2194778 -212.31434 C -8.3754776 -212.31434 -8.5036575 -212.44152 -8.5036575 -212.59852 L -8.5036575 -229.60535 C -8.5036575 -229.76135 -8.3754776 -229.88953 -8.2194778 -229.88953 L -2.3044384 -229.88953 L -2.3044384 -229.91883 L -0.0002391068 -229.91883 L -0.0002391068 -246.33094 L -8.2194778 -246.33094 C -8.3754776 -246.33094 -8.5036575 -246.45765 -8.5036575 -246.61365 L -8.5036575 -263.62196 C -8.5036575 -263.77796 -8.3754776 -263.90467 -8.2194778 -263.90467 L -3.0544385 -263.90467 L -3.0544385 -263.92811 L -0.0002391068 -263.92811 L -0.0002391068 -272.12537 C -0.0002391068 -272.28137 0.12794075 -272.40955 0.2839406 -272.40955 L 0.27515153 -263.92811 L 0.2839406 -263.92811 L 0.2839406 -272.40955 L 34.299079 -272.40955 L 35.867927 -272.40955 L 35.822517 -272.30848 C 38.325384 -272.08674 40.759683 -271.35451 42.944587 -270.09364 C 45.572585 -268.57364 47.755179 -266.39058 49.274177 -263.76258 C 50.742176 -261.22058 52.851297 -259.10853 55.394295 -257.63953 C 57.937292 -256.17554 60.824091 -255.40125 63.757088 -255.40125 L 132.40113 -255.40125 C 135.33513 -255.40125 138.22047 -256.17554 140.76246 -257.63953 C 143.30546 -259.10853 145.41458 -261.22058 146.88258 -263.76258 C 148.40258 -266.39058 150.58417 -268.57364 153.21217 -270.09364 C 155.84017 -271.60963 158.82315 -272.40955 161.85914 -272.40955 L 195.87428 -272.40955 C 196.03128 -272.40955 196.157 -272.28284 196.157 -272.12684 L 196.157 -266.63807 L 204.3777 -266.63807 C 204.5337 -266.63807 204.66188 -266.51089 204.66188 -266.35389 L 204.66188 -249.34705 C 204.66188 -249.19005 204.5337 -249.06287 204.3777 -249.06287 L 196.157 -249.06287 L 196.157 -232.62147 L 204.3777 -232.62147 C 204.5337 -232.62147 204.66188 -232.49475 204.66188 -232.33875 L 204.66188 -215.33045 C 204.66188 -215.17445 204.5337 -215.04773 204.3777 -215.04773 L 196.157 -215.04773 L 196.157 -198.60633 L 204.3777 -198.60633 C 204.5337 -198.60633 204.66188 -198.47961 204.66188 -198.32361 L 204.66188 -181.31531 C 204.66188 -181.15931 204.5337 -181.0326 204.3777 -181.0326 L 196.157 -181.0326 L 196.157 -164.59119 L 204.3777 -164.59119 C 204.5337 -164.59119 204.66188 -164.46301 204.66188 -164.30701 L 204.66188 -147.30017 C 204.66188 -147.14317 204.5337 -147.01453 204.3777 -147.01453 L 196.157 -147.01453 L 196.157 -130.57459 L 204.3777 -130.57459 C 204.5337 -130.57459 204.66188 -130.44687 204.66188 -130.29187 L 204.66188 -113.28357 C 204.66188 -113.12757 204.5337 -113.00085 204.3777 -113.00085 L 196.157 -113.00085 L 196.157 -96.559448 L 204.3777 -96.559448 C 204.5337 -96.559448 204.66188 -96.431733 204.66188 -96.276733 L 204.66188 -79.266966 C 204.66188 -79.111966 204.5337 -78.984251 204.3777 -78.984251 L 196.157 -78.984251 L 196.157 -73.496946 L 196.157 -68.031614 C 196.157 -67.964614 196.13454 -67.900509 196.09254 -67.848509 L 184.13063 -53.595578 L 190.42506 -48.310422 C 190.54706 -48.209422 190.56215 -48.029519 190.46315 -47.910519 L 179.52956 -34.880734 C 179.42756 -34.762734 179.24865 -34.747042 179.12965 -34.847042 L 172.83229 -40.130734 L 162.26344 -27.536007 L 168.56227 -22.252315 C 168.68127 -22.152315 168.69896 -21.974412 168.59596 -21.852413 L 157.66237 -8.8240916 C 157.56337 -8.7050917 157.38539 -8.6884003 157.26539 -8.7904002 L 150.96803 -14.074092 L 139.00612 0.18176823 C 139.16212 0.18176823 138.99766 0.41025035 139.00612 0.56702216 L 139.00612 9.0719054 L 139.00612 39.968391 L 147.68532 39.968391 C 147.84132 39.968391 147.96803 40.095106 147.96803 40.251106 L 147.96803 57.259408 C 147.96803 57.415408 147.84132 57.542123 147.68532 57.542123 L 139.00612 57.542123 L 139.00612 73.984995 L 147.68532 73.984995 C 147.84132 73.984995 147.96803 74.11171 147.96803 74.267709 L 147.96803 91.276011 C 147.96803 91.432011 147.84132 91.558726 147.68532 91.558726 L 139.00612 91.558726 L 139.00612 122.45668 L 139.00612 130.9601 C 139.00612 131.08471 139.06128 131.25196 139.00612 131.31605 L 139.00612 131.41859 L 149.11354 143.464 L 155.40944 138.18031 C 155.53044 138.07831 155.71034 138.095 155.80934 138.214 L 166.74293 151.24232 C 166.84493 151.36432 166.82824 151.54323 166.70924 151.64223 L 160.41041 156.92592 L 170.58082 169.0475 C 170.62282 169.0985 170.64528 169.15968 170.64528 169.22768 L 170.64528 174.69301 L 170.64528 188.6852 L 178.86598 188.6852 C 179.02198 188.6852 179.15016 188.81338 179.15016 188.96938 L 179.15016 205.97621 C 179.15016 206.13321 179.02198 206.26039 178.86598 206.26039 L 170.64528 206.26039 L 170.64528 220.25258 C 170.64528 220.40858 170.51756 220.53529 170.36256 220.53529 L 161.85914 220.53529 C 161.70314 220.53529 161.57496 220.40858 161.57496 220.25258 L 161.57496 212.03188 L 145.13356 212.03188 L 145.13356 220.25258 C 145.13356 220.40858 145.00684 220.53529 144.85084 220.53529 L 127.84254 220.53529 C 127.68654 220.53529 127.55836 220.40858 127.55836 220.25258 L 127.55836 212.03188 L 111.11842 212.03188 L 111.11842 220.25258 C 111.11842 220.40858 110.99024 220.53529 110.83424 220.53529 L 93.827402 220.53529 C 93.671402 220.53529 93.543223 220.40858 93.543223 220.25258 L 93.543223 212.03188 L 77.10328 212.03188 L 77.10328 220.25258 C 77.10328 220.40858 76.975101 220.53529 76.819101 220.53529 L 59.810799 220.53529 C 59.654799 220.53529 59.528084 220.40858 59.528084 220.25258 L 59.528084 212.03188 L 43.086677 212.03188 L 43.086677 220.25258 C 43.086677 220.40858 42.958497 220.53529 42.802497 220.53529 L 25.795661 220.53529 C 25.639661 220.53529 25.511481 220.40858 25.511481 220.25258 L 25.511481 212.03188 L 9.0700739 212.03188 L 9.0700739 220.53676 L 0.2839406 220.53676 z M 0.16821793 184.22328 L 0.2839406 184.22328 L 0.2839406 177.78822 L 0.2839406 167.57973 L 0.11548356 167.57973 L 0.11548356 167.61049 C 0.11497916 167.61822 0.1203775 167.62385 0.11548356 167.631 L 0.16821793 184.22328 z M 0.0085499561 -8.2469431 C 0.010988837 -8.2659667 0.016380122 -8.275945 0.021733551 -8.2879588 L 0.0085499561 -8.2879588 L 0.0085499561 -8.2469431 z M 0.1169484 -25.737178 L 0.2839406 -25.737178 L 0.2839406 -42.354367 L 0.043706208 -42.354367 C 0.10202816 -42.381069 0.16377869 -42.279155 0.043706208 -42.250363 L 0.026128082 -25.785518 C 0.084698692 -25.778062 0.11434633 -25.761762 0.1169484 -25.737178 z M 0.062749178 -59.803586 L 0.2839406 -59.803586 L 0.2839406 -76.246458 L 0.07886246 -76.246458 L 0.062749178 -59.803586 z M 0.097905429 -93.694213 L 0.2839406 -93.694213 L 0.2839406 -110.33337 L 0.11548356 -110.33337 C 0.11609942 -110.32365 0.12165123 -110.31599 0.11548356 -110.30701 L 0.097905429 -93.793822 C 0.12658072 -93.767415 0.12392432 -93.739091 0.097905429 -93.719115 L 0.097905429 -93.694213 z M 0.13306168 -127.78259 L 0.2839406 -127.78259 L 0.2839406 -144.41736 L 0.15063981 -144.41736 L 0.13306168 -127.78259 z M 0.16821793 -161.86658 L 0.2839406 -161.86658 L 0.2839406 -178.45008 L 0.18579606 -178.45008 L 0.16821793 -161.86658 z M 0.20337418 -195.8993 L 0.2839406 -195.8993 L 0.2839406 -212.47107 L 0.22095231 -212.47107 L 0.20337418 -195.8993 z M 0.23853044 -229.91883 L 0.2839406 -229.91883 L 0.2839406 -246.47889 L 0.25610856 -246.47889 L 0.23853044 -229.91883 z "
       transform="matrix(0.35277776,0,0,-0.35277776,83.818224,199.64574)" />
    <path
       id="path67"
       d="m 0,0 h -8.22 c -0.284,0 0,-0.283 0,0 v 7.937 c 0,0.284 -0.284,0 0,0 H 8.221 c 0.283,0 0,0.284 0,0 V 0 c 0,-0.283 0.283,0 0,0 z"
       style="fill:#ffffff;fill-opacity:1;stroke:none;stroke-width:0.567;stroke-linecap:round;stroke-linejoin:round;stroke-miterlimit:11.339;stroke-dasharray:none;stroke-opacity:1"
       transform="matrix(0.35277776,0,0,-0.35277776,148.41815,286.64587)"
       clip-path="url(#clipPath68-29)" />
    <path
       id="path65"
       d="m 0,0 h -8.221 c -0.283,0 0,-0.283 0,0 v 7.937 c 0,0.284 -0.283,0 0,0 H 8.22 c 0.284,0 0,0.284 0,0 V 0 c 0,-0.283 0.284,0 0,0 z"
       style="fill:#ffffff;fill-opacity:1;stroke:none;stroke-width:0.567;stroke-linecap:round;stroke-linejoin:round;stroke-miterlimit:11.339;stroke-dasharray:none;stroke-opacity:1"
       transform="matrix(0.35277776,0,0,-0.35277776,136.4182,286.64587)"
       clip-path="url(#clipPath66-29)" />
    <path
       id="path63"
       d="m 0,0 h -8.221 c -0.283,0 0,-0.283 0,0 v 7.937 c 0,0.284 -0.283,0 0,0 H 8.22 c 0.284,0 0,0.284 0,0 V 0 c 0,-0.283 0.284,0 0,0 z"
       style="fill:#ffffff;fill-opacity:1;stroke:none;stroke-width:0.567;stroke-linecap:round;stroke-linejoin:round;stroke-miterlimit:11.339;stroke-dasharray:none;stroke-opacity:1"
       transform="matrix(0.35277776,0,0,-0.35277776,124.41825,286.64587)"
       clip-path="url(#clipPath64-3)" />
    <path
       id="path61"
       d="m 0,0 h -8.22 c -0.284,0 0,-0.283 0,0 v 7.937 c 0,0.284 -0.284,0 0,0 H 8.221 c 0.283,0 0,0.284 0,0 V 0 c 0,-0.283 0.283,0 0,0 z"
       style="fill:#ffffff;fill-opacity:1;stroke:none;stroke-width:0.567;stroke-linecap:round;stroke-linejoin:round;stroke-miterlimit:11.339;stroke-dasharray:none;stroke-opacity:1"
       transform="matrix(0.35277776,0,0,-0.35277776,112.41813,286.64587)"
       clip-path="url(#clipPath62-6)" />
    <path
       id="path59"
       d="m 0,0 h -8.22 c -0.284,0 0,-0.283 0,0 v 7.937 c 0,0.284 -0.284,0 0,0 H 8.221 c 0.283,0 0,0.284 0,0 V 0 c 0,-0.283 0.283,0 0,0 z"
       style="fill:#ffffff;fill-opacity:1;stroke:none;stroke-width:0.567;stroke-linecap:round;stroke-linejoin:round;stroke-miterlimit:11.339;stroke-dasharray:none;stroke-opacity:1"
       transform="matrix(0.35277776,0,0,-0.35277776,100.41818,286.64587)"
       clip-path="url(#clipPath60-3)" />
    <path
       id="path57"
       d="m 0,0 h -8.221 c -0.283,0 0,-0.283 0,0 v 7.937 c 0,0.284 -0.283,0 0,0 H 8.22 c 0.284,0 0,0.284 0,0 V 0 c 0,-0.283 0.284,0 0,0 z"
       style="fill:#ffffff;fill-opacity:1;stroke:none;stroke-width:0.567;stroke-linecap:round;stroke-linejoin:round;stroke-miterlimit:11.339;stroke-dasharray:none;stroke-opacity:1"
       transform="matrix(0.35277776,0,0,-0.35277776,88.418203,286.64587)"
       clip-path="url(#clipPath58-3)" />
    <path
       id="path67-1"
       d="m 0,0 h -8.22 c -0.284,0 0,-0.283 0,0 v 7.937 c 0,0.284 -0.284,0 0,0 H 8.221 c 0.283,0 0,0.284 0,0 V 0 c 0,-0.283 0.283,0 0,0 z"
       style="fill:#ffffff;fill-opacity:1;stroke:none;stroke-width:0.567;stroke-linecap:round;stroke-linejoin:round;stroke-miterlimit:11.339;stroke-dasharray:none;stroke-opacity:1"
       transform="matrix(0.35277776,0,0,-0.35277776,68.983622,286.51834)"
       clip-path="url(#clipPath68-4)" />
    <path
       id="path65-5"
       d="m 0,0 h -8.221 c -0.283,0 0,-0.283 0,0 v 7.937 c 0,0.284 -0.283,0 0,0 H 8.22 c 0.284,0 0,0.284 0,0 V 0 c 0,-0.283 0.284,0 0,0 z"
       style="fill:#ffffff;fill-opacity:1;stroke:none;stroke-width:0.567;stroke-linecap:round;stroke-linejoin:round;stroke-miterlimit:11.339;stroke-dasharray:none;stroke-opacity:1"
       transform="matrix(0.35277776,0,0,-0.35277776,56.983672,286.51834)"
       clip-path="url(#clipPath66-20)" />
    <path
       id="path63-1"
       d="m 0,0 h -8.221 c -0.283,0 0,-0.283 0,0 v 7.937 c 0,0.284 -0.283,0 0,0 H 8.22 c 0.284,0 0,0.284 0,0 V 0 c 0,-0.283 0.284,0 0,0 z"
       style="fill:#ffffff;fill-opacity:1;stroke:none;stroke-width:0.567;stroke-linecap:round;stroke-linejoin:round;stroke-miterlimit:11.339;stroke-dasharray:none;stroke-opacity:1"
       transform="matrix(0.35277776,0,0,-0.35277776,44.983722,286.51834)"
       clip-path="url(#clipPath64-0)" />
    <path
       id="path61-7"
       d="m 0,0 h -8.22 c -0.284,0 0,-0.283 0,0 v 7.937 c 0,0.284 -0.284,0 0,0 H 8.221 c 0.283,0 0,0.284 0,0 V 0 c 0,-0.283 0.283,0 0,0 z"
       style="fill:#ffffff;fill-opacity:1;stroke:none;stroke-width:0.567;stroke-linecap:round;stroke-linejoin:round;stroke-miterlimit:11.339;stroke-dasharray:none;stroke-opacity:1"
       transform="matrix(0.35277776,0,0,-0.35277776,32.983602,286.51834)"
       clip-path="url(#clipPath62-3)" />
    <path
       id="path59-9"
       d="m 0,0 h -8.22 c -0.284,0 0,-0.283 0,0 v 7.937 c 0,0.284 -0.284,0 0,0 H 8.221 c 0.283,0 0,0.284 0,0 V 0 c 0,-0.283 0.283,0 0,0 z"
       style="fill:#ffffff;fill-opacity:1;stroke:none;stroke-width:0.567;stroke-linecap:round;stroke-linejoin:round;stroke-miterlimit:11.339;stroke-dasharray:none;stroke-opacity:1"
       transform="matrix(0.35277776,0,0,-0.35277776,20.983652,286.51834)"
       clip-path="url(#clipPath60-36)" />
    <path
       id="path57-4"
       d="m 0,0 h -8.221 c -0.283,0 0,-0.283 0,0 v 7.937 c 0,0.284 -0.283,0 0,0 H 8.22 c 0.284,0 0,0.284 0,0 V 0 c 0,-0.283 0.284,0 0,0 z"
       style="fill:#ffffff;fill-opacity:1;stroke:none;stroke-width:0.567;stroke-linecap:round;stroke-linejoin:round;stroke-miterlimit:11.339;stroke-dasharray:none;stroke-opacity:1"
       transform="matrix(0.35277776,0,0,-0.35277776,8.9836722,286.51834)"
       clip-path="url(#clipPath58-5)" />
  </g>
</svg>
