<?xml version="1.0" encoding="UTF-8" standalone="no"?>
<!-- Created with Inkscape (http://www.inkscape.org/) -->

<svg
   width="210mm"
   height="297mm"
   viewBox="0 0 210 297"
   version="1.1"
   id="svg1"
   inkscape:version="1.3 (0e150ed6c4, 2023-07-21)"
   sodipodi:docname="mdf_arcade_stacker_003.svg"
   xmlns:inkscape="http://www.inkscape.org/namespaces/inkscape"
   xmlns:sodipodi="http://sodipodi.sourceforge.net/DTD/sodipodi-0.dtd"
   xmlns="http://www.w3.org/2000/svg"
   xmlns:svg="http://www.w3.org/2000/svg">
  <sodipodi:namedview
     id="namedview1"
     pagecolor="#ffffff"
     bordercolor="#000000"
     borderopacity="0.25"
     inkscape:showpageshadow="2"
     inkscape:pageopacity="0.0"
     inkscape:pagecheckerboard="0"
     inkscape:deskcolor="#d1d1d1"
     inkscape:document-units="mm"
     inkscape:zoom="0.97815657"
     inkscape:cx="230.02453"
     inkscape:cy="950.25687"
     inkscape:window-width="1366"
     inkscape:window-height="745"
     inkscape:window-x="-8"
     inkscape:window-y="-8"
     inkscape:window-maximized="1"
     inkscape:current-layer="layer1" />
  <defs
     id="defs1">
    <clipPath
       clipPathUnits="userSpaceOnUse"
       id="clipPath40">
      <path
         d="M 0,841.89 H 1190.551 V 0 H 0 Z"
         transform="translate(-663.65432,-318.58311)"
         id="path40" />
    </clipPath>
    <clipPath
       clipPathUnits="userSpaceOnUse"
       id="clipPath50">
      <path
         d="M 0,841.89 H 1190.551 V 0 H 0 Z"
         transform="translate(-834.2998,-448.97621)"
         id="path50" />
    </clipPath>
    <clipPath
       clipPathUnits="userSpaceOnUse"
       id="clipPath52">
      <path
         d="M 0,841.89 H 1190.551 V 0 H 0 Z"
         transform="translate(-663.65432,-448.97621)"
         id="path52" />
    </clipPath>
    <clipPath
       clipPathUnits="userSpaceOnUse"
       id="clipPath54">
      <path
         d="M 0,841.89 H 1190.551 V 0 H 0 Z"
         transform="translate(-834.2998,-318.01571)"
         id="path54" />
    </clipPath>
    <clipPath
       clipPathUnits="userSpaceOnUse"
       id="clipPath48">
      <path
         d="M 0,841.89 H 1190.551 V 0 H 0 Z"
         transform="translate(-800.00102,-71.401502)"
         id="path48" />
    </clipPath>
    <clipPath
       clipPathUnits="userSpaceOnUse"
       id="clipPath46">
      <path
         d="M 0,841.89 H 1190.551 V 0 H 0 Z"
         transform="translate(-765.98544,-71.401502)"
         id="path46" />
    </clipPath>
    <clipPath
       clipPathUnits="userSpaceOnUse"
       id="clipPath44">
      <path
         d="M 0,841.89 H 1190.551 V 0 H 0 Z"
         transform="translate(-731.96872,-71.401502)"
         id="path44" />
    </clipPath>
    <clipPath
       clipPathUnits="userSpaceOnUse"
       id="clipPath42">
      <path
         d="M 0,841.89 H 1190.551 V 0 H 0 Z"
         transform="translate(-697.95311,-71.401502)"
         id="path42" />
    </clipPath>
  </defs>
  <g
     inkscape:label="Camada 1"
     inkscape:groupmode="layer"
     id="layer1">
    <path
       id="path39"
       clip-path="url(#clipPath40)"
       style="fill:#000000;fill-opacity:1;stroke:none;stroke-width:0.567;stroke-linecap:round;stroke-linejoin:round;stroke-miterlimit:11.339;stroke-dasharray:none;stroke-opacity:1"
       d="M 0.28371778 219.96842 C 0.12771793 219.96842 -0.00046192547 219.8437 -0.00046192547 219.68571 L -0.00046192547 200.83463 C -0.00046192547 200.67863 0.12771793 200.55045 0.28371778 200.55045 L 8.5029565 200.55045 L 8.5029565 184.11051 L 0.28371778 184.11051 C 0.12771793 184.11051 -0.00046192547 183.98533 -0.00046192547 183.82633 L -0.00046192547 166.81803 C -0.00046192547 166.66303 0.12771793 166.53531 0.28371778 166.53531 L 8.5029565 166.53531 L 8.5029565 150.0939 L 0.28371778 150.0939 C 0.12771793 150.0939 -0.00046192547 149.96872 -0.00046192547 149.80972 L -0.00046192547 145.47379 L -0.00046192547 130.39322 L -0.00046192547 90.707671 C -0.00046107639 90.55267 0.12871793 90.424956 0.28371778 90.424956 L 8.5044213 90.424956 L 8.5044213 73.983549 L 0.28371778 73.983549 C 0.12871793 73.983549 -0.00046192547 73.856834 -0.00046192547 73.700834 L -0.00046192547 56.692533 C -0.00046192547 56.536533 0.12871793 56.409818 0.28371778 56.409818 L 8.5044213 56.409818 L 8.5044213 39.968411 L 0.28371778 39.968411 C 0.12871793 39.968411 -0.00046192547 39.841696 -0.00046192547 39.685696 L -0.00046192547 0.00014708416 L -0.00046192547 -7.2186033 L -0.00046192547 -9.0716307 C -0.00046192547 -9.2286306 0.12871793 -9.3543456 0.28371778 -9.3543456 L 8.5044213 -9.3543456 L 8.5044213 -25.795753 L 0.28371778 -25.795753 C 0.12871793 -25.795753 -0.00046192547 -25.922468 -0.00046192547 -26.078468 L -0.00046192547 -43.086769 C -0.00046192547 -43.242769 0.12871793 -43.369484 0.28371778 -43.369484 L 8.5044213 -43.369484 L 8.5044213 -59.812356 L 0.28371778 -59.812356 C 0.12871793 -59.812356 -0.00046192547 -59.939071 -0.00046192547 -60.095071 L -0.00046192547 -77.103372 C -0.00046192547 -77.259372 0.12871793 -77.387552 0.28371778 -77.387552 L 8.5044213 -77.387552 L 8.5044213 -93.827494 L 0.28371778 -93.827494 C 0.12871793 -93.827494 -0.00046192547 -93.955209 -0.00046192547 -94.110209 L -0.00046192547 -111.11851 C -0.00046192547 -111.27451 0.12871793 -111.40269 0.28371778 -111.40269 L 8.5044213 -111.40269 L 8.5044213 -127.84263 L 0.28371778 -127.84263 C 0.12871793 -127.84263 -0.00046192547 -127.97035 -0.00046192547 -128.12535 L -0.00046192547 -145.13511 C -0.00046192547 -145.29011 0.12871793 -145.41783 0.28371778 -145.41783 L 8.5044213 -145.41783 L 8.5044213 -161.85777 L 0.28371778 -161.85777 C 0.12871793 -161.85777 -0.00046192547 -161.98642 -0.00046192547 -162.14342 L -0.00046192547 -179.15025 C -0.00046192547 -179.30625 0.12871793 -179.43443 0.28371778 -179.43443 L 8.5044213 -179.43443 L 8.5044213 -195.87437 L 0.28371778 -195.87437 C 0.12871793 -195.87437 -0.00046192547 -196.00255 -0.00046192547 -196.15855 L -0.00046192547 -213.16539 C -0.00046192547 -213.32039 0.12871793 -213.44957 0.28371778 -213.44957 L 8.5044213 -213.44957 L 8.5044213 -229.89098 L 0.28371778 -229.89098 C 0.12871793 -229.89098 -0.00046192547 -230.01769 -0.00046192547 -230.17369 L -0.00046192547 -247.18199 C -0.00046192547 -247.33799 0.12871793 -247.46471 0.28371778 -247.46471 L 8.5044213 -247.46471 L 8.5044213 -263.90612 L 0.28371778 -263.90612 C 0.12871793 -263.90612 -0.00046192547 -264.03283 -0.00046192547 -264.18883 L -0.00046192547 -272.69371 C -0.00046192547 -272.85071 0.12871793 -272.97643 0.28371778 -272.97643 L 8.7871362 -272.97643 L 42.802275 -272.97643 C 45.838272 -272.97643 48.82125 -272.17751 51.449248 -270.66051 C 54.076245 -269.14151 56.258375 -266.95892 57.777373 -264.33092 C 59.246372 -261.78792 61.354493 -259.67687 63.897491 -258.20787 C 66.440488 -256.74288 69.326287 -255.96959 72.260284 -255.96959 L 98.384309 -255.96959 C 101.31731 -255.96959 104.2041 -256.74288 106.7471 -258.20787 C 109.2901 -259.67687 111.39822 -261.78792 112.86722 -264.33092 C 114.38722 -266.95892 116.56881 -269.14151 119.19681 -270.66051 C 121.82381 -272.17751 124.80632 -272.97643 127.84232 -272.97643 L 161.85746 -272.97643 L 170.36234 -272.97643 C 170.51834 -272.97643 170.64652 -272.85071 170.64652 -272.69371 L 170.64652 -264.18883 C 170.64652 -264.03283 170.51834 -263.90612 170.36234 -263.90612 L 162.14164 -263.90612 L 162.14164 -247.46471 L 170.36234 -247.46471 C 170.51834 -247.46471 170.64652 -247.33799 170.64652 -247.18199 L 170.64652 -230.17369 C 170.64652 -230.01769 170.51834 -229.89098 170.36234 -229.89098 L 162.14164 -229.89098 L 162.14164 -213.44957 L 170.36234 -213.44957 C 170.51834 -213.44957 170.64652 -213.32039 170.64652 -213.16539 L 170.64652 -196.15855 C 170.64652 -196.00255 170.51834 -195.87437 170.36234 -195.87437 L 162.14164 -195.87437 L 162.14164 -179.43443 L 170.36234 -179.43443 C 170.51834 -179.43443 170.64652 -179.30625 170.64652 -179.15025 L 170.64652 -162.14342 C 170.64652 -161.98642 170.51834 -161.85777 170.36234 -161.85777 L 162.14164 -161.85777 L 162.14164 -145.41783 L 170.36234 -145.41783 C 170.51834 -145.41783 170.64652 -145.29011 170.64652 -145.13511 L 170.64652 -128.12535 C 170.64652 -127.97035 170.51834 -127.84263 170.36234 -127.84263 L 162.14164 -127.84263 L 162.14164 -111.40269 L 170.36234 -111.40269 C 170.51834 -111.40269 170.64652 -111.27451 170.64652 -111.11851 L 170.64652 -94.110209 C 170.64652 -93.955209 170.51834 -93.827494 170.36234 -93.827494 L 162.14164 -93.827494 L 162.14164 -77.387552 L 170.36234 -77.387552 C 170.51834 -77.387552 170.64652 -77.259372 170.64652 -77.103372 L 170.64652 -60.095071 C 170.64652 -59.939071 170.51834 -59.812356 170.36234 -59.812356 L 162.14164 -59.812356 L 162.14164 -43.369484 L 170.36234 -43.369484 C 170.51834 -43.369484 170.64652 -43.242769 170.64652 -43.086769 L 170.64652 -26.078468 C 170.64652 -25.922468 170.51834 -25.795753 170.36234 -25.795753 L 162.14164 -25.795753 L 162.14164 -9.3543456 L 170.36234 -9.3543456 C 170.51834 -9.3543456 170.64652 -9.2286306 170.64652 -9.0716307 L 170.64652 -0.0013177597 L 170.64505 -0.0013177597 L 170.64505 39.966946 L 162.42435 39.966946 L 162.42435 56.408353 L 170.64505 56.408353 L 170.64505 73.983549 L 162.42435 73.983549 L 162.42435 90.424956 L 170.64505 90.424956 L 170.64505 130.39322 L 170.64505 145.47379 L 170.64505 149.80972 C 170.64505 149.96872 170.51734 150.0939 170.36234 150.0939 L 162.14164 150.0939 L 162.14164 166.53531 L 170.36234 166.53531 C 170.51734 166.53531 170.64505 166.66303 170.64505 166.81803 L 170.64505 183.82633 C 170.64505 183.98533 170.51734 184.11051 170.36234 184.11051 L 162.14164 184.11051 L 162.14164 200.55045 L 170.36234 200.55045 C 170.51734 200.55045 170.64505 200.67863 170.64505 200.83463 L 170.64505 219.68571 C 170.64505 219.8437 170.51734 219.96842 170.36234 219.96842 L 161.85892 219.96842 L 144.85062 219.96842 C 144.69462 219.96842 144.56644 219.8437 144.56644 219.68571 L 144.56644 211.46354 L 128.12503 211.46354 L 128.12503 219.68571 C 128.12503 219.8437 127.99832 219.96842 127.84232 219.96842 L 110.83402 219.96842 C 110.67802 219.96842 110.54984 219.8437 110.54984 219.68571 L 110.54984 211.46354 L 94.109894 211.46354 L 94.109894 219.68571 C 94.109894 219.8437 93.982179 219.96842 93.82718 219.96842 L 76.818878 219.96842 C 76.662878 219.96842 76.536163 219.8437 76.536163 219.68571 L 76.536163 211.46354 L 60.094756 211.46354 L 60.094756 219.68571 C 60.094756 219.8437 59.966576 219.96842 59.810576 219.96842 L 42.802275 219.96842 C 42.647275 219.96842 42.51956 219.8437 42.51956 219.68571 L 42.51956 211.46354 L 26.079618 211.46354 L 26.079618 219.68571 C 26.079618 219.8437 25.950973 219.96842 25.793973 219.96842 L 8.7871362 219.96842 L 0.28371778 219.96842 z "
       transform="matrix(0.35277776,0,0,-0.35277776,3.4743695,199.3977)" />
    <path
       id="path47"
       d="m 0,0 h -8.221 c -0.283,0 0,-0.283 0,0 v 7.937 c 0,0.284 -0.283,0 0,0 H 8.22 c 0.284,0 0,0.284 0,0 V 0 c 0,-0.283 0.284,0 0,0 z"
       style="fill:#ffffff;fill-opacity:1;stroke:none;stroke-width:0.567;stroke-linecap:round;stroke-linejoin:round;stroke-miterlimit:11.339;stroke-dasharray:none;stroke-opacity:1"
       transform="matrix(0.35277776,0,0,-0.35277776,51.574738,286.59772)"
       clip-path="url(#clipPath48)" />
    <path
       id="path45"
       d="m 0,0 h -8.221 c -0.283,0 0,-0.283 0,0 v 7.937 c 0,0.284 -0.283,0 0,0 H 8.22 c 0.284,0 0,0.284 0,0 V 0 c 0,-0.283 0.284,0 0,0 z"
       style="fill:#ffffff;fill-opacity:1;stroke:none;stroke-width:0.567;stroke-linecap:round;stroke-linejoin:round;stroke-miterlimit:11.339;stroke-dasharray:none;stroke-opacity:1"
       transform="matrix(0.35277776,0,0,-0.35277776,39.574808,286.59772)"
       clip-path="url(#clipPath46)" />
    <path
       id="path43"
       d="m 0,0 h -8.22 c -0.284,0 0,-0.283 0,0 v 7.937 c 0,0.284 -0.284,0 0,0 H 8.221 c 0.284,0 0,0.284 0,0 V 0 c 0,-0.283 0.284,0 0,0 z"
       style="fill:#ffffff;fill-opacity:1;stroke:none;stroke-width:0.567;stroke-linecap:round;stroke-linejoin:round;stroke-miterlimit:11.339;stroke-dasharray:none;stroke-opacity:1"
       transform="matrix(0.35277776,0,0,-0.35277776,27.574461,286.59772)"
       clip-path="url(#clipPath44)" />
    <path
       id="path41"
       d="m 0,0 h -8.22 c -0.284,0 0,-0.283 0,0 v 7.937 c 0,0.284 -0.284,0 0,0 H 8.221 c 0.283,0 0,0.284 0,0 V 0 c 0,-0.283 0.283,0 0,0 z"
       style="fill:#ffffff;fill-opacity:1;stroke:none;stroke-width:0.567;stroke-linecap:round;stroke-linejoin:round;stroke-miterlimit:11.339;stroke-dasharray:none;stroke-opacity:1"
       transform="matrix(0.35277776,0,0,-0.35277776,15.574512,286.59772)"
       clip-path="url(#clipPath42)" />
  </g>
</svg>
