<?xml version="1.0" encoding="UTF-8" standalone="no"?>
<!-- Created with Inkscape (http://www.inkscape.org/) -->

<svg
   width="210mm"
   height="297mm"
   viewBox="0 0 210 297"
   version="1.1"
   id="svg1"
   inkscape:version="1.3 (0e150ed6c4, 2023-07-21)"
   sodipodi:docname="mdf_arcade_stacker_001.svg"
   xmlns:inkscape="http://www.inkscape.org/namespaces/inkscape"
   xmlns:sodipodi="http://sodipodi.sourceforge.net/DTD/sodipodi-0.dtd"
   xmlns="http://www.w3.org/2000/svg"
   xmlns:svg="http://www.w3.org/2000/svg">
  <sodipodi:namedview
     id="namedview1"
     pagecolor="#ffffff"
     bordercolor="#000000"
     borderopacity="0.25"
     inkscape:showpageshadow="2"
     inkscape:pageopacity="0.0"
     inkscape:pagecheckerboard="0"
     inkscape:deskcolor="#d1d1d1"
     inkscape:document-units="mm"
     inkscape:zoom="0.69166114"
     inkscape:cx="92.53086"
     inkscape:cy="622.41461"
     inkscape:window-width="1366"
     inkscape:window-height="745"
     inkscape:window-x="-8"
     inkscape:window-y="-8"
     inkscape:window-maximized="1"
     inkscape:current-layer="layer1" />
  <defs
     id="defs1">
    <clipPath
       clipPathUnits="userSpaceOnUse"
       id="clipPath2">
      <path
         d="M 0,841.89 H 1190.551 V 0 H 0 Z"
         transform="translate(-26.6938,-552.78481)"
         id="path2" />
    </clipPath>
    <clipPath
       clipPathUnits="userSpaceOnUse"
       id="clipPath14">
      <path
         d="M 0,841.89 H 1190.551 V 0 H 0 Z"
         transform="translate(-252.4219,-552.78481)"
         id="path14" />
    </clipPath>
    <clipPath
       clipPathUnits="userSpaceOnUse"
       id="clipPath4">
      <path
         d="M 0,841.89 H 1190.551 V 0 H 0 Z"
         transform="translate(-637.27541,-45.889801)"
         id="path4" />
    </clipPath>
    <clipPath
       clipPathUnits="userSpaceOnUse"
       id="clipPath56">
      <path
         d="M 0,841.89 H 1190.551 V 0 H 0 Z"
         transform="translate(-637.28122,-495.48351)"
         id="path56" />
    </clipPath>
    <clipPath
       clipPathUnits="userSpaceOnUse"
       id="clipPath82">
      <path
         d="M 0,841.89 H 1190.551 V 0 H 0 Z"
         transform="translate(-466.62991,-475.77211)"
         id="path82" />
    </clipPath>
    <clipPath
       clipPathUnits="userSpaceOnUse"
       id="clipPath84">
      <path
         d="M 0,841.89 H 1190.551 V 0 H 0 Z"
         transform="translate(-466.63531,-342.67491)"
         id="path84" />
    </clipPath>
    <clipPath
       clipPathUnits="userSpaceOnUse"
       id="clipPath86">
      <path
         d="M 0,841.89 H 1190.551 V 0 H 0 Z"
         transform="translate(-466.62991,-604.69102)"
         id="path86" />
    </clipPath>
    <clipPath
       clipPathUnits="userSpaceOnUse"
       id="clipPath12">
      <path
         d="M 0,841.89 H 1190.551 V 0 H 0 Z"
         transform="translate(-602.97662,-71.401502)"
         id="path12" />
    </clipPath>
    <clipPath
       clipPathUnits="userSpaceOnUse"
       id="clipPath10">
      <path
         d="M 0,841.89 H 1190.551 V 0 H 0 Z"
         transform="translate(-568.96091,-71.401502)"
         id="path10" />
    </clipPath>
    <clipPath
       clipPathUnits="userSpaceOnUse"
       id="clipPath8">
      <path
         d="M 0,841.89 H 1190.551 V 0 H 0 Z"
         transform="translate(-534.94481,-71.401502)"
         id="path8" />
    </clipPath>
    <clipPath
       clipPathUnits="userSpaceOnUse"
       id="clipPath6">
      <path
         d="M 0,841.89 H 1190.551 V 0 H 0 Z"
         transform="translate(-500.92921,-71.401502)"
         id="path6" />
    </clipPath>
    <clipPath
       clipPathUnits="userSpaceOnUse"
       id="clipPath2-1">
      <path
         d="M 0,841.89 H 1190.551 V 0 H 0 Z"
         transform="translate(-26.6938,-552.78481)"
         id="path2-4" />
    </clipPath>
    <clipPath
       clipPathUnits="userSpaceOnUse"
       id="clipPath14-3">
      <path
         d="M 0,841.89 H 1190.551 V 0 H 0 Z"
         transform="translate(-252.4219,-552.78481)"
         id="path14-2" />
    </clipPath>
    <clipPath
       clipPathUnits="userSpaceOnUse"
       id="clipPath56-4">
      <path
         d="M 0,841.89 H 1190.551 V 0 H 0 Z"
         transform="translate(-637.28122,-495.48351)"
         id="path56-0" />
    </clipPath>
    <clipPath
       clipPathUnits="userSpaceOnUse"
       id="clipPath82-6">
      <path
         d="M 0,841.89 H 1190.551 V 0 H 0 Z"
         transform="translate(-466.62991,-475.77211)"
         id="path82-7" />
    </clipPath>
    <clipPath
       clipPathUnits="userSpaceOnUse"
       id="clipPath86-8">
      <path
         d="M 0,841.89 H 1190.551 V 0 H 0 Z"
         transform="translate(-466.62991,-604.69102)"
         id="path86-2" />
    </clipPath>
    <clipPath
       clipPathUnits="userSpaceOnUse"
       id="clipPath4-0">
      <path
         d="M 0,841.89 H 1190.551 V 0 H 0 Z"
         transform="translate(-637.27541,-45.889801)"
         id="path4-6" />
    </clipPath>
    <clipPath
       clipPathUnits="userSpaceOnUse"
       id="clipPath84-0">
      <path
         d="M 0,841.89 H 1190.551 V 0 H 0 Z"
         transform="translate(-466.63531,-342.67491)"
         id="path84-9" />
    </clipPath>
    <clipPath
       clipPathUnits="userSpaceOnUse"
       id="clipPath68">
      <path
         d="M 0,841.89 H 1190.551 V 0 H 0 Z"
         transform="translate(-435.25631,-71.401502)"
         id="path68" />
    </clipPath>
    <clipPath
       clipPathUnits="userSpaceOnUse"
       id="clipPath12-7">
      <path
         d="M 0,841.89 H 1190.551 V 0 H 0 Z"
         transform="translate(-602.97662,-71.401502)"
         id="path12-7" />
    </clipPath>
    <clipPath
       clipPathUnits="userSpaceOnUse"
       id="clipPath10-3">
      <path
         d="M 0,841.89 H 1190.551 V 0 H 0 Z"
         transform="translate(-568.96091,-71.401502)"
         id="path10-7" />
    </clipPath>
    <clipPath
       clipPathUnits="userSpaceOnUse"
       id="clipPath8-1">
      <path
         d="M 0,841.89 H 1190.551 V 0 H 0 Z"
         transform="translate(-534.94481,-71.401502)"
         id="path8-8" />
    </clipPath>
    <clipPath
       clipPathUnits="userSpaceOnUse"
       id="clipPath6-0">
      <path
         d="M 0,841.89 H 1190.551 V 0 H 0 Z"
         transform="translate(-500.92921,-71.401502)"
         id="path6-9" />
    </clipPath>
  </defs>
  <g
     inkscape:label="Camada 1"
     inkscape:groupmode="layer"
     id="layer1">
    <path
       id="path1"
       clip-path="url(#clipPath2-1)"
       style="fill:#000000;fill-opacity:1;stroke:none;stroke-width:0.567;stroke-linecap:round;stroke-linejoin:round;stroke-miterlimit:11.339;stroke-dasharray:none;stroke-opacity:1"
       d="m 4.2524894,162.14134 c -0.1559998,0 -0.2841797,-0.12672 -0.2841797,-0.28272 v -8.2207 H 4.7906251e-5 C -0.15595194,153.63792 -0.28413179,153.50974 -0.28413179,153.35374 V 136.62962 H -8.5033703 c -0.1559998,0 -0.2841797,-0.12818 -0.2841797,-0.28418 V 119.3386 c 0,-0.155 0.1281799,-0.28418 0.2841797,-0.28418 h 8.21923851 V 102.61448 H -8.5033703 c -0.1559998,0 -0.2841797,-0.12818 -0.2841797,-0.28418 V 85.323464 c 0,-0.156 0.1281799,-0.28418 0.2841797,-0.28418 h 8.21923851 V 68.599342 H -8.5033703 c -0.1559998,0 -0.2841797,-0.12818 -0.2841797,-0.284179 V 51.306861 c 0,-0.155999 0.1281799,-0.284179 0.2841797,-0.284179 h 8.21923851 V 34.58274 H -8.5033703 c -0.1559998,0 -0.2841797,-0.12818 -0.2841797,-0.28418 V 17.291724 c 0,-0.157 0.1281799,-0.28418 0.2841797,-0.28418 h 8.21923851 V 0.28342266 c 0,-0.15599984 0.12817985,-0.28271484748 0.284179696251,-0.28271484748 H 3.9683097 V -8.2214604 c 0,-0.1549998 0.1281799,-0.2827148 0.2841797,-0.2827148 H 21.259326 c 0.156,0 0.284179,0.127715 0.284179,0.2827148 V 7.0781252e-4 H 37.983447 V -8.2214604 c 0,-0.1549998 0.12718,-0.2827148 0.28418,-0.2827148 h 17.006836 c 0.156,0 0.28418,0.127715 0.28418,0.2827148 V 7.0781252e-4 H 72.00005 V -8.2214604 c 0,-0.1549998 0.126715,-0.2827148 0.282715,-0.2827148 h 17.008301 c 0.156,0 0.284179,0.127715 0.284179,0.2827148 V 7.0781252e-4 H 106.01665 V -8.2214604 c 0,-0.1549998 0.12672,-0.2827148 0.28272,-0.2827148 h 17.0083 c 0.156,0 0.28271,0.127715 0.28271,0.2827148 V 7.0781252e-4 h 16.43994 V -8.2214604 c 0,-0.1549998 0.12818,-0.2827148 0.28418,-0.2827148 h 17.00831 c 0.156,0 0.28271,0.127715 0.28271,0.2827148 V 7.0781252e-4 h 16.44141 V -8.2214604 c 0,-0.1549998 0.12718,-0.2827148 0.28418,-0.2827148 h 17.00683 c 0.156,0 0.28418,0.127715 0.28418,0.2827148 V 7.0781252e-4 h 3.96826 c 0.156,0 0.28418,0.12671500748 0.28418,0.28271484748 V 17.007544 h 8.21924 c 0.156,0 0.28418,0.12718 0.28418,0.28418 V 34.29856 c 0,0.156 -0.12818,0.28418 -0.28418,0.28418 h -8.21924 v 16.439942 h 8.21924 c 0.156,0 0.28418,0.12818 0.28418,0.284179 v 17.008302 c 0,0.155999 -0.12818,0.284179 -0.28418,0.284179 h -8.21924 v 16.439942 h 8.21924 c 0.156,0 0.28418,0.12818 0.28418,0.28418 V 102.3303 c 0,0.156 -0.12818,0.28418 -0.28418,0.28418 h -8.21924 v 16.43994 h 8.21924 c 0.156,0 0.28418,0.12918 0.28418,0.28418 v 17.00684 c 0,0.156 -0.12818,0.28418 -0.28418,0.28418 h -8.21924 v 16.72412 c 0,0.156 -0.12818,0.28418 -0.28418,0.28418 h -3.96826 v 8.2207 c 0,0.156 -0.12818,0.28272 -0.28418,0.28272 h -17.00683 c -0.157,0 -0.28418,-0.12672 -0.28418,-0.28272 v -8.2207 h -16.44141 v 8.2207 c 0,0.156 -0.12671,0.28272 -0.28271,0.28272 H 140.3145 c -0.156,0 -0.28418,-0.12672 -0.28418,-0.28272 v -8.2207 h -16.43994 v 8.2207 c 0,0.156 -0.12671,0.28272 -0.28271,0.28272 h -17.0083 c -0.156,0 -0.28272,-0.12672 -0.28272,-0.28272 v -8.2207 H 89.575245 v 8.2207 c 0,0.156 -0.128179,0.28272 -0.284179,0.28272 H 72.282765 c -0.156,0 -0.282715,-0.12672 -0.282715,-0.28272 v -8.2207 H 55.558643 v 8.2207 c 0,0.156 -0.12818,0.28272 -0.28418,0.28272 H 38.267627 c -0.157,0 -0.28418,-0.12672 -0.28418,-0.28272 v -8.2207 H 21.543505 v 8.2207 c 0,0.156 -0.128179,0.28272 -0.284179,0.28272 z"
       transform="matrix(0.35277776,0,0,-0.35277776,4.2776815,292.74397)" />
    <path
       id="path13"
       clip-path="url(#clipPath14-3)"
       style="fill:#000000;fill-opacity:1;stroke:none;stroke-width:0.567;stroke-linecap:round;stroke-linejoin:round;stroke-miterlimit:11.339;stroke-dasharray:none;stroke-opacity:1"
       d="m 8.5033957,162.14134 c -0.1559999,0 -0.2827149,-0.12672 -0.2827149,-0.28272 v -8.2207 H -2.2500001e-5 C -0.15602234,153.63792 -0.28420219,153.50974 -0.28420219,153.35374 V 136.62962 H -8.5034407 c -0.1559998,0 -0.2841797,-0.12818 -0.2841797,-0.28418 V 119.3386 c 0,-0.155 0.1281799,-0.28418 0.2841797,-0.28418 h 8.21923851 V 102.61448 H -8.5034407 c -0.1559998,0 -0.2841797,-0.12818 -0.2841797,-0.28418 V 85.323464 c 0,-0.156 0.1281799,-0.28418 0.2841797,-0.28418 h 8.21923851 V 68.599342 H -8.5034407 c -0.1559998,0 -0.2841797,-0.12818 -0.2841797,-0.284179 V 51.306861 c 0,-0.155999 0.1281799,-0.284179 0.2841797,-0.284179 h 8.21923851 V 34.58274 H -8.5034407 c -0.1559998,0 -0.2841797,-0.12818 -0.2841797,-0.28418 V 17.291724 c 0,-0.157 0.1281799,-0.28418 0.2841797,-0.28418 h 8.21923851 V 0.28342266 c 0,-0.15599984 0.12817985,-0.28271484748 0.284179689999,-0.28271484748 H 8.2206808 V -8.2214604 c 0,-0.1549998 0.126715,-0.2827148 0.2827149,-0.2827148 H 25.511697 c 0.155,0 0.282715,0.127715 0.282715,0.2827148 V 7.0781252e-4 H 42.235818 V -8.2214604 c 0,-0.1549998 0.12818,-0.2827148 0.28418,-0.2827148 h 17.006836 c 0.157,0 0.28418,0.127715 0.28418,0.2827148 V 7.0781252e-4 H 76.252421 V -8.2214604 c 0,-0.1549998 0.126715,-0.2827148 0.282715,-0.2827148 h 17.008301 c 0.156,0 0.28418,0.127715 0.28418,0.2827148 V 7.0781252e-4 H 110.26756 V -8.2214604 c 0,-0.1549998 0.12671,-0.2827148 0.28271,-0.2827148 h 17.0083 c 0.156,0 0.28272,0.127715 0.28272,0.2827148 V 7.0781252e-4 H 144.2827 V -8.2214604 c 0,-0.1549998 0.12818,-0.2827148 0.28418,-0.2827148 h 17.0083 c 0.155,0 0.28271,0.127715 0.28271,0.2827148 V 7.0781252e-4 h 8.22071 c 0.15499,0 0.28271,0.12671500748 0.28271,0.28271484748 V 17.007544 h 8.22217 c 0.155,0 0.28271,0.12718 0.28271,0.28418 V 34.29856 c 0,0.156 -0.12771,0.28418 -0.28271,0.28418 h -8.22217 v 16.439942 h 8.22217 c 0.155,0 0.28271,0.12818 0.28271,0.284179 v 17.008302 c 0,0.155999 -0.12771,0.284179 -0.28271,0.284179 h -8.22217 v 16.439942 h 8.22217 c 0.155,0 0.28271,0.12818 0.28271,0.28418 V 102.3303 c 0,0.156 -0.12771,0.28418 -0.28271,0.28418 h -8.22217 v 16.43994 h 8.22217 c 0.155,0 0.28271,0.12918 0.28271,0.28418 v 17.00684 c 0,0.156 -0.12771,0.28418 -0.28271,0.28418 h -8.22217 v 16.72412 c 0,0.156 -0.12772,0.28418 -0.28271,0.28418 h -8.22071 v 8.2207 c 0,0.156 -0.12771,0.28272 -0.28271,0.28272 h -17.0083 c -0.156,0 -0.28418,-0.12672 -0.28418,-0.28272 v -8.2207 h -16.44141 v 8.2207 c 0,0.156 -0.12672,0.28272 -0.28272,0.28272 h -17.0083 c -0.156,0 -0.28271,-0.12672 -0.28271,-0.28272 v -8.2207 H 93.827617 v 8.2207 c 0,0.156 -0.12818,0.28272 -0.28418,0.28272 H 76.535136 c -0.156,0 -0.282715,-0.12672 -0.282715,-0.28272 v -8.2207 H 59.811014 v 8.2207 c 0,0.156 -0.12718,0.28272 -0.28418,0.28272 H 42.519998 c -0.156,0 -0.28418,-0.12672 -0.28418,-0.28272 v -8.2207 H 25.794412 v 8.2207 c 0,0.156 -0.127715,0.28272 -0.282715,0.28272 z"
       transform="matrix(0.35277776,0,0,-0.35277776,82.851204,292.74397)" />
    <path
       id="path55"
       clip-path="url(#clipPath56-4)"
       style="fill:#000000;fill-opacity:1;stroke:none;stroke-width:0.567;stroke-linecap:round;stroke-linejoin:round;stroke-miterlimit:11.339;stroke-dasharray:none;stroke-opacity:1"
       d="m -170.37252,48.797124 c -0.156,0 -0.28418,-0.126715 -0.28418,-0.282715 V 40.009526 23.906498 c 0,-0.158 0.12818,-0.28418 0.28418,-0.28418 h 8.21924 V 7.1823766 h -8.21924 c -0.156,0 -0.28418,-0.1281799 -0.28418,-0.2841797 l 0.0103,-6.89794939999 V -8.5046355 c 0,-0.1589999 0.12818,-0.2827149 0.28418,-0.2827149 h 8.50488 153.0703179 8.50341819 c 0.15499984,0 0.28417969126,0.123715 0.28417969126,0.2827149 V 2.4750001e-4 L -0.01118297,6.8981969 c 0,0.1559998 -0.12817985,0.2841797 -0.28417969,0.2841797 H -8.5146012 V 23.622318 h 8.21923854 c 0.15599984,0 0.28417969,0.12618 0.28417969,0.28418 v 16.103028 8.504883 c 0,0.156 -0.12817985,0.282715 -0.28417969,0.282715 H -8.7987808 -161.8691 Z"
       transform="matrix(0.35277776,0,0,-0.35277776,62.103686,185.07077)" />
    <path
       id="path81"
       clip-path="url(#clipPath82-6)"
       style="fill:#000000;fill-opacity:1;stroke:none;stroke-width:0.567;stroke-linecap:round;stroke-linejoin:round;stroke-miterlimit:11.339;stroke-dasharray:none;stroke-opacity:1"
       d="M 4.7109376e-4,7.1250002e-4 V -31.181417 c 0,-0.156 0.12817984624,-0.282715 0.28417969624,-0.282715 H 8.5038893 V -47.905539 H 0.28465079 c -0.15599985,0 -0.28417969624,-0.12818 -0.28417969624,-0.284179 v -17.006837 c 0,-0.156 0.12817984624,-0.282715 0.28417969624,-0.282715 H 8.5038893 V -81.920676 H 0.28465079 c -0.15599985,0 -0.28417969624,-0.12718 -0.28417969624,-0.28418 V -113.38552 H 170.64598 v 31.180664 c 0,0.157 -0.12718,0.28418 -0.28418,0.28418 h -8.21924 v 16.441406 h 8.21924 c 0.157,0 0.28418,0.126715 0.28418,0.282715 v 17.006837 c 0,0.155999 -0.12718,0.284179 -0.28418,0.284179 h -8.21924 v 16.441407 h 8.21924 c 0.157,0 0.28418,0.126715 0.28418,0.282715 V 7.1250002e-4 Z"
       transform="matrix(0.35277776,0,0,-0.35277776,1.9016985,192.02452)" />
    <path
       id="path85"
       clip-path="url(#clipPath86-8)"
       style="fill:#000000;fill-opacity:1;stroke:none;stroke-width:0.567;stroke-linecap:round;stroke-linejoin:round;stroke-miterlimit:11.339;stroke-dasharray:none;stroke-opacity:1"
       d="m 0.28465079,0.2824936 c -0.15599985,0 -0.28417969624,-0.12671501 -0.28417969624,-0.28271485001 V -14.275124 c 0,-0.156 0.12817984624,-0.28418 0.28417969624,-0.28418 H 8.5038893 V -31.00071 H 0.28465079 c -0.15599985,0 -0.28417969624,-0.126715 -0.28417969624,-0.282715 v -14.274903 c 0,-0.155 0.12817984624,-0.28418 0.28417969624,-0.28418 H 8.788069 161.85839 170.3618 c 0.157,0 0.28418,0.12918 0.28418,0.28418 v 14.274903 c 0,0.156 -0.12718,0.282715 -0.28418,0.282715 h -8.21924 v 16.441406 h 8.21924 c 0.157,0 0.28418,0.12818 0.28418,0.28418 V -2.2125001e-4 C 170.64598,0.15577859 170.5188,0.2824936 170.3618,0.2824936 h -8.50341 -17.00684 c -0.157,0 -0.28418,-0.12671501 -0.28418,-0.28271485001 V -8.2209246 H 128.12596 V -2.2125001e-4 C 128.12596,0.15577859 127.99925,0.2824936 127.84325,0.2824936 h -17.0083 c -0.156,0 -0.28418,-0.12671501 -0.28418,-0.28271485001 V -8.2209246 H 94.10936 V -2.2125001e-4 C 94.10936,0.15577859 93.982645,0.2824936 93.826645,0.2824936 H 76.818344 c -0.156,0 -0.282715,-0.12671501 -0.282715,-0.28271485001 V -8.2209246 H 60.095687 V -2.2125001e-4 C 60.095687,0.15577859 59.967508,0.2824936 59.811508,0.2824936 H 42.803207 c -0.156,0 -0.282715,-0.12671501 -0.282715,-0.28271485001 V -8.2209246 H 26.079085 V -2.2125001e-4 C 26.079085,0.15577859 25.950905,0.2824936 25.794905,0.2824936 H 8.788069 Z"
       transform="matrix(0.35277776,0,0,-0.35277776,1.9016985,146.54479)" />
    <path
       id="path87"
       style="fill:#ffffff;fill-opacity:1;fill-rule:nonzero;stroke:none;stroke-width:0.352778"
       d="m 11.37984,151.93679 v 0.0248 h -0.706934 v 0.7276 h -0.04134 v 3.03857 0.75241 h 0.748275 2.248958 v 1.45521 h -2.997233 v 1.5503 h 3.790983 v -0.0248 h 0.748275 v -0.73174 -3.04271 -0.74827 h -0.748275 -2.248958 v -1.45934 h 2.997233 v -1.54203 z m 5.698877,0 v 1.54203 H 18.5794 v 6.00687 h 1.542025 v -6.00687 h 1.49655 v -1.54203 z m 6.447151,0 v 7.5489 h 1.542025 v -3.00551 h 1.455208 v 3.00551 h 1.542025 v -7.5489 z m 7.195427,0 v 0.0248 h -0.706934 v 0.7276 h -0.04134 v 6.03994 0.75654 h 0.748275 3.042708 v -0.0248 h 0.748275 v -0.73174 -0.0165 -2.27377 h -1.542025 v 1.49655 h -1.455208 v -4.45657 h 1.455208 v 1.50068 h 1.542025 v -2.2903 -0.7276 h -0.748275 v -0.0248 z m 5.697843,0 v 7.5489 h 1.542025 v -3.00551 h 1.455208 v 3.00551 h 1.542025 v -3.04685 h -0.748275 v -1.45934 h 0.748275 v -3.04271 h -1.542025 v 3.00137 h -1.455208 v -3.00137 z m 6.447151,0 v 7.5489 h 3.790982 v -1.5503 h -2.248957 v -1.45521 h 2.248957 v -1.54202 h -2.248957 v -1.45934 h 2.248957 v -1.54203 z m 5.697845,0 v 7.5489 h 1.542023 v -3.00551 h 1.455208 v 3.00551 h 1.542027 v -3.04685 h -0.748277 v -0.71106 h 0.748277 v -3.03858 -0.75241 h -0.748277 z m -23.496241,1.54203 h 1.455208 v 1.45934 h -1.455208 z m 25.038264,0 h 1.455208 v 1.45934 h -1.455208 z" />
    <path
       id="path3"
       d="m 0,0 v 5.771 c 0,0.157 -0.127,0.284 -0.283,0.284 h -8.221 c -0.283,0 0,-0.284 0,0 v 16.441 c 0,0.283 -0.283,0 0,0 h 8.221 c 0.156,0 0.283,0.127 0.283,0.283 v 17.008 c 0,0.156 -0.127,0.283 -0.283,0.283 h -8.221 c -0.283,0 0,-0.283 0,0 v 16.442 c 0,0.283 -0.283,0 0,0 h 8.221 c 0.156,0 0.283,0.127 0.283,0.283 v 17.008 c 0,0.156 -0.127,0.283 -0.283,0.283 h -8.221 c -0.283,0 0,-0.283 0,0 v 16.441 c 0,0.284 -0.283,0 0,0 h 8.221 c 0.156,0 0.283,0.127 0.283,0.284 v 17.007 c 0,0.157 -0.127,0.284 -0.283,0.284 h -8.221 c -0.283,0 0,-0.284 0,0 v 16.441 c 0,0.283 -0.283,0 0,0 h 8.221 c 0.156,0 0.283,0.128 0.283,0.283 v 17.008 c 0,0.156 -0.127,0.284 -0.283,0.284 h -8.221 c -0.283,0 0,-0.284 0,0 v 16.441 c 0,0.283 -0.283,0 0,0 h 8.221 c 0.156,0 0.283,0.128 0.283,0.283 v 17.009 c 0,0.155 -0.127,0.283 -0.283,0.283 h -8.221 c -0.283,0 0,-0.283 0,0 v 16.44 c 0,0.284 -0.283,0 0,0 h 8.221 c 0.156,0 0.283,0.128 0.283,0.284 v 5.771 c 0,0.156 -0.127,0.284 -0.283,0.284 h -8.504 -153.071 -8.504 c -0.156,0 -0.284,-0.128 -0.284,-0.284 v -5.771 c 0,-0.156 0.128,-0.284 0.284,-0.284 h 8.22 c 0.284,0 0,0.284 0,0 v -16.44 c 0,-0.283 0.284,0 0,0 h -8.22 c -0.156,0 -0.284,-0.128 -0.284,-0.283 v -17.009 c 0,-0.155 0.128,-0.283 0.284,-0.283 h 8.22 c 0.284,0 0,0.283 0,0 v -16.441 c 0,-0.284 0.284,0 0,0 h -8.22 c -0.156,0 -0.284,-0.128 -0.284,-0.284 v -17.008 c 0,-0.155 0.128,-0.283 0.284,-0.283 h 8.22 c 0.284,0 0,0.283 0,0 v -16.441 c 0,-0.284 0.284,0 0,0 h -8.22 c -0.156,0 -0.284,-0.127 -0.284,-0.284 V 90.811 c 0,-0.157 0.128,-0.284 0.284,-0.284 h 8.22 c 0.284,0 0,0.284 0,0 V 74.086 c 0,-0.283 0.284,0 0,0 h -8.22 c -0.156,0 -0.284,-0.127 -0.284,-0.283 V 56.795 c 0,-0.156 0.128,-0.283 0.284,-0.283 h 8.22 c 0.284,0 0,0.283 0,0 V 40.07 c 0,-0.283 0.284,0 0,0 h -8.22 c -0.156,0 -0.284,-0.127 -0.284,-0.283 V 22.779 c 0,-0.156 0.128,-0.283 0.284,-0.283 h 8.22 c 0.284,0 0,0.283 0,0 V 6.055 c 0,-0.284 0.284,0 0,0 h -8.22 c -0.156,0 -0.284,-0.127 -0.284,-0.284 V 0 c 0,-0.156 0.128,-0.283 0.284,-0.283 h 8.504 34.016 c 3.036,0 6.018,0.799 8.645,2.315 2.628,1.52 4.811,3.702 6.33,6.33 1.469,2.543 3.577,4.655 6.12,6.123 2.543,1.465 5.429,2.24 8.362,2.24 h 26.125 c 2.933,0 5.819,-0.775 8.362,-2.24 2.543,-1.468 4.651,-3.58 6.12,-6.123 1.519,-2.628 3.702,-4.81 6.329,-6.33 2.628,-1.516 5.61,-2.315 8.646,-2.315 h 34.016 8.504 C -0.127,-0.283 0,-0.156 0,0"
       style="fill:#000000;fill-opacity:1;stroke:none;stroke-width:0.567;stroke-linecap:round;stroke-linejoin:round;stroke-miterlimit:11.339;stroke-dasharray:none;stroke-opacity:1"
       transform="matrix(0.35277776,0,0,-0.35277776,128.52012,232.27755)"
       clip-path="url(#clipPath4-0)" />
    <path
       id="path83"
       clip-path="url(#clipPath84-0)"
       style="fill:#000000;fill-opacity:1;stroke:none;stroke-width:0.567;stroke-linecap:round;stroke-linejoin:round;stroke-miterlimit:11.339;stroke-dasharray:none;stroke-opacity:1"
       d="m 0.28364532,8.7868751 c -0.15599984,0 -0.28417969501,-0.124715 -0.28417969501,-0.2827149 V -7.2281252e-4 L -0.01078828,-9.6862699 c 0,-0.1549999 0.12817985,-0.2841797 0.28417969,-0.2841797 H 8.4926299 V -26.410391 H 0.27339141 c -0.15599984,0 -0.28417969,-0.12518 -0.28417969,-0.28418 v -17.006836 c 0,-0.156 0.12817985,-0.28418 0.28417969,-0.28418 H 8.4926299 V -60.426994 H 0.27339141 c -0.15599984,0 -0.28417969,-0.123715 -0.28417969,-0.282715 v -18.890625 -8.503418 c 0,-0.159 0.12817985,-0.28418 0.28417969,-0.28418 H 8.7768096 161.84713 h 8.50488 c 0.155,0 0.28271,0.12518 0.28271,0.28418 v 8.503418 18.890625 c 0,0.159 -0.12818,0.282715 -0.28418,0.282715 h -8.21923 v 16.441407 h 8.21923 c 0.156,0 0.28418,0.12918 0.28418,0.28418 v 17.006836 c 0,0.159 -0.12818,0.28418 -0.28418,0.28418 h -8.21923 v 16.4399414 h 8.21923 c 0.156,0 0.28418,0.1291798 0.28418,0.2841797 l 0.0117,9.68554708748 V 8.5041602 c 0,0.1589999 -0.12771,0.2827149 -0.28271,0.2827149 H 161.85884 8.7885283 Z"
       transform="matrix(0.35277776,0,0,-0.35277776,68.322064,128.10753)" />
    <path
       id="path11"
       d="m 0,0 h -8.221 c -0.283,0 0,-0.283 0,0 v 7.937 c 0,0.284 -0.283,0 0,0 H 8.221 c 0.283,0 0,0.284 0,0 V 0 c 0,-0.283 0.283,0 0,0 z"
       style="fill:#ffffff;fill-opacity:1;stroke:none;stroke-width:0.567;stroke-linecap:round;stroke-linejoin:round;stroke-miterlimit:11.339;stroke-dasharray:none;stroke-opacity:1"
       transform="matrix(0.35277776,0,0,-0.35277776,116.32083,223.17788)"
       clip-path="url(#clipPath12-7)" />
    <path
       id="path9"
       d="m 0,0 h -8.221 c -0.283,0 0,-0.283 0,0 v 7.937 c 0,0.284 -0.283,0 0,0 H 8.22 c 0.284,0 0,0.284 0,0 V 0 c 0,-0.283 0.284,0 0,0 z"
       style="fill:#ffffff;fill-opacity:1;stroke:none;stroke-width:0.567;stroke-linecap:round;stroke-linejoin:round;stroke-miterlimit:11.339;stroke-dasharray:none;stroke-opacity:1"
       transform="matrix(0.35277776,0,0,-0.35277776,104.32084,223.17788)"
       clip-path="url(#clipPath10-3)" />
    <path
       id="path7"
       d="m 0,0 h -8.22 c -0.284,0 0,-0.283 0,0 v 7.937 c 0,0.284 -0.284,0 0,0 H 8.221 c 0.283,0 0,0.284 0,0 V 0 c 0,-0.283 0.283,0 0,0 z"
       style="fill:#ffffff;fill-opacity:1;stroke:none;stroke-width:0.567;stroke-linecap:round;stroke-linejoin:round;stroke-miterlimit:11.339;stroke-dasharray:none;stroke-opacity:1"
       transform="matrix(0.35277776,0,0,-0.35277776,92.320686,223.17788)"
       clip-path="url(#clipPath8-1)" />
    <path
       id="path5"
       d="m 0,0 h -8.22 c -0.284,0 0,-0.283 0,0 v 7.937 c 0,0.284 -0.284,0 0,0 H 8.221 c 0.283,0 0,0.284 0,0 V 0 c 0,-0.283 0.283,0 0,0 z"
       style="fill:#ffffff;fill-opacity:1;stroke:none;stroke-width:0.567;stroke-linecap:round;stroke-linejoin:round;stroke-miterlimit:11.339;stroke-dasharray:none;stroke-opacity:1"
       transform="matrix(0.35277776,0,0,-0.35277776,80.320746,223.17788)"
       clip-path="url(#clipPath6-0)" />
  </g>
</svg>
