<?xml version="1.0" encoding="UTF-8" standalone="no"?>
<!-- Created with Inkscape (http://www.inkscape.org/) -->

<svg
   width="210mm"
   height="297mm"
   viewBox="0 0 210 297"
   version="1.1"
   id="svg1"
   inkscape:version="1.3.2 (091e20e, 2023-11-25, custom)"
   sodipodi:docname="temp.svg"
   inkscape:export-filename="temp.png"
   inkscape:export-xdpi="96"
   inkscape:export-ydpi="96"
   xmlns:inkscape="http://www.inkscape.org/namespaces/inkscape"
   xmlns:sodipodi="http://sodipodi.sourceforge.net/DTD/sodipodi-0.dtd"
   xmlns="http://www.w3.org/2000/svg"
   xmlns:svg="http://www.w3.org/2000/svg">
  <sodipodi:namedview
     id="namedview1"
     pagecolor="#ffffff"
     bordercolor="#000000"
     borderopacity="0.25"
     inkscape:showpageshadow="2"
     inkscape:pageopacity="0.0"
     inkscape:pagecheckerboard="0"
     inkscape:deskcolor="#d1d1d1"
     inkscape:document-units="mm"
     inkscape:zoom="6.2324076"
     inkscape:cx="-38.428167"
     inkscape:cy="745.69898"
     inkscape:window-width="3840"
     inkscape:window-height="2054"
     inkscape:window-x="-11"
     inkscape:window-y="-11"
     inkscape:window-maximized="1"
     inkscape:current-layer="layer1" />
  <defs
     id="defs1">
    <clipPath
       clipPathUnits="userSpaceOnUse"
       id="clipPath70-8">
      <path
         d="M 0,841.89 H 1190.551 V 0 H 0 Z"
         transform="translate(-252.13821,-318.01571)"
         id="path70-8" />
    </clipPath>
    <clipPath
       clipPathUnits="userSpaceOnUse"
       id="clipPath14">
      <path
         d="M 0,841.89 H 1190.551 V 0 H 0 Z"
         transform="translate(-252.4219,-552.78481)"
         id="path14" />
    </clipPath>
    <clipPath
       clipPathUnits="userSpaceOnUse"
       id="clipPath84-5">
      <path
         d="M 0,841.89 H 1190.551 V 0 H 0 Z"
         transform="translate(-466.63531,-342.67491)"
         id="path84-1" />
    </clipPath>
    <clipPath
       clipPathUnits="userSpaceOnUse"
       id="clipPath56">
      <path
         d="M 0,841.89 H 1190.551 V 0 H 0 Z"
         transform="translate(-637.28122,-495.48351)"
         id="path56" />
    </clipPath>
  </defs>
  <g
     inkscape:label="Camada 1"
     inkscape:groupmode="layer"
     id="layer1">
    <path
       d="m 5.2922147,175.64097 h 7.5489003 v -1.54203 H 9.8356147 v -1.45521 h 3.0055003 v -1.54254 H 9.7942647 v 0.74879 h -0.71106 v -0.74879 h -3.03858 -0.75241 v 0.74879 z m 1.54203,-1.54203 v -1.45521 h 1.45934 v 1.45521 z"
       style="fill:#000000;stroke-width:0.352778"
       id="path57" />
    <path
       d="m 5.2922147,181.33829 h 7.5489003 v -3.79046 h -1.5503 v 2.24896 H 9.8356147 v -2.24896 h -1.54203 v 2.24896 h -1.45934 v -2.24896 h -1.54203 z"
       style="fill:#000000;stroke-width:0.352778"
       id="path38" />
    <path
       d="m 5.2922147,187.78596 h 7.5489003 v -1.54254 H 9.8356147 v -1.45521 H 12.841115 V 183.2467 H 9.7942647 v 0.74776 h -1.45934 v -0.74776 h -3.04271 v 1.54151 h 3.00137 v 1.45521 h -3.00137 z"
       style="fill:#000000;stroke-width:0.352778"
       id="path37" />
    <path
       d="m 5.2922147,193.48329 h 0.0248 v 0.70693 h 0.7276 v 0.0413 h 6.0399403 0.75655 v -0.74827 -3.04271 h -0.0248 v -0.74828 h -0.73174 -0.0165 -2.2737703 v 1.54203 h 1.4965503 v 1.45521 H 6.8342747 v -1.45521 h 1.50068 v -1.54203 h -2.2903 -0.7276 v 0.74828 h -0.0248 z"
       style="fill:#000000;stroke-width:0.352778"
       id="path36" />
    <path
       d="m 5.2922147,200.67923 h 7.5489003 v -1.54254 H 9.8356147 v -1.45521 h 3.0055003 v -1.54202 H 5.2922147 Z m 1.54203,-1.54254 v -1.45521 h 1.45934 v 1.45521 z"
       style="fill:#000000;stroke-width:0.352778"
       id="path35" />
    <path
       d="m 5.2922147,207.12587 h 1.54203 v -1.50069 h 6.0068703 v -1.54202 H 6.8342447 v -1.49655 h -1.54203 z"
       style="fill:#000000;stroke-width:0.352778"
       id="path34" />
    <path
       d="m 5.2922147,212.82526 h 0.0248 v 0.70642 h 0.7276 v 0.0413 h 3.03858 0.75241 v -0.74828 -2.24896 h 1.4552003 v 2.99724 h 1.5503 v -3.79099 h -0.0248 v -0.74827 h -0.73174 -3.0427003 -0.74828 v 0.74827 2.24896 h -1.45934 v -2.99723 h -1.54203 z"
       style="fill:#000000;stroke-width:0.352778"
       id="path33" />
  </g>
</svg>
