; NON-PLATED HOLES START AT T1
; THROUGH (PLATED) HOLES START AT T100
M48
INCH
T100C0.035000
T101C0.038000
T102C0.033944
T103C0.040000
T104C0.031497
%
T100
X017153Y012402
X015353Y008443
X005386Y016002
X015353Y004602
X017124Y008443
X008986Y015002
X015381Y012402
X017124Y011002
X011353Y005602
X010353Y016002
X015381Y014961
X004986Y015002
X010353Y005602
X019353Y004602
X017153Y014961
X015353Y011002
T101
X010353Y011002
X009353Y018002
X021153Y005602
X008949Y003002
X018986Y018002
X004353Y018002
X011353Y012002
X017949Y003002
X015986Y018002
X006949Y003002
X021153Y004602
X006353Y018002
X007353Y018002
X005353Y018002
X011353Y010002
X014949Y003002
X010949Y003002
X013986Y018002
X010353Y012002
X021153Y007602
X017986Y018002
X011353Y011002
X021153Y006602
X009949Y003002
X012978Y018002
X011986Y018002
X010353Y018002
X002353Y018002
X021153Y012802
X010353Y009002
X003353Y018002
X021153Y013802
X013949Y003002
X011353Y009002
X016986Y018002
X008353Y018002
X007949Y003002
X001353Y018002
X005949Y003002
X004949Y003002
X014986Y018002
X016949Y003002
X010353Y010002
X021153Y014802
X015949Y003002
X011949Y003002
X018949Y003002
T102
X011353Y009002
X011353Y012002
X011353Y011002
X010353Y010002
X011353Y010002
X010353Y009002
X010353Y011002
X010353Y012002
T103
X006953Y020002
X008553Y001002
X017553Y020002
X018553Y020002
X017553Y001002
X007953Y020002
X009953Y020002
X014553Y020002
X011553Y020002
X009553Y001002
X014553Y001002
X016553Y020002
X013553Y020002
X011553Y001002
X018653Y012002
X019653Y010002
X015553Y001002
X003953Y020002
X010553Y001002
X015553Y020002
X004953Y020002
X001953Y020002
X018653Y010002
X002953Y020002
X019653Y011002
X005953Y020002
X018553Y001002
X008952Y020002
X013553Y001002
X019653Y012002
X016553Y001002
X004553Y001004
X006553Y001002
X000953Y020002
X007553Y001002
X005553Y001004
X018653Y011002
X012553Y020002
T104
X015353Y006602
X014368Y006602
T00
M30
