G04 MADE WITH FRITZING*
G04 WWW.FRITZING.ORG*
G04 DOUBLE SIDED*
G04 HOLES PLATED*
G04 CONTOUR ON CENTER OF CONTOUR VECTOR*
%ASAXBY*%
%FSLAX23Y23*%
%MOIN*%
%OFA0B0*%
%SFA1.0B1.0*%
%ADD10C,0.077278*%
%ADD11C,0.085000*%
%ADD12C,0.072992*%
%ADD13C,0.088000*%
%ADD14C,0.070000*%
%ADD15R,0.085000X0.085000*%
%ADD16R,0.072992X0.072992*%
%LNMASK0*%
G90*
G70*
G54D10*
X1035Y900D03*
X1035Y1000D03*
X1035Y1100D03*
X1035Y1200D03*
X1135Y900D03*
X1135Y1000D03*
X1135Y1100D03*
X1135Y1200D03*
G54D11*
X1135Y560D03*
X1035Y560D03*
X1712Y1100D03*
X1712Y844D03*
X1535Y1100D03*
X1535Y844D03*
X1715Y1496D03*
X1715Y1240D03*
X1538Y1496D03*
X1538Y1240D03*
X1935Y460D03*
X1535Y460D03*
G54D12*
X1437Y660D03*
X1535Y660D03*
G54D11*
X899Y1500D03*
X499Y1500D03*
X1035Y1600D03*
X539Y1600D03*
G54D13*
X595Y300D03*
X435Y1800D03*
X535Y1800D03*
X135Y1800D03*
G54D14*
X295Y2000D03*
X1155Y100D03*
X1755Y2000D03*
X1965Y1100D03*
X695Y2000D03*
X1655Y100D03*
X1355Y2000D03*
X755Y100D03*
X1965Y1200D03*
X1965Y1000D03*
X895Y2000D03*
X495Y2000D03*
X1455Y100D03*
X1855Y100D03*
X1555Y2000D03*
X1155Y2000D03*
X955Y100D03*
X1865Y1200D03*
X1865Y1100D03*
X1865Y1000D03*
X995Y2000D03*
X795Y2000D03*
X595Y2000D03*
X395Y2000D03*
X95Y2000D03*
X195Y2000D03*
X1355Y100D03*
X1555Y100D03*
X1755Y100D03*
X1855Y2000D03*
X1655Y2000D03*
X1455Y2000D03*
X1255Y2000D03*
X655Y100D03*
X855Y100D03*
X555Y100D03*
X455Y100D03*
X1055Y100D03*
G54D13*
X1195Y300D03*
X995Y300D03*
X1695Y300D03*
X1895Y300D03*
X1899Y1800D03*
X1699Y1800D03*
X1035Y1800D03*
X1095Y300D03*
X895Y300D03*
X1595Y300D03*
X1795Y300D03*
X1799Y1800D03*
X1599Y1800D03*
X835Y1800D03*
X735Y1800D03*
X935Y1800D03*
X495Y300D03*
X795Y300D03*
X1495Y300D03*
X1199Y1800D03*
X1499Y1800D03*
X335Y1800D03*
X695Y300D03*
X1395Y300D03*
X1399Y1800D03*
X1298Y1800D03*
X635Y1800D03*
X235Y1800D03*
X1035Y1200D03*
X1035Y1100D03*
X1035Y1000D03*
X1035Y900D03*
X1035Y1200D03*
X1035Y1100D03*
X1035Y1000D03*
X1035Y900D03*
X1135Y900D03*
X1135Y1000D03*
X1135Y1100D03*
X1135Y1200D03*
X2115Y760D03*
X2115Y660D03*
X2115Y560D03*
X2115Y460D03*
X2115Y1480D03*
X2115Y1380D03*
X2115Y1280D03*
G54D15*
X1135Y560D03*
G54D16*
X1437Y660D03*
G04 End of Mask0*
M02*