<?xml version="1.0" encoding="UTF-8" standalone="no"?>
<!-- Created with Inkscape (http://www.inkscape.org/) -->

<svg
   width="210mm"
   height="297mm"
   viewBox="0 0 210 297"
   version="1.1"
   id="svg1"
   inkscape:version="1.3.2 (091e20e, 2023-11-25, custom)"
   sodipodi:docname="inomeado.svg"
   xmlns:inkscape="http://www.inkscape.org/namespaces/inkscape"
   xmlns:sodipodi="http://sodipodi.sourceforge.net/DTD/sodipodi-0.dtd"
   xmlns="http://www.w3.org/2000/svg"
   xmlns:svg="http://www.w3.org/2000/svg">
  <sodipodi:namedview
     id="namedview1"
     pagecolor="#ffffff"
     bordercolor="#000000"
     borderopacity="0.25"
     inkscape:showpageshadow="2"
     inkscape:pageopacity="0.0"
     inkscape:pagecheckerboard="0"
     inkscape:deskcolor="#d1d1d1"
     inkscape:document-units="mm"
     inkscape:zoom="4.4069776"
     inkscape:cx="38.007908"
     inkscape:cy="1151.1291"
     inkscape:window-width="1916"
     inkscape:window-height="2041"
     inkscape:window-x="-9"
     inkscape:window-y="0"
     inkscape:window-maximized="0"
     inkscape:current-layer="layer1" />
  <defs
     id="defs1" />
  <g
     inkscape:label="Camada 1"
     inkscape:groupmode="layer"
     id="layer1">
    <path
       id="path1"
       style="fill:#000000;stroke-width:0.0100837"
       d="M 271.77411 0 L 277.77426 0 L 277.77426 -1.9998779 L 276.94485 -1.9998779 A 2.5 2.5 0 0 0 277.27455 -3.2282267 A 2.5 2.5 0 0 0 274.77444 -5.7283325 A 2.5 2.5 0 0 0 272.27434 -3.2282267 A 2.5 2.5 0 0 0 272.60352 -1.9998779 L 271.77411 -1.9998779 L 271.77411 0 z "
       transform="rotate(90)" />
    <circle
       style="fill:#803300;stroke-width:0.00705857"
       id="circle8"
       cx="274.77435"
       cy="-3.2281189"
       r="1.75"
       transform="rotate(90)" />
    <circle
       style="fill:#ffffff;stroke-width:0.00403347"
       id="circle7"
       cx="274.77435"
       cy="-3.2281189"
       r="1"
       transform="rotate(90)" />
    <path
       id="circle1"
       style="fill:#000000;stroke-width:0.0141172"
       d="M 278.83259 -3.7904663 A 3.5 3.5 0 0 0 279.33282 -1.9998779 A 3.5 3.5 0 0 0 279.33282 -1.9993612 L 279.33282 0 L 285.33245 0 L 285.33245 -1.9993612 A 3.5 3.5 0 0 0 285.33245 -1.9998779 A 3.5 3.5 0 0 0 285.83268 -3.7904663 A 3.5 3.5 0 0 0 282.33264 -7.2905111 A 3.5 3.5 0 0 0 278.83259 -3.7904663 z "
       transform="rotate(90)" />
    <circle
       style="fill:#803300;stroke-width:0.00806694"
       id="circle9"
       cx="282.33267"
       cy="-3.7903137"
       r="2"
       transform="rotate(90)" />
    <circle
       style="fill:#ffffff;stroke-width:0.00403347"
       id="circle10"
       cx="282.33267"
       cy="-3.7903137"
       r="1"
       transform="rotate(90)" />
    <path
       id="circle2"
       style="fill:#000000;stroke-width:0.0201675"
       d="M 286.89102 -7.9669556 A 5 5 0 0 0 290.89077 -3.0804321 L 290.89077 -1.9998779 L 288.89089 -1.9998779 L 288.89089 0 L 290.89077 0 L 292.89117 0 L 294.89104 0 L 294.89104 -1.9998779 L 292.89117 -1.9998779 L 292.89117 -3.0804321 A 5 5 0 0 0 296.89092 -7.9669556 A 5 5 0 0 0 291.89123 -12.967167 A 5 5 0 0 0 286.89102 -7.9669556 z "
       transform="rotate(90)" />
    <circle
       style="fill:#decd87;stroke-width:0.0121004"
       id="circle13"
       cx="291.89099"
       cy="-7.96698"
       r="3"
       transform="rotate(90)" />
    <circle
       style="fill:#803300;stroke-width:0.00847029"
       id="circle11"
       cx="291.91901"
       cy="-7.96698"
       r="2.0999999"
       transform="rotate(90)" />
    <circle
       style="fill:#ffffff;stroke-width:0.00403347"
       id="circle12"
       cx="291.89099"
       cy="-7.96698"
       r="1"
       transform="rotate(90)" />
  </g>
</svg>
